<?xml version="1.0" encoding="UTF-8"?><svg id="_レイヤー_2" xmlns="http://www.w3.org/2000/svg" xmlns:xlink="http://www.w3.org/1999/xlink" viewBox="0 0 1200 500"><defs><style>.cls-1{fill:#e35f0e;}.cls-2{fill:#fff;}.cls-3{fill:#040000;}.cls-4{fill:#f49c00;}.cls-5{fill:#dacf57;}.cls-6{fill:#f5e273;}.cls-7{clip-path:url(#clippath);}.cls-8,.cls-9{fill:none;}.cls-9{stroke:#040000;stroke-linecap:round;stroke-linejoin:round;stroke-width:4px;}.cls-10{fill:#231815;}</style><clipPath id="clippath"><rect class="cls-8" width="1200" height="500"/></clipPath></defs><g id="_レイヤー_1-2"><g class="cls-7"><rect class="cls-2" width="1200" height="500"/><g><g id="_キラキラ"><path class="cls-6" d="M434.84,93.92c-4.55-.47-7.98-4.2-8.97-8.47-.37-1.61-1.32-2.6-2.47-3.07,.05-.46,.11-.92,.14-1.38,.45-6.12-9.08-6.09-9.53,0-.48,6.5-4.5,12-10.2,14.96-3.54,1.84-2.83,7.87,1.14,8.71,7.96,1.68,9.17,11.38,10.22,18.05,.84,5.33,9.52,4.03,9.36-1.27-.26-8.33,6.6-14.09,12.71-18.65,3.87-2.89,2.46-8.37-2.4-8.88Z"/><path class="cls-3" d="M413.81,65.65c-.58,13.08-4.71,29.85-19.99,32.2-3.38,.52-2.47,5.83,.79,5.85,6.95,.03,12,5.87,15.18,11.47,3.7,6.52,5.34,13.87,5.08,21.33-.12,3.28,5.35,4.16,5.85,.79,2.21-14.99,11.11-28.24,24.3-35.75,1.81-1.03,2.07-4.19,0-5.14-6.62-3.04-12.41-7.4-17.08-13.01-4.39-5.28-9.9-13.66-7.9-20.81,1.03-3.7-4.71-5.27-5.74-1.58-2.42,8.66,2.71,17.87,7.82,24.58,5.23,6.86,12.04,12.37,19.89,15.97v-5.14c-14.39,8.2-24.61,22.89-27.03,39.31,1.95,.26,3.9,.53,5.85,.79,.53-15.05-8-38.68-26.21-38.76,.26,1.95,.53,3.9,.79,5.85,18-2.77,23.67-22.39,24.36-37.94,.17-3.83-5.78-3.82-5.95,0h0Z"/></g><g id="_嬉しいハート"><path class="cls-2" d="M596.29,274.81c-6.67-.89-13.34-1.74-20.02-2.54-3.34-.4-6.68-.79-10.02-1.16-3.21-.36-6.9-1.29-10.09-.44-.59,.16-1.12,.35-1.62,.57-3.52-1.79-7.68-.39-9.78,2.88-4.77,7.42-4.33,17.3-1.15,25.25,3.68,9.19,11.07,15.52,21.12,16.42,17.89,1.6,34.24-15.5,38.73-31.56,1.44-5.16-2.51-8.8-7.18-9.42Z"/><path class="cls-4" d="M739.63,203.57c-.22-1.84-.51-3.69-.84-5.51-1.44-7.91-2.84-16.04-5.25-23.72-4.89-15.63-16.88-28.2-30.71-36.54-12.91-7.78-28.32-12.05-43.41-11.63-15.98,.44-32.12,4.97-46.68,11.41-11.29,4.99-21.8,12.4-29.49,22.1-5.24-13.54-16.81-23.93-30.43-28.96-16.87-6.23-34.61-.55-49.14,8.7-15.02,9.56-29.43,20.4-38.5,36.05-9.02,15.58-12.89,33.56-13.4,51.42-.33,11.33,.81,22.61,2.37,33.82,1.07,7.72,2.84,15.19,6.74,21.72-1.99,2.61-2.91,5.97-1.75,9.29,1.02,2.94,2.04,5.88,3.07,8.83,.51,1.47,1.02,2.94,1.53,4.41,.17,.49,.34,.98,.51,1.47-.27,3.2,.74,6.51,3.13,8.7,4.68,4.3,10.88,4,15.58,0,.2-.17,.38-.34,.56-.51,.17-.16,.35-.33,.53-.48,.11-.08,.25-.17,.42-.29,.62-.36,1.23-.71,1.85-1.04-.44,.28,1.62-.61,2.09-.73,.22-.06,.44-.12,.67-.17,.16,.18,.28,.3,.34,.36,.31,.48,.61,.96,.88,1.45,.15,.26,.87,1.86,1.1,2.28,.21,.66,.67,2.07,.74,2.3,.27,.96,.46,1.92,.68,2.89,.04,.25,.07,.44,.1,.59,.04,.46,.09,.92,.12,1.39,.06,.99,.07,1.98,.05,2.97-.02,.76-.07,1.51-.13,2.26,.04-.82-.41,2.23-.52,2.64-.24,.96-.52,1.91-.83,2.85-.12,.36-.26,.72-.4,1.08-.05,.09-.19,.37-.41,.85-.26,.54-.48,1.09-.67,1.66-2.81-.66-5.79,.9-6.57,3.75-.75,2.72,.92,5.92,3.74,6.59,1.78,.42,3.55,.92,5.29,1.51,.62,.6,1.33,1.13,2.15,1.56,.09,.05,.19,.09,.29,.14,.5,1.53,1.35,2.96,2.64,4.15,9.11,8.41,18.95,16.09,29.36,22.83,5.51,3.56,11.19,6.59,17.16,8.49,11.19,13.51,30.43,11.9,45.5,7.44,14.82-4.38,29.16-10.72,42.41-18.66,.54-.33,1.04-.7,1.51-1.11,.55-.11,1.1-.28,1.63-.52,6.37-2.9,12.73-5.8,19.1-8.7,1.14-.52,1.9-1.53,2.3-2.69,4.11-1.4,8.12-3.04,11.71-5.67,7.77-5.69,14.75-12.66,21.1-19.99,.17-.04,.33-.09,.49-.14,5.28-1.71,7.77-5.83,7.87-10.77,1.43-.5,2.74-1.35,3.79-2.61,7.51-9.05,11.65-19.73,16.08-30.5,4.26-10.37,8.23-20.87,11.92-31.46,.53-1.51,.59-3.13,.29-4.71,.16-.91,.3-1.82,.42-2.74,.06-.16,.11-.32,.17-.48,2.81-8.34,5.24-16.82,7.13-25.42,.95-4.3,1.77-8.63,2.42-12.99,.57-3.79,.79-7.71-.39-11.19Zm-151.5,107.44c-1.71,.05-3.41,.52-4.96,1.54-1.42,.93-2.89,1.8-4.44,2.52-.12,.01-1.53,.53-1.85,.63-1.11,.35-2.23,.63-3.37,.87-.43,.09-.86,.18-1.29,.25-.9,.07-1.8,.15-2.7,.18-1,.03-1.99,.03-2.99-.02-.2,0-1.32-.09-1.93-.13-.51-.1-1.97-.32-2.21-.38-1.18-.25-2.35-.54-3.5-.87-.99-.29-1.98-.61-2.95-.96-.31-.11-1.93-.8-1.89-.76-1.65-.77-3.27-1.61-4.85-2.53-.9-.52-1.78-1.07-2.65-1.63-.23-.15-1.17-.88-1.51-1.11-.55-.63-1.24-1.51-.67-.55-.41-.68-.81-1.35-1.17-2.06-.12-.25-1.14-2.94-.43-.92-.33-.96-.71-1.89-1.03-2.85-.64-1.92-1.17-3.88-1.6-5.85-.22-.99-.39-1.99-.56-2.98-.04-.21-.07-.37-.09-.5,0-.13,0-.32-.02-.59-.09-2.02-.25-4.02-.22-6.06,.02-1.01,.06-2.02,.14-3.02,.04-.48,.19-1.78,.18-1.85,.54-3.34,1.44-6.61,2.62-9.78,11.36-.54,22.75-1.11,34.09-.68,3.32,.12,6.63,.36,9.93,.71,.91,.1,1.82,.21,2.73,.32,.31,.05,.62,.09,.93,.14,1.64,.26,3.28,.53,4.91,.83,3.23,.6,6.44,1.32,9.62,2.14-.16,2.63-.4,5.26-.64,7.88-.03,.29-.06,.57-.1,.86-.16,.89-.29,1.78-.47,2.66-.43,2.13-1.01,4.21-1.73,6.26-.31,.89-.46,1.82-.47,2.75-1.6,1.59-3.2,3.18-4.8,4.78-3.27,3.27-6.13,6.6-8.06,10.75Zm73.97,36.89c-8.03,5.59-18.18,6.41-26.66,11.08-.84-1.1-1.94-2.05-3.33-2.75-3.57-1.8-7.05-3.68-10.36-5.93-.45-.38-.89-.77-1.32-1.18-.65-.62-1.23-1.32-1.86-1.96,1.58,1.6-.07-.17-.39-.71-.59-.98-1.04-2.01-1.54-3.03-.2-.49-.4-.99-.61-1.48-.62-1.48-1.21-2.98-1.9-4.43-1.12-2.37-2.58-4.45-4.28-6.45-2.82-3.32-6.41-5.48-10.43-6.58,.7-2.64,.44-5.49-1.17-7.98-.18-.27-.37-.54-.57-.8,.04-.1,.09-.19,.12-.29,1.42-3.67,4.86-6.47,7.58-9.17,.36-.36,.72-.72,1.08-1.08,.84,.51,1.75,.89,2.7,1.11,3.75,.85,7.21-.03,9.8-2.18,.98,.8,2.09,1.41,3.28,1.83,.03,.04,.05,.08,.08,.12,1.05,1.64,2.1,3.28,3.15,4.92,.8,1.25,1.63,2.5,2.34,3.8,.01,.02,.02,.05,.04,.07-.37,.77-.72,1.56-.99,2.35-1.08,3.24-.64,7.06,.96,10.05,.21,.39,.45,.76,.69,1.12,.42,1.16,1.22,2.19,2.32,2.9,.62,.4,1.26,.74,1.92,1.05,2.6,1.59,5.68,2.46,8.62,2.52,9.38,.18,16.16-7.15,17.99-15.86,.43-2.04,.71-4.1,1.02-6.16,1.66,.39,3.42,.37,5.19-.21,.02,0,.03-.01,.05-.02,.03,0,.06,.01,.09,.02,.61,.37,1.26,.68,1.87,1.06,.34,.21,.66,.44,.99,.66,.16,.13,.4,.31,.66,.55,.99,.89,1.89,1.85,2.79,2.83,.05,.05,.08,.09,.12,.13,.27,.39,.55,.78,.81,1.18,.72,1.13,1.27,2.32,1.93,3.48,0,.01,0,.02,.02,.03,.02,.06,.04,.12,.06,.2,.18,.56,.38,1.12,.54,1.68,.42,1.42,.7,2.86,.91,4.32,.24,1.59,.99,3.02,2.06,4.22-4.99,5.55-10.41,10.82-16.35,14.95Z"/><path class="cls-2" d="M661.09,310.85c-5.7,1.29-4.52,8.91,.07,10.27-.56,9.3-12.42,13.03-19.92,14.8-2.31,.54-4.5,.76-6.54,.37-.93-.62-1.8-1.38-2.71-2.14-1.54-1.28-3.03-2.39-4.67-3.33-1.69-2.44-2.97-5.23-4.2-7.89,4.12-3.41,5-10.44,1.37-15-5.31-6.66-15.39-2.78-19.27,3.41-3.96,6.31-1.1,14.26,5.41,16.54,.47,5.47,1.64,10.87,3.82,15.69,3.6,7.97,11.5,12.39,19.93,13.36,8.68,1,17.25-2.33,24.38-7.08,7.23-4.82,15.56-11.08,18.2-19.75,3.13-10.26-4.49-21.85-15.88-19.28Z"/><path class="cls-2" d="M493.16,314.89c-1.47-3.77-5.78-5.28-8.96-2.36-7.63,7.01-18.08,16.15-28.82,9.81-10.18-6.01-11.14-18.53-7.94-28.83,8.84,.28,14.42-10.29,10.04-18.12-4.53-8.1-16.08-9.29-22-2.04-3.45,4.22-3.65,10.34-1.22,15.03-2.15,4.01-3.03,8.54-3.15,13.06-.23,8.64,.85,18.84,5,26.55,4.15,7.7,12.24,12.24,20.7,13.48,9.43,1.38,18.85-1,27.8-3.83,4.9-1.55,9.15-4.28,10.34-9.61,.98-4.42-.17-9.01-1.79-13.13Z"/><path class="cls-3" d="M472.07,316.4c-4.68-8.49-8.43-17.38-11.25-26.66-1.11-3.66-6.86-2.1-5.74,1.58,2.96,9.75,6.93,19.16,11.85,28.08,1.85,3.36,6.99,.36,5.14-3h0Z"/><path class="cls-3" d="M455.51,268.27c-3.5-17.65-4.05-35.88-1.52-53.71,2.17-15.3,6.36-30.66,15.52-43.33,9.23-12.76,22.26-22.34,35.43-30.66,7.02-4.44,14.38-8.59,22.67-10.01,8.02-1.37,16.69-.45,24.53,1.56,14.03,3.61,28.17,13.72,27.33,29.74-.2,3.83,5.75,3.82,5.95,0,.81-15.3-10.26-27.07-23.59-32.72-15.41-6.53-33.74-7.15-48.95,.08-7.87,3.74-15.28,8.76-22.33,13.86-7.04,5.09-13.77,10.67-19.63,17.1-11.79,12.93-18.34,28.78-21.53,45.84-3.95,21.12-3.8,42.76,.38,63.83,.74,3.75,6.48,2.17,5.74-1.58h0Z"/><path class="cls-3" d="M585.16,166.64c6.18-13.24,18.84-21.49,31.9-27.03,15.27-6.48,32-10.15,48.63-9.32,14.65,.73,28.96,5.33,40.98,13.82,5.8,4.1,11.04,9.22,15.12,15.05,4.81,6.88,7.83,14.68,10.65,22.53,2.93,8.16,5.84,16.37,6.03,25.13,.19,8.82-1.74,17.47-3.83,25.98-4.05,16.48-8.61,32.88-14.7,48.73-11.14,28.98-28.41,56.99-54.72,74.46-7.94,5.27-16.46,9.59-24.94,13.92-8.36,4.27-16.76,8.49-25.38,12.22-17.15,7.42-35.43,12.76-54.29,11.54-3.83-.25-3.81,5.71,0,5.95,17.78,1.16,35.22-3.32,51.59-9.95,16.29-6.6,32.33-14.64,47.59-23.37,29.17-16.67,49.24-43.76,62.27-74.29,7.21-16.87,12.44-34.48,16.96-52.24,2.2-8.63,4.41-17.32,5.16-26.22,.79-9.37-.82-18.29-3.8-27.15-5.24-15.59-11.25-30.7-23.77-41.91-11.27-10.1-25.6-16.66-40.52-19.05-19.44-3.11-39.43,.1-57.66,7.22-15.5,6.05-31.13,15.33-38.43,30.97-1.61,3.45,3.52,6.48,5.14,3h0Z"/><path class="cls-3" d="M478.36,343.09c11.4,11.93,23.63,22.94,36.92,32.74,7.06,5.21,14.55,9.94,22.19,14.26,6.96,3.94,14.39,8.6,22.57,8.94,3.83,.16,3.82-5.8,0-5.95-4.26-.18-7.78-1.95-11.52-3.83-3.52-1.77-6.98-3.65-10.38-5.64-7.12-4.15-14.11-8.64-20.73-13.56-12.54-9.32-24.06-19.88-34.85-31.17-2.65-2.78-6.86,1.44-4.21,4.21h0Z"/><path class="cls-3" d="M523.35,239.07c.61-3.52,1.55-7,3.01-10.27,1.01-2.26,2.99-7.51,5.72-8.21,2.44-.63,4.63,5.62,5.25,7.5,1.12,3.42,1.47,6.87,1.22,10.45-.26,3.82,5.69,3.81,5.95,0,.35-5.17-.52-10.31-2.61-15.07-1.64-3.73-4.29-8.97-9-9.05-4.56-.08-7.75,4.1-9.78,7.65-2.73,4.77-4.56,10.01-5.51,15.42-.65,3.75,5.08,5.36,5.74,1.58h0Z"/><path class="cls-3" d="M599.36,240.6c1.73-6.13,4.01-14.82,11.08-16.8,3.56-1,4.26,5.1,4.7,7.64,.69,4.04,.38,8.15-.62,12.1-.94,3.72,4.8,5.3,5.74,1.58,1.4-5.53,1.57-11.25,.3-16.83-1-4.44-2.92-10.44-8.36-10.68-11.21-.5-16.15,12.79-18.57,21.4-1.04,3.69,4.7,5.27,5.74,1.58h0Z"/><path class="cls-3" d="M525.44,187.89c.59-4.12,3.53-7.87,7.86-8.41,4.2-.53,8.29,2.41,9.59,6.32,1.21,3.62,6.96,2.07,5.74-1.58-2.14-6.41-8.39-11.24-15.33-10.69-6.8,.55-12.64,6.03-13.61,12.78-.53,3.75,5.2,5.37,5.74,1.58h0Z"/><path class="cls-3" d="M611.15,192.17c1.61-3.41,5.71-5.51,9.4-4.07,4.31,1.68,5.61,7.25,6.71,11.22,1.02,3.69,6.76,2.12,5.74-1.58-1.74-6.33-4.46-13.73-11.55-15.58-5.97-1.56-12.8,1.39-15.44,7.02-1.62,3.45,3.51,6.47,5.14,3h0Z"/><path class="cls-3" d="M559.67,247.95v.68c-.02,.41,.07,.79,.26,1.15,.12,.37,.33,.69,.62,.96,.27,.29,.59,.5,.96,.62,.35,.19,.74,.27,1.15,.26,.26-.04,.53-.07,.79-.11,.5-.14,.94-.4,1.31-.77,.16-.2,.31-.4,.47-.6,.27-.46,.4-.97,.41-1.5v-.68c.02-.41-.07-.79-.26-1.15-.12-.37-.33-.69-.62-.96-.27-.29-.59-.5-.96-.62-.35-.19-.74-.27-1.15-.26-.26,.04-.53,.07-.79,.11-.5,.14-.94,.4-1.31,.77-.16,.2-.31,.4-.47,.6-.27,.46-.4,.97-.41,1.5h0Z"/><path class="cls-3" d="M531.5,263.94c-1.41,1.94-2.81,3.87-4.22,5.81-1.2,1.65,.13,3.82,1.78,4.37,5.87,1.98,12.33,.82,18.4,.63,6.53-.2,13.06-.16,19.58,.12,6.52,.28,13.03,.8,19.52,1.56,3.36,.4,6.71,.86,10.05,1.39,1.32,.21,3.06,.26,4.32,.73,.83,.31-.02-.9,.18,0,.16,.73-.2,1.74-.32,2.5-1.81,11.02-7.33,21.76-16.95,27.87-9.17,5.82-20.75,6.75-30.03,.67-11.66-7.65-12.23-23.52-8.82-35.75,1.03-3.7-4.71-5.27-5.74-1.58-3.53,12.67-3.18,28.62,6.62,38.49,8.68,8.75,22.04,11.15,33.48,6.97,12.43-4.55,21.26-15.06,25.32-27.47,1.02-3.12,1.71-6.31,2.15-9.56,.36-2.63,.49-5.33-1.98-6.98-2.56-1.71-6.53-1.64-9.48-2.08-4.06-.6-8.14-1.12-12.22-1.55-8.78-.92-17.62-1.39-26.45-1.43-4.22-.02-8.45,.07-12.67,.25-4.47,.19-9.04,.9-13.36-.55,.59,1.46,1.19,2.92,1.78,4.37,1.41-1.94,2.81-3.87,4.22-5.81,2.25-3.1-2.91-6.08-5.14-3h0Z"/><path class="cls-3" d="M450.55,265.66c-7.17-2.97-15.57-.77-20.06,5.65-4.88,6.97-3.02,16.38,2.84,22.13v-4.21c-.25,.13-.46,.29-.64,.5-1.01,1.14,.01,2.22,3.07,3.24-.29,.53-1.04,1.48-1.83,.94-.2-1.56-.4-3.12-.6-4.68-6.98,6.74-5.18,16-3.82,24.6,1.36,8.61,2.95,17.91,9.86,23.99,15.35,13.51,38.6,7.72,55.16,.19,3.48-1.58,.46-6.72-3-5.14-14.08,6.4-33.53,11.65-47.2,1.34-6-4.53-7.63-12.5-8.7-19.5-1.06-6.91-3.82-15.72,1.92-21.27,1.46-1.41,.94-3.62-.6-4.68-2.55-1.75-6.33-.25-6.95,2.82-.35,1.72,.55,3.48,2.31,3.96,2.03,.55,3.78-.92,5.24-2.11,1.24-1.01,1.06-3.17,0-4.21-3.95-3.88-5.47-10.23-1.91-14.91,3.24-4.26,8.65-4.85,13.34-2.91,3.54,1.47,5.08-4.29,1.58-5.74h0Z"/><path class="cls-3" d="M484.63,309.44c-4.75,4.31-10.52,8.11-16.9,9.41-3.07,.63-6.35,.49-9.17-.99-3.6-1.9-4.72-4.97-6.15-8.58-1.52-3.85-3.08-8.27-1.73-12.4,1.02-3.11,5.86-3.08,8.21-5.23,5.21-4.76,2.93-12.01,.44-17.54-1.57-3.49-6.7-.47-5.14,3,1.19,2.65,3.27,7.23,1,9.85-1.28,1.47-3.56,1.7-5.27,2.43-1.65,.71-3.01,1.72-3.91,3.31-2.19,3.85-2.08,8.65-1.09,12.82,.55,2.33,1.43,4.56,2.34,6.77,.83,2,1.54,4.29,2.78,6.04,4.31,6.07,12.39,7.67,19.27,6.24,7.35-1.53,14.04-5.97,19.52-10.95,2.84-2.58-1.38-6.78-4.21-4.21h0Z"/><path class="cls-3" d="M657.23,315.03c.7,7.85-4.58,15.93-12.59,17.41-7.59,1.4-15.49-3.73-17.76-10.97-.46,1.12-.91,2.24-1.37,3.36,5.9-3.56,7.09-11.83,3.03-17.25-4.52-6.04-13.25-7.22-19.89-4.36-6.54,2.82-11.66,9.61-10.64,16.96,1,7.19,7.78,13.45,15.23,12.47-.96-1.26-1.91-2.51-2.87-3.77-3.5,16.6,10.97,30.21,26.77,30.95,18.39,.86,33.04-12.03,43.76-25.52,2.36-2.97-1.82-7.21-4.21-4.21-8.96,11.27-20.45,22.59-35.63,23.72-6.99,.52-14.13-1.31-19.2-6.33-4.46-4.42-7.07-10.76-5.75-17.03,.35-1.66-.82-4.04-2.87-3.77-4.52,.59-8.73-2.72-9.38-7.29-.63-4.41,2.62-8.41,6.31-10.35,3.84-2.02,9.13-2.03,12.53,.92,2.86,2.48,3.3,7.59-.21,9.71-1.1,.66-1.76,2.1-1.37,3.36,3.18,10.12,13.71,16.97,24.29,15.27,10.76-1.73,18.71-12.57,17.76-23.29-.34-3.79-6.29-3.82-5.95,0h0Z"/><path class="cls-3" d="M403.83,259.46c.18-5.36,3.57-10.26,8.64-12.13,3.56-1.32,2.02-7.07-1.58-5.74-7.63,2.82-12.74,9.7-13.01,17.88-.13,3.83,5.83,3.83,5.95,0h0Z"/><path class="cls-3" d="M415.13,265.63c1.25-4.61,4.91-7.81,9.57-8.7,3.76-.71,2.17-6.45-1.58-5.74-6.63,1.26-11.97,6.38-13.73,12.86-1.01,3.7,4.74,5.28,5.74,1.58h0Z"/><path class="cls-3" d="M451.64,272.58c.68,.9,1.37,1.79,2.05,2.69,.49,.64,.97,1.14,1.78,1.37,.71,.2,1.66,.11,2.29-.3,.64-.41,1.2-1.02,1.37-1.78,.17-.73,.17-1.67-.3-2.29-.68-.9-1.37-1.79-2.05-2.69-.49-.64-.97-1.14-1.78-1.37-.71-.2-1.66-.11-2.29,.3-.64,.41-1.2,1.02-1.37,1.78-.17,.73-.17,1.67,.3,2.29h0Z"/><path class="cls-10" d="M493.43,247.23c-2.06,2.79-3.63,5.81-4.86,9.05-.57,1.5,.63,3.26,2.08,3.66,1.68,.46,3.09-.57,3.66-2.08,1.04-2.74,2.52-5.27,4.26-7.63,.96-1.29,.21-3.32-1.07-4.07-1.51-.89-3.11-.23-4.07,1.07h0Z"/><path class="cls-10" d="M505.52,247.15c-1.73,3.27-3.24,6.65-4.54,10.11-.57,1.5,.63,3.26,2.08,3.66,1.67,.46,3.09-.57,3.66-2.08,1.13-2.99,2.45-5.87,3.94-8.69,1.79-3.38-3.34-6.39-5.14-3h0Z"/><path class="cls-10" d="M637.71,254.36c-1.74,2.81-3.18,5.75-4.42,8.8-.6,1.49,.66,3.27,2.08,3.66,1.7,.47,3.05-.58,3.66-2.08,1.04-2.57,2.36-5.03,3.82-7.38,2.03-3.26-3.12-6.26-5.14-3h0Z"/><path class="cls-10" d="M652.61,255.73c-2.29,3.11-4.02,6.52-5.3,10.16-1.28,3.62,4.47,5.18,5.74,1.58,1.11-3.16,2.72-6.05,4.7-8.74,.95-1.29,.22-3.32-1.07-4.07-1.51-.88-3.12-.23-4.07,1.07h0Z"/></g></g><g><g><path class="cls-3" d="M139.09,345.72c.56-2.62,.53-5.19,.19-7.88-.57-4.55,.2-9.13,.9-13.61,2.07-13.31,7.9-25.1,15.51-36.03,2.7-3.89,6.69-6.63,10.47-9.44,7.85-5.83,16.6-10.2,25.18-14.78,5.87-3.13,12.58-3.93,19.07-4.97,11.3-1.82,22.52-1.08,33.51,2.29,3.6,1.11,7.16,2.35,10.74,3.53,.54,.37,1.03,.86,.93,1.52-.88,5.97,2.93,9.28,7.06,12.33,3.92,2.89,7.88,5.72,12.4,7.65,1.45,.62,2.86,1.32,4.46,1.44,2.4,.19,4.83,.16,6.51-1.89,1.77-2.17,1.1-4.65-.21-6.62-5.1-7.65-10.96-14.44-20.57-16.54-1.13-.25-2.68-.13-2.53-2.04,11.58-6.7,24.15-8.57,37.24-7.23,4.22,.43,7.97,2.9,11.68,4.84,6.11,3.19,11.76,7.02,16.31,12.53,4.21,5.1,8.48,10.09,11.87,15.78,1.21,2.03,2.48,4.06,3.06,6.35,2.31,9.12,5.24,18.04,6.84,27.38,2.33,13.6,1.93,27.25,1.64,40.88-.1,4.61-1.54,9.32-3.07,13.74-2,5.77-4.19,11.47-6.84,17.02-4.68,9.79-10.9,18.66-16.03,28.17-.88,1.64-2.24,3.02-3.37,4.53-9.71,13.02-16.53,27.01-15.54,43.86,.25,4.26,1.5,8.03,3.85,11.43,2.93,4.24,7.39,4.72,11.35,1.45,.85-.7,1.56-1.6,2.49-2.14,1.32-.77,2.71-.69,3.91,.42,1.08,1.01,1.15,2.28,.51,3.45-2.41,4.39-4.54,8.98-8.47,12.36-2.99,2.58-6.38,3.14-10.12,2.29-1.63-1.21-3.61-1.33-5.38-.98-6.81,1.34-11.8-2.26-17.29-5.4-11.77-6.73-17.03-17.51-21.5-29.63-2.3-6.24-2.15-12.13-2.32-18.28-.09-3.08,1.19-5.79,2.6-8.46,1.33-2.51,1.88-4.99-.54-7.3-1.77-1.69-1.11-3.58-.44-5.64,1.43-4.35,2.33-8.81-.22-13.15,.17-3.82,2.95-4.03,5.71-3.92,2.97,.11,5.89,.91,8.91,.77,9.48-.42,16.69-5.69,18.97-13.55,2.25-7.75-3.38-20.06-13.06-21.09-14.36-1.53-24.21-10.27-32.4-21.37-2.52-3.42-3.4-7.39-3.9-11.47-.4-3.22-1.76-4.16-5.1-3.3-12.03,3.09-23.77,7.15-35.82,10.14-2.14,.53-4.24,1.2-6.48,.92-3.29-2.92-4.37-7.1-6.1-10.89-1.8-3.95-3.55-7.91-6.85-11.39-1.42,2.16-.11,3.51,.74,4.78,2.98,4.46,4.61,9.57,6.99,14.32,.63,1.26,1.15,2.6,.44,4.04-1.78,1.96-4.07,2.31-6.54,2.15-4.74-4.16-6.63-10.08-9.42-15.44-.81-1.55-.83-3.8-3.5-4.06-.84,2.31,.79,3.89,1.58,5.62,1.44,3.13,3.38,6.01,4.83,9.13,.76,1.63,2.12,3.38-.2,4.94-11.29,1.5-22.43,.57-33.45-2.06-2.9-.69-5.7-2.08-7.52,1.88-.61,1.32-2.3,1.46-3.79,1.15-3.17-1.6-2.12-3.09,.12-4.55Z"/><path class="cls-1" d="M262.7,260.69c8.25,.75,13.75,6.14,19.38,11.38,2.62,2.43,4.4,5.32,5.59,8.6,1.76,4.84-.37,7.98-5.56,8.37-2.73,.2-5.29-.37-7.75-1.57-5.55-2.7-10.48-6.33-15.34-10.06-4.2-3.22-5.23-7.59-4.37-12.58,2.35-2.03,4.68-4.1,8.06-4.14Z"/><path class="cls-1" d="M201.49,345.34c-1.51,.44-2.93,1.27-4.58,1.12-2.92-6.22-5.25-12.72-9.11-18.49-2.03-3.04-2.06-5.02-.25-5.62,2.75-.92,3.41,1.44,4.4,3.14,3.72,6.36,6.27,13.27,9.54,19.85Z"/><path class="cls-1" d="M189.77,348.18c-1.71,.47-3.44,.31-5.16,.19-2.4-4.58-4.83-9.15-7.2-13.74-.65-1.25-1.19-2.56-1.72-3.86-.47-1.15-.24-2.2,.84-2.87,1.23-.76,2.42-.55,3.34,.59,.39,.48,.74,1.03,.94,1.61,2.22,6.41,6.02,12.03,8.97,18.08Z"/><path class="cls-3" d="M139.09,345.72c-.3,1.21-2.3,1.99-.93,3.63-.68,1.05-1.83,1.1-2.88,1.38-12.7,3.28-17.72,17.34-10.03,27.97,2.98,4.12,6.03,8.01,11.09,9.85,3.06,1.11,4.01,3.89,3.94,6.91-.33,14.63,6.62,26.68,14.1,38.32,4.46,6.94,12.36,10,19.53,13.55,6.78,3.36,14.13,3.55,21.57,4.08,8.27,.6,16.17,.52,24.24-1.7,20.14-5.55,33.14-19.02,42.49-36.85,.82-1.57,.89-3.83,3.38-4.01,4.42,3.51,1.77,7.79,1.2,11.8-.15,1.04-.85,2.02-1.39,2.96-.79,1.38-.41,2.71,.8,3.22,4.04,1.72,3.33,5.18,1.72,7.31-4.51,5.97-2.27,13.08-4.1,19.43-.25,.88-.11,2,.65,2.64,2.58,2.22,3.03,5.4,3.84,8.38,1.46,5.36,4.31,10.07,6.73,14.97,1.06,2.15,2.82,3.76,4.89,4.95,3.66,2.11,6.61,5.19,10.04,7.53,3.95,2.69,8.12,5.76,13.68,3.95,2.23-.72,4.71-.41,6.38,1.79-8.65,1.2-16.39-.92-23.65-5.77-3.95-2.64-8.03-5.13-10.91-8.88-6.93-9.05-12.44-18.59-12.94-30.63-.32-7.71-1.05-15.34,.31-22.99,.59-3.32,1.3-6.62,1.46-10.11-2.34,3.3-4.58,6.67-7.04,9.87-6.88,8.97-15.07,16.17-25.64,20.82-7.14,3.14-14.55,4.88-22.02,6.6-1.65,.38-3.49,.49-5.15,.18-5.6-1.04-11.26-1.23-16.91-1.25-7.35-.03-13.71-3.16-20.1-6.1-2.38-1.1-4.59-2.67-6.96-3.91-3.63-1.9-7.08-4.11-9.54-7.52-1.19-1.65-2.61-2.19-4.76-2.1-9.36,.39-18.38,2.16-27.07,5.65-3.2,1.29-6.41,2.55-9.67,3.68-2.39,.84-3.27,1.95-2.78,4.79,.86,4.93,.99,9.99,1.39,15,.07,.93,.04,1.89-.03,2.82-.06,.86-.51,1.49-1.44,1.55-.87,.06-1.53-.39-1.86-1.16-.24-.57-.38-1.2-.43-1.81-1.09-14.57-3.28-29.01-4.77-43.53-.32-3.12-.87-6.23-1.1-9.35-.16-2.21-1.2-2.58-3.11-2.19-6.3,1.3-12.6,2.58-18.92,3.77-1.76,.33-1.7,1.49-1.73,2.78-.29,11.63-.72,23.25-.87,34.88-.14,10.69-.48,21.39,.95,32.03,.27,2.02,.7,4.03,.87,6.05,.2,2.35,1.21,4.11,3.06,5.58,1.34,1.06,2.51,2.37,3.59,3.7,.6,.74,.7,1.8,0,2.63-.85,1.01-2.22,1.12-2.96,.32-2.92-3.18-6.63-5.71-7.44-10.54-1.62-9.65-2.24-19.36-2.11-29.11,.22-15.88,.63-31.76,.97-47.63,2.17-4.94-.16-9.65-.49-14.5-.55-7.98-.55-16.06,.09-24.03,.45-5.65-.71-11.19-.16-16.79,.23-2.34,.19-4.7,.88-6.99,.41-1.38,.98-2.66,1.9-3.75,2.69-3.2,6.43-3.05,8.56,.57,2.07,3.52,4.02,7.2,3.56,11.51-.28,2.65,.74,3.72,3.4,3.48,.9-.08,1.88,.21,2.76,.51,3.54,1.24,5.07,3.56,4.36,7.23-.34,1.73-.21,2.56,1.43,3.56,3.03,1.85,3.36,3.64,1.58,7.21-.73,1.46-1.06,2.3,.49,3.44,1.72,1.26,1.87,3.31,1.1,5.15-.66,1.58-1.13,2.77,.55,4.04,1.03,.78,1.5,2.33,1.03,3.45-1.97,4.72,.08,9.17,.6,13.72,.99,8.74,1.97,17.48,2.96,26.21,.07,.6,.06,1.26,1.14,1.95,12.73-4.67,25.82-9.49,40.26-10.18-.56-1.21-.78-1.98-1.21-2.59-4.5-6.43-5.97-14.13-8.93-21.2-.62-1.48-.51-3.09-.52-4.66-.01-1.57,.04-3.15-.07-4.71-.21-2.93-1.19-5-4.27-6.47-7.48-3.59-11.36-10.55-14.84-17.66-.76-1.56-.63-3.38-.63-5.12-.03-13.44,9.49-23.28,22.86-23.61Zm-44.27,44.18c-1.43-.03-2.96,.09-3.52-1.63-.47-1.45,.73-2.26,1.52-3.21,1.04-1.26,2.54-2.29,2.49-4.23-6.86-.75-6.87-.77-4.12-6.76,1.23-2.67,.5-4.25-2.44-4.64-2.16-.29-4.45-.53-6.54,.23-7.25,2.67-8.08,3.72-8.2,10.19-.09,4.86,.15,9.75-.22,14.59-.38,5.02,1.17,9.58,2.45,14.25,.5,1.84,1.52,2.44,3.45,1.99,4.88-1.12,9.78-2.12,14.69-3.09,1.43-.29,2.18-.92,2.25-2.46,.04-.92,.46-1.81,.67-2.73q.72-3.09-2.49-3.84c-2.73-.64-3.14-2.02-1.21-4.21,1-1.14,2.57-1.85,2.79-4.01-.68-.21-1.12-.45-1.57-.46Zm-15.7-23.35c1-.36,1.54-.94,1.66-1.99,.56-4.78,.15-9.28-3.82-13.24-4.12,5.31-2.85,10.97-2.24,17.19,1.83-.83,3.08-1.49,4.39-1.97Z"/><path class="cls-3" d="M199.92,421.29c-9.79,.14-17.14-4.53-23.41-11.38-1.06-1.16-1.59-2.54-.22-3.69,1.37-1.15,2.68-.34,3.67,.81,2.15,2.49,4.22,5,7.16,6.7,7.81,4.51,15.61,5.2,23.53,.39,1.61-.97,3.14-2.07,4.72-3.08,1.29-.83,2.66-1.28,3.66,.31,.83,1.33,.16,2.51-1.01,3.2-3.62,2.16-7.15,4.56-11.26,5.74-2.25,.65-4.55,1.27-6.84,1Z"/><path class="cls-3" d="M199.23,383.54c4.41-.11,7.39,3.21,6.88,7.62-.16,1.38-.62,2.53-2.17,2.58-1.31,.05-1.88-.97-2.16-2.11-.34-1.4,.58-3.51-1.67-3.88-2.18-.36-2.88,1.39-3.45,3.12-.43,1.32-1.32,2.32-2.8,1.78-1.56-.57-1.9-1.84-1.42-3.47,.93-3.1,3.82-5.58,6.78-5.65Z"/><path class="cls-1" d="M234.15,403c-3.16-.23-4.76-2.1-4.51-5.29,.23-2.98,1.61-4.22,4.54-4.07,3.44,.17,5.52,2.24,5.27,5.24-.21,2.56-2.48,4.33-5.3,4.12Z"/><path class="cls-3" d="M174.73,371.83c.04-2.97,1.78-4.85,4.52-4.91,3.01-.07,5.34,2.06,5.23,4.79-.1,2.74-2.59,5.13-5.2,5-2.84-.14-4.59-2.02-4.55-4.87Z"/><path class="cls-1" d="M154.01,388.26c-.03-2.79,1.86-4.67,4.7-4.68,2.82,0,4.68,1.61,4.72,4.1,.05,3.05-2.04,5.45-4.65,5.37-2.66-.09-4.73-2.17-4.77-4.78Z"/><path class="cls-3" d="M229.72,378.69c.11,2.51-2.17,4.81-4.75,4.8-2.59-.02-4.71-2.19-4.74-4.84-.02-2.41,1.63-4.37,3.85-4.54,2.64-.21,5.53,2.15,5.64,4.59Z"/><path class="cls-3" d="M177.18,357.85c-1.41-.06-2.79,.06-4.15,.53-1.39,.48-2.53,.06-2.95-1.38-.42-1.47,.56-2.29,1.78-2.86,2.37-1.1,4.87-1.1,7.33-.64,1.44,.27,2.66,1.24,2.33,2.96-.3,1.56-1.65,1.65-2.96,1.55-.47-.04-.93-.1-1.39-.16Z"/><path class="cls-3" d="M232.42,361.68c2.18,.39,4.15,1.25,5.62,2.95,.75,.86,1.16,1.87,.19,2.89-.74,.78-1.62,.86-2.51,.31-1.45-.89-2.88-1.81-4.56-2.22-1.37-.34-2.34-1.13-1.85-2.61,.47-1.42,1.78-1.53,3.1-1.32Z"/></g><g><path class="cls-3" d="M59.18,298.75c-2.31-6.9,.09-15.41,5.65-20.2,1.03-.89,2.09-1.61,3.32-.62,1.4,1.13,.39,2.25-.31,3.26-.79,1.16-1.56,2.35-2.49,3.4-3.63,4.09-3.98,8.73-2.18,13.62,1.3,3.55,3.79,4.62,7.55,3.61,3.26-.88,6.02-2.67,8.45-4.95,1.64-1.52,1.63-3.92,.11-5.83-1.34-1.69-2.58-.17-3.73,.28-1.3,.5-2.42,1.44-3.68,2.06-.74,.37-1.56,.23-2.1-.49-.68-.9-.37-1.78,.28-2.54,.3-.34,.75-.57,1.15-.81,3.91-2.39,8.26-3.82,12.4-5.71,1.14-.52,2.58-.7,3.31,.73,.77,1.5-.27,2.59-1.49,2.9-3.19,.79-2.36,2.72-1.55,4.67,1.14,2.74,2.34,5.44,3.54,8.16,.48,1.09,.72,2.21-.42,2.95-1.34,.87-2.53,.27-3.06-1.05-1.23-3.04-2.77-1.95-4.66-.68-2.48,1.65-5.07,3.15-8.02,3.89-5.95,1.51-10.11-.77-12.07-6.64Z"/><path class="cls-3" d="M49.88,325.84c.48,1.61-.9,2.95-2.96,2.61-4.48-.75-8.95-1.65-13.15-3.48-1.14-.5-2.28-1.05-3.34-1.7-.81-.49-1.48-1.22-1.51-2.26-.03-.98,.26-1.86,1.18-2.38,.76-.43,1.59-.42,2.16,.2,3.87,4.12,9.01,4.7,14.19,5.18,1.46,.14,2.79,.45,3.41,1.83Z"/><path class="cls-3" d="M161.96,233c.05,4.91,.43,9.74,.96,14.56,.16,1.45-.38,2.97-2.23,2.93-1.81-.04-2.23-1.46-2.17-3.01,.15-4.54,.07-9.08-1.06-13.51-.42-1.65-.73-3.31,1.4-3.71,1.91-.35,2.72,1.13,3.1,2.74Z"/><path class="cls-3" d="M124.68,245.65c3.43-.88,6.61-1.45,9.94-.6,5.64,1.44,10.83,8.93,4.68,15.45-2.07,2.2-5.04,3.64-5.87,7-.24,.99-1.52,.83-2.43,.32-.74-.41-1-1.15-1.37-1.84-2.43-4.54-4.75-9.14-7.54-13.49-2.33-3.63-1.39-5.64,2.58-6.84Zm1.82,6.03c1.39,2.78,2.78,5.56,4.19,8.33,.39,.76,.98,1.1,1.88,.88,2.51-.6,5.66-4.5,5.54-6.92-.12-2.5-2.6-4.82-5.66-5.35-1.58-.27-3.1-.07-4.85,.43-1.32,.28-1.84,1.15-1.11,2.63Z"/><path class="cls-3" d="M91.5,268.81c3.47-.58,6.9-.46,9.97,1.49,3.24,2.06,3.89,5.87,1.73,9.06-2.48,3.66-8,4.98-11.77,2.8-3.23-1.87-4.56-7.78-2.55-11.45,.56-1.02,1.43-1.66,2.61-1.9Zm9.23,6.36c-.69-1.83-4.19-3.15-6.57-2.46-1.75,.5-2.95,3.2-2.24,5.01,.71,1.8,3.39,2.72,5.68,1.96,2.3-.76,3.75-2.85,3.12-4.51Z"/><path class="cls-3" d="M114.25,272.35c-4.98,1.82-10.27-1.42-10.71-6.57-.28-3.25,1.22-5.16,4.51-5.79,1.07-.21,2.12-.59,3.2-.73,4.24-.57,7.84,1.49,8.56,4.82,.69,3.17-1.82,6.9-5.56,8.27Zm-6.49-5.19c.73,2,3.27,3.01,5.48,2.19,2.21-.82,3.69-3.11,2.96-4.61-.78-1.62-3.42-2.19-5.89-1.26-2.35,.88-3.16,2.05-2.56,3.69Z"/></g></g><g><g><path class="cls-3" d="M781.49,381.35c.55,3.36,.63,6.11,1.59,8.74,1.92,5.31-.81,11.67-6.43,12.15-2.75,.23-4.44-1.22-4.84-4.27-.4-2.98,.4-5.86,2.48-7.83,2.31-2.18,2.32-4.51,1.94-7.22-.25-1.81-.37-3.64-.36-5.47,.02-3.18,1.65-4.38,4.45-3.03,2.59,1.24,5.04,2.41,8.04,2.1,1.19-.12,2.14,.85,2.32,2.19,.18,1.36-.55,2.19-1.72,2.7-2.22,.97-4.53,.56-7.47-.08Z"/><path class="cls-3" d="M740.98,403.85c.12,2.78,.2,5.26,1.39,7.8,1.88,3.99-.59,9.54-4.6,11.34-4.31,1.94-8.59-1.26-8.08-6.1,.28-2.62,1.55-4.84,3.78-6.19,2.1-1.27,2.33-2.96,2.08-5.07-.23-1.98-.41-3.97-.43-5.96-.03-2.56,1.47-3.8,3.85-2.88,2.66,1.02,5.25,2.03,8.15,2.12,1.32,.04,2.06,1.03,2.17,2.33,.13,1.58-.75,2.43-2.22,2.85-1.98,.57-3.92-.38-6.1-.24Z"/><path class="cls-3" d="M769.45,455.71c.15,.57,.51,1.51,.64,2.47,.19,1.41-.2,2.69-1.71,3.17-1.47,.46-2.69-.25-3.28-1.52-1.3-2.84-2.45-5.75-3.58-8.66-.53-1.37-.22-2.69,1.12-3.41,1.61-.86,2.94-.12,3.72,1.33,1.08,2.02,1.95,4.16,3.08,6.63Z"/><path class="cls-3" d="M773.03,451.04c-.04-.64-.17-2.11-.23-3.59-.06-1.56,.82-2.53,2.29-2.68,1.45-.15,2.6,.6,2.92,2.09,.31,1.44,.49,2.91,.6,4.38,.14,1.76-.2,3.5-2.3,3.7-1.99,.19-2.87-1.26-3.29-3.9Z"/><g><path class="cls-3" d="M831.01,320.63c-3.95,1.33-6.67-.19-9.41-2.94-3.64-3.66-7.67-6.8-9.4-12.01-1.18-3.56-.9-6.76,.45-10.18,3.31-8.41,10.08-12.72,18.18-15.03,3.64-1.04,4.66-2.94,5.56-6.25,2.43-8.87,7.36-16.43,14.32-22.41,12.37-10.63,26.99-16.25,43-18.63,7.42-1.1,14.82-2.08,22.35-2,18.66,.2,35.31,5.75,49.62,18,10.79,9.24,16.63,21.06,18.72,34.87,1.14,7.57,3.24,15.2,1.9,22.85-1.65,9.39,.57,19.04-2.33,28.29-.38,1.21,.35,1.69,1.32,2.25,10.03,5.8,14.72,14.52,14.3,26.09-.09,2.58-.61,4.97-1.93,7.15-4.12,6.81-9.51,12.14-17.63,13.63-3.99,.73-5.58,2.51-6.05,6.69-1.07,9.46-3.72,18.61-7.31,27.46-6.12,15.07-16.03,26-32.57,29.53-2.12,.45-3.08,1.45-3.59,3.47-1.04,4.09-1.16,8.24-1.37,12.41-.32,6.67-.53,13.34,.14,20,.25,2.51,.81,4.92,1.76,7.26,.97,2.41,2.48,3.92,5.12,4.96,7.82,3.08,15.94,4.47,24.17,5.9,12.27,2.12,24.76,4.16,34.98,12.27,11.53,9.15,19.2,20.57,21.38,35.46,1,6.83,.8,13.63,.89,20.46,.05,3.89-1.88,6.12-5.25,7.62-16,7.15-32.44,13.06-49.44,17.29-9.86,2.45-19.92,4.12-29.75,6.66-6.99,1.8-14.09,2.55-21.15,3.71-5.29,.87-10.33-.19-15.19-1.92-18.04-6.43-36.75-10.93-54.43-18.31-13.35-5.57-27.3-9.76-39.96-16.97-6.16-.92-6.43-5.17-6.43-10.26,0-18.79,9.8-31.34,25.26-40.2,9.19-5.27,19.55-7.5,29.68-10.26,6.75-1.84,13.32-4.18,19.52-7.53,2.21-1.19,3.5-2.71,4.22-5.18,3.94-13.43,3.56-27.03,1.73-40.67-.59-4.45-.86-4.36-5.22-4.96-4.63-.64-9.13-1.61-13.46-3.59-8.43-3.85-13.24-10.48-15.31-19.21-3.2-13.48-5.49-27.12-6.14-40.97-.11-2.41-.98-3.3-3.17-4.21-8.16-3.39-14.31-8.71-17.1-17.63-2.96-9.46,3.53-25.81,12.04-29.5,2.49-1.08,3.55-2.46,3.06-5.32-.41-2.42-.08-4.97-.08-8.17Zm90.46,165.98c1.62-1.26,2.18-2.59,2.15-4.66-.12-6.84-.02-13.68,.05-20.52,.05-4.36,.82-8.64,1.99-12.82,.97-3.46,2.99-5.96,7.02-5.98,1.34,0,2.6-.44,3.88-.85,12.25-3.86,19.71-12.72,24.52-24.01,4.67-10.95,7.42-22.46,8.41-34.35,.16-1.92,.48-3.12,2.82-3.06,3.21,.08,6.37-.88,9.21-2.12,6.34-2.78,11.56-7.06,12.52-14.4,1.04-7.86-2.14-14.36-7.97-19.57-2.76-2.47-3.46-2.39-6.62-.08-.66,.48-1.39,.92-2.15,1.21-4.49,1.71-8.62-.82-10.75-6.2-3.49-8.82-7.71-17.26-12.37-25.56-4.04-7.2-9.72-9.9-17.39-9.92-.33,0-.67,0-1-.03-14.86-1.27-29.65-.76-44.39,1.67-5.26,.87-10.59,1.4-15.9,1.87-5.94,.52-10.03,3.05-12.76,8.69-3.11,6.43-7.15,12.41-10.9,18.51-1.57,2.55-3.5,4.88-5.69,6.96-4.65,4.4-8.83,4.23-12.44-1.06-1.51-2.21-2.42-2.02-4.25-.79-6.05,4.05-12.05,17.63-6.46,26.97,.43,.71,.88,1.43,1.46,2.02,4.01,4.05,8.15,7.94,14.07,9.02,2.17,.39,2.83,1.59,2.94,3.79,.28,5.82,.92,11.62,1.37,17.44,.68,8.85,3.12,17.38,4.82,26.04,1.45,7.41,5.61,13.01,12.88,16.09,4.39,1.86,8.88,3.01,13.59,2.75,2.82-.16,4.35,1.22,5.66,3.28,.91,1.43,1.38,3.04,1.65,4.69,1.89,11.58,2.74,23.19,.64,34.82-.44,2.44-.02,3.56,2.37,4.5,5.24,2.07,10.67,2.51,16.19,2.63,8.54,.17,14.15-1.77,20.85-6.96Zm89.68,63.25c-2.12-13.62-9.37-23.98-20.26-32.06-9.04-6.71-19.91-8.2-30.47-10.24-7.35-1.42-14.88-1.93-21.86-4.88-1.89-.8-2.98,0-4.46,.96-10.69,6.94-22.23,11.1-35.18,11.16-9.2,.04-17.9-1.51-25.95-6.11-2.09-1.19-3.96-1.47-6.51-.52-8.42,3.11-17.08,5.51-25.77,7.85-9.19,2.47-18.01,6-25.36,12.43-9.32,8.15-14.4,18.15-13.96,30.74,.07,1.91,.6,2.88,2.41,3.77,8.98,4.38,17.92,8.82,27.52,11.76,1.58,.48,3.13,1.14,4.62,1.88,6.58,3.27,13.63,5.33,20.46,7.98,11.66,4.51,24.07,6.81,35.57,11.7,12.24,5.2,24.35,3.96,36.69,.87,6.62-1.66,13.31-3.11,20.02-4.39,19.23-3.68,37.73-9.73,55.65-17.47m-60.25-285.39c-1.05-4.62-4.4-7.37-8.41-8.45-6.89-1.84-13.8-4.02-21.04-4.12-12.01-.17-24.02-.17-36.03-.21-3.17,0-6.3,.31-9.45,.84-9.86,1.68-19.6,3.9-29.38,5.9-4.8,.98-9.28,2.5-13.71,4.45-4.89,2.15-6.96,6.46-8.87,10.94-.62,1.45-.25,2.92,.15,4.4,1.49,5.43,6.02,8.43,10.06,11.35,2.64,1.9,5.91-1.18,8.88-2.09,.64-.19,1.24-.51,1.87-.69,7.2-2.04,14.42-4.01,21.6-6.12,5.11-1.5,10.03-3.63,15.38-4.28,6.29-.76,12.57-1.54,18.86-2.31,11.92-1.44,23.79-2.98,35.88-1.48,5.37,.67,10.89,.29,16.93,1.61-1.06-3.77-2.03-6.73-2.72-9.76Zm-14.39,210.22c-1.69-3.12-3.24-5.97-4.86-8.96-1.55,.94-2.87,1.64-4.09,2.48-4.49,3.1-9.42,4.88-14.87,5.24-5.67,.37-11.28-.14-16.91-.86-2.97-.38-6.06-3.37-8.37-1.9-2.14,1.36-2.31,5.28-4.73,8.15,19.22,8.7,36.73,5.9,53.83-4.15Zm-8.29-88.66c1.66-1.12,3.17-2.43,4.28-4.12,.71-1.07,.79-2.15-.12-3.2-.92-1.06-2.07-1.04-3.17-.55-.73,.33-1.34,.96-1.94,1.52-4.89,4.65-10.94,6.37-17.41,5.98-6.29-.38-12.68-1.14-16.81-7.05-.92-1.31-2.3-2.03-3.84-.74-1.41,1.18-1.32,2.71-.43,4.03,1.88,2.8,4.24,5.13,7.49,6.32,4.7,1.73,9.44,3.23,14.17,2.9,6.72,.14,12.52-1.57,17.78-5.11Zm-18.2-39.38c.89-6.42,.93-12.96,2.69-19.25,.41-1.47,.03-2.64-1.23-3.44-.92-.58-1.91-.43-2.84,.11-1.12,.66-1.36,1.78-1.58,2.96-1.46,7.69-2.36,15.46-2.81,23.26-.22,3.89,1.27,5.36,5.09,6.04,1.66,.29,3.31,.25,4.97,0,3.4-.52,4.93-1.63,4.43-3.51-.73-2.8-3-1.99-5.55-1.84-3.72,.13-3.81,.12-3.19-4.32Zm-28.2-43.08c-1.74,.48-3.16,1.45-2.69,3.5,.49,2.17,2.31,2.27,3.97,1.75,4.38-1.36,8.64-2.06,13.02,.13,1.45,.72,3.04,.11,3.52-1.7,.45-1.68-.3-2.89-1.93-3.51-2.47-.95-4.89-2.12-7.65-1.83-2.9-.17-5.54,.91-8.24,1.66Zm47.21,.32c-1.78,.55-3.17,1.41-2.64,3.45,.5,1.92,2.03,2.53,3.89,1.92,4.18-1.37,8.33-1.86,12.61-.29,1.27,.46,2.75,.16,3.32-1.36,.63-1.67-.18-2.89-1.68-3.64-2.27-1.13-4.72-1.47-7.23-1.42-2.82,.05-5.57,.51-8.28,1.35Zm10.3,14.74c.09-2.47-1.68-4.47-4.14-4.67-2.73-.22-5.13,2-5.19,4.8-.05,2.53,1.66,4.18,4.42,4.27,2.81,.09,4.81-1.7,4.91-4.4Zm-42.88-.15c-.09-2.62-1.92-4.55-4.31-4.55-2.54,0-4.84,2.64-4.73,5.43,.09,2.35,2.32,4.4,4.64,4.26,2.49-.15,4.49-2.49,4.4-5.14Z"/><path class="cls-5" d="M956.4,307.56c2.92-.69,5.12,.31,7.31,.97,3.66,1.1,7.27,2.28,11.08,2.9,4.36,.71,4.7,1.21,5.13,5.8,.58,6.19,0,12.29-1.7,18.27-.36,1.26-.95,2.5-1.64,3.62-1.02,1.66-2.35,1.66-3.68,.28-.34-.35-.67-.77-.85-1.22-4.16-10.67-8.73-21.14-15.65-30.61Z"/><path class="cls-5" d="M857.99,312.92c-4.82,7.2-7.89,15.38-13.41,22.07-.84,1.02-1.69,2.07-2.71,2.89-1.7,1.37-3.1,1.06-3.86-1.04-2.07-5.76-2.14-11.68-.87-17.63,.29-1.36,1.68-1.44,2.72-1.85,5.71-2.27,11.87-2.84,18.12-4.45Z"/></g></g><g><path class="cls-10" d="M1108.8,290.94c0-10.67,.07-21.35-.04-32.02-.04-4.37-.92-5.21-5.08-5.1-9.4,.25-18.82-.33-28.2,.74-1.26,.14-2.53,.21-3.76,.48-6.37,1.42-7.22,2.63-7.13,9.24,.21,13.92,.06,27.84-1.27,41.7-1.2,12.59-2.24,25.22-4.22,37.69-3.14,19.81-6.57,39.59-16.31,57.63-6.03,11.18-13.03,21.62-21.43,31.14-.48,.54-1.03,1.04-1.38,1.66-.46,.83-.47,1.8,.1,2.57,.73,1,1.87,1.14,2.93,.67,1.87-.84,3.12-2.45,4.33-4.01,17.27-22.38,29.7-46.82,33.88-75.24,2.1-14.3,3.81-28.61,5.55-42.94,2.05-16.91,2.16-33.86,2.79-50.81,.12-3.18,1.2-4.51,4.09-5.18,2.86-.67,5.74-.81,8.62-.89,5.79-.16,11.58-.14,17.37-.07,4.61,.05,4.77,.13,4.76,4.45-.06,15.19,.11,30.39-.47,45.58-.92,24.24-4.32,48.19-7.54,72.19-2.43,18.12-5.98,36.01-10.42,53.71-5.41,21.56-14.63,41.52-26.72,60.18-4.43,6.83-8.8,13.68-13.92,20.03-1.3,1.61-3.34,3.73-.77,5.54,2.57,1.8,3.68-.87,4.87-2.6,6.33-9.25,12.53-18.57,18.3-28.2,8.79-14.66,15.91-30.09,20.56-46.48,5.98-21.04,9.96-42.53,12.95-64.23,2.42-17.54,4.46-35.12,6.28-52.72,.71-6.83,.86-13.71,1.1-20.58,.16-4.7,.03-9.4,.03-14.11,.05,0,.09,0,.14,0Z"/><path class="cls-3" d="M1085.24,207.86c2.02,2.84,2.31,5.4,2.99,7.81,.35,1.22,.59,2.46,.87,3.69,.39,1.75,.53,4.01,3.01,3.68,2.14-.29,1.82-2.4,1.77-3.98-.06-2.37,.2-4.7,.75-6.99,.22-.93,.68-1.67,1.87-1.77,1.13,1.64,1.42,3.55,1.45,5.54,.02,1.45-.01,2.9,.08,4.34,.12,1.82,.21,4,2.62,4.02,2.07,.02,2.25-2.03,2.49-3.63,.21-1.43,.32-2.88,.41-4.32,.06-1,.48-1.89,1.4-2.09,1.09-.24,2.11,.26,2.8,1.21,1.02,1.4,1.1,3.04,1.03,4.68-.35,8.57-2.56,16.74-5.34,24.79-.41,1.19-1.01,2.33-1.32,3.54-.29,1.14,.18,2.17,1.24,2.74,1.38,.74,2.44,.09,3.26-1.02,.42-.58,.81-1.23,1-1.91,2.54-9.04,5.47-18.02,5.64-27.51,.15-8.5-1.82-10.43-10.29-10.6-1.14-.02-1.45-.56-2.03-1.27-3.28-4.05-4.7-4.17-8.79-.91-.38,.3-.78,.58-1.22,.9-1.64-2.16-2.42-5.24-5.93-4.9-3.97,.38-4.14,4.05-5.68,6.67-1.12-1.02-2.16-2.11-3.33-3.02-2.92-2.28-5.93-1.67-7.69,1.59-1.24,2.29-1.62,4.77-1.2,7.36,.39,2.47,.75,4.95,1.15,7.57-1.92,.16-3.02-1.2-4.4-1.8-6.19-2.71-9.73-.33-8.99,6.26,.51,4.51,1.62,8.88,4.21,12.75,1.91,2.85,3.66,5.82,5.57,8.67,1.04,1.55,1.93,4.32,4.33,2.84,2.49-1.54,.41-3.52-.74-5-2.44-3.16-4.57-6.51-6.54-9.97-1.73-3.06-2.46-6.4-2.77-9.84-.23-2.57,.94-3.35,3.14-2.05,1.39,.82,2.55,2.02,3.83,3.02,1.14,.89,2.22,1.9,3.47,2.57,1.94,1.05,3.19,.43,3.48-1.69,.24-1.79-.04-3.58-.42-5.37-.77-3.71-1.76-7.4-1.42-11.26,.1-1.13,.35-2.35,1.39-2.76,1.24-.49,1.98,.69,2.5,1.6,1.17,2.03,2.27,4.11,3.27,6.23,.69,1.46,1.01,3.44,3.18,2.94,2.18-.51,1.6-2.57,1.59-4.09-.02-3.1,.4-6.03,2.32-9.23Z"/><g><path class="cls-3" d="M1156.28,202.52c2-.26,2.95-2.43,1.75-4.75-2.31-4.46-4.5-9.04-7.74-12.93-4.52-5.43-9.53-10.34-16.15-13.21-1.63-.71-3.24-1.69-5.16-1.09-1.08,.34-2.04,.96-2.14,2.16-.11,1.25,.77,2.04,1.88,2.27,2.11,.44,4.26,.64,6.17,1.79,6.48,3.91,11.43,9.28,15.09,15.83,1.4,2.5,2.44,5.21,3.64,7.82,.55,1.21,1.3,2.15,2.66,2.11Z"/><path class="cls-3" d="M1141.66,201.87c.96-.12,1.75-.56,1.95-1.54,.14-.68,.23-1.54-.07-2.1-2.64-5.13-6.83-8.77-11.77-11.53-1.05-.58-2.58-.42-3.24,1.05-.61,1.36-.21,2.56,1.14,3.15,4.54,1.97,7.67,5.29,9.75,9.72,.43,.91,1.27,1.22,2.23,1.26Z"/></g></g><path class="cls-2" d="M862.28,496.9s7.44,7.44,14.26,14.88c6.82,7.44,44.01,1.86,44.01,1.86,0,0,25.41-14.26,24.79-25.41-.62-11.16,96.69,2.48,96.69,2.48,0,0,32.23,45.87,34.09,63.22,1.86,17.36,9.92,78.72-58.26,83.06-68.18,4.34-272.72,7.44-295.04-7.44-22.31-14.88-45.87-73.76-40.29-87.4,5.58-13.64,78.72-43.39,91.73-44.63,13.02-1.24,88.02-.62,88.02-.62Z"/><path class="cls-9" d="M936.15,496.09s52.96-22.24,87.48-64.02"/></g></g></g></svg>