<?xml version="1.0" encoding="UTF-8"?><svg id="_レイヤー_2" xmlns="http://www.w3.org/2000/svg" xmlns:xlink="http://www.w3.org/1999/xlink" viewBox="0 0 1200 500"><defs><style>.cls-1{fill:#fff;}.cls-2{stroke-width:.25px;}.cls-2,.cls-3,.cls-4{fill:#231815;}.cls-2,.cls-4{stroke:#231815;}.cls-2,.cls-4,.cls-5{stroke-linecap:round;stroke-linejoin:round;}.cls-6{fill:#040000;}.cls-7{fill:#f49c00;}.cls-8{clip-path:url(#clippath);}.cls-9,.cls-5{fill:none;}.cls-4{stroke-width:3px;}.cls-10{fill:#fdeadb;}.cls-5{stroke:#040000;stroke-width:5px;}</style><clipPath id="clippath"><rect class="cls-9" width="1200" height="500"/></clipPath></defs><g id="_レイヤー_1-2"><g class="cls-8"><rect class="cls-1" width="1200" height="500"/><g id="_ふ_ん"><path class="cls-3" d="M546.19,92.34c1.28-1.22,2.94-2.76,4.77-3.01,2.01-.28,2.79,1.91,4.32,2.8,3.64,2.11,7.07-.84,10.04-2.63,1.93-1.17,3.36-.97,5.38-.2,1.84,.7,3.57,1.27,5.56,1.01,3.29-.43,6.66-3.35,9.89-1.43,1.41,.84,2.67,1.94,4.3,2.35,1.75,.43,3.43,0,5.03-.72,1.52-.68,2.98-1.71,4.71-1.7,1.99,0,3.89,1.07,5.8,1.51,1.62,.37,3.27,.47,4.87-.07,1.68-.57,3.36-2.13,5.15-2.25,1.72-.11,3.28,1.29,4.95,1.58,1.66,.29,3.17-.23,4.62-1.01,.83-.45,1.7-1.13,2.64-1.34,1.03-.23,1.92,.21,2.85,.62,2.07,.91,3.78,1.29,6.03,.81,2.72-.57,5.07,0,7.76,.54,2.78,.56,5.55,1.12,8.33,1.68,2.26,.46,3.23-3.02,.96-3.48-2.43-.49-4.86-.98-7.29-1.47-2.3-.46-4.68-1.15-7.03-1.25-2.2-.09-4.28,1.1-6.4,.27-1.74-.68-3.27-1.58-5.21-1.37-1.75,.18-3.14,1.21-4.66,1.99-1.93,.98-3.2-.1-5.03-.75-1.78-.64-3.47-.49-5.19,.26-1.73,.75-3.31,2.07-5.28,1.94-1.9-.13-3.69-1.08-5.53-1.5-1.82-.42-3.58-.42-5.34,.24-1.61,.6-3.25,1.92-5,2.04-1.75,.11-3.19-1.51-4.63-2.28-3.72-1.99-6.85-.13-10.49,.94-3.96,1.17-7.26-2.48-11.3-1.14-2.13,.71-3.68,2.3-5.65,3.29-1.02,.52-2.24,.93-3.27,.24-.83-.56-1.32-1.56-2.16-2.15-3.79-2.64-8.24,.43-11.03,3.1-1.68,1.61,.87,4.15,2.55,2.55h0Z"/><path class="cls-3" d="M678.49,80.39c-4.94,6.45-10.69,12.25-17.02,17.34,.85,.85,1.7,1.7,2.55,2.55,1.91-1.95,5.01-4.66,7.96-3.15,2.29,1.17,2.69,4.69,4.29,6.56,3.23,3.76,9.05,3.91,12.79,.89,1.8-1.46-.76-3.99-2.55-2.55-1.87,1.51-4.81,1.44-6.72,.04-2.1-1.53-2.41-4.51-4.05-6.44-4.18-4.94-10.66-1.6-14.28,2.1-1.66,1.7,.78,3.97,2.55,2.55,6.59-5.3,12.44-11.36,17.58-18.07,1.41-1.84-1.72-3.64-3.11-1.82h0Z"/><path class="cls-3" d="M729.23,72.41c-8.2,16.14-16.84,32.06-25.9,47.73-1.16,2.01,1.95,3.83,3.11,1.82,9.06-15.68,17.69-31.59,25.9-47.73,1.05-2.06-2.06-3.89-3.11-1.82h0Z"/><path class="cls-3" d="M725.41,99.8c-4.02,7.41-7.8,14.95-11.34,22.6-.97,2.09,2.14,3.92,3.11,1.82,3.54-7.65,7.32-15.19,11.34-22.6,1.11-2.04-2.01-3.86-3.11-1.82h0Z"/><path class="cls-3" d="M462.23,74.4c7.93,17.61,16.32,35.01,25.18,52.18,1.06,2.06,4.17,.24,3.11-1.82-8.85-17.17-17.25-34.57-25.18-52.18-.95-2.11-4.06-.28-3.11,1.82h0Z"/><path class="cls-3" d="M464,106.04c2.87,8.6,8.38,16.2,13.1,23.85,1.22,1.97,4.34,.16,3.11-1.82-4.55-7.36-9.98-14.72-12.74-22.99-.73-2.19-4.21-1.25-3.48,.96h0Z"/><path class="cls-3" d="M513.14,85.31c1.84-.34,3.91,.31,5.08,1.81,1.37,1.75-1.29,2.59-2.64,3-1.81,.55-1.6,2.85,0,3.48,2.37,.93,5.54,2.33,5.91,5.22,.42,3.3-3.22,3.22-5.47,2.72-2.26-.51-3.22,2.97-.96,3.48,4.24,.95,9.69,.08,10.04-5.24,.35-5.21-4.35-8-8.56-9.65v3.48c3.21-.98,7.14-3.5,5.33-7.41-1.67-3.6-6-5.02-9.68-4.35-2.28,.42-1.31,3.89,.96,3.48h0Z"/><path class="cls-3" d="M506.66,96.97c-1.75,3.41-2.21,7.11-1.31,10.84,.54,2.25,4.02,1.3,3.48-.96-.67-2.76-.35-5.53,.94-8.06,1.06-2.06-2.05-3.89-3.11-1.82h0Z"/><path class="cls-3" d="M528.27,93.71c1.62,1.93,3.24,3.85,4.86,5.78,1.49,1.78,4.03-.78,2.55-2.55-1.62-1.93-3.24-3.85-4.86-5.78-1.49-1.78-4.03,.78-2.55,2.55h0Z"/></g><g id="_不機嫌なハート"><path class="cls-7" d="M751.24,207.41c-.22-5.01-.71-10.12-1.96-14.98-1.13-4.41-2.98-8.72-5.08-12.74-3.69-7.07-8.91-13.37-14.17-19.32-5.42-6.13-11.13-12.45-18.55-16.17-8.72-4.38-17.96-6.32-27.58-7.47-8.84-1.06-17.82-.51-26.52,1.4-4.85,1.06-9.42,2.88-13.96,4.89-3.31,1.47-6.48,3.26-9.41,5.4-3.82,2.78-7.55,5.72-10.65,9.3-2.71,3.12-5.08,6.44-7.24,9.93-1.25,1.53-2.47,3.09-3.66,4.7-1.9,2.58-3.6,5.3-4.96,8.2-.94,2-1.72,4.03-2.47,6.08-5.36-15.14-16.28-27.97-29.53-36.95-7.3-4.95-15.85-8.68-24.46-10.59-10.5-2.33-20.69-2.28-31.26-.66-9.38,1.43-18.55,4.9-26.86,9.41-8.14,4.42-15.8,10.35-22.02,17.22-13.31,14.69-22.03,33.55-24.86,53.17-.93,6.43-1.61,12.84-1.61,19.34,0,6.79,.74,13.49,1.67,20.21,1.56,11.19,4.48,22.12,8.39,32.71,.58,1.58,1.31,3.15,2.23,4.57-.05,.65-.01,1.32,.14,2,.68,3.1,1.89,6.1,3.49,8.84,.01,.02,.03,.05,.05,.07-.21,2.17,1.24,4.5,3.42,4.99,2.51,.57,5.02-.76,5.76-3.27,.08-.26,.15-.53,.23-.79,1.26-1.4,1.85-3.28,1.51-5.12,.02-.07,.04-.13,.06-.2,.65-.09,1.31-.22,1.96-.4,.29-.04,.58-.09,.87-.15,1.84,1.57,3.63,3.19,5.32,4.91,.42,.64,.84,1.28,1.26,1.91,1.12,1.67,2.24,3.34,3.36,5.01,.09,.31,.17,.63,.24,.95,.01,.34,.01,.68,0,1.02-.1,.39-.22,.78-.35,1.17-.04,.09-.08,.19-.12,.28-2.53,2.37-4.63,5.29-6.01,8.45-.72,1.63-.91,3.54-.37,5.17-.14,1.17,.09,2.37,.81,3.42,2.14,3.09,5.1,5.62,8.65,6.83,1.9,2.91,4,5.68,6.15,8.43,5.26,6.71,11.5,12.19,18.34,17.23,.81,.59,1.78,1.04,2.84,1.37,.77,.72,1.62,1.4,2.55,2.03,11.15,7.5,23.45,13.19,36.06,17.77,11.63,4.22,23.85,7.58,36.09,9.49,3.14,.49,6.11,.83,9.09,.85,2.63,.82,5.54,.95,8.49,.19,21.94-5.59,43.24-14.18,63-25.24,2.65-1.48,4.9-4.1,6.22-6.95,1.07-.34,2.12-.8,3.13-1.42,12.35-7.47,23.63-17.03,32.67-28.3,1.39-1.73,2.56-3.43,3.35-5.29,.52,.01,1.01-.1,1.47-.34,.49-.16,.92-.43,1.28-.82,.39-.36,.66-.78,.82-1.28,.25-.47,.36-.98,.34-1.53-.05-.35-.09-.7-.14-1.05-.19-.67-.53-1.25-1.02-1.75-.27-.21-.53-.41-.8-.62-.32-.19-.66-.32-1-.41-.29-1.83-.92-3.7-1.83-5.35,.28-.86,.56-1.72,.88-2.57,.75-1.57,1.59-3.08,2.55-4.53,1.67-1.84,3.53-3.47,5.22-5.27,.38-.02,.75-.06,1.13-.12,.47,1.11,1.14,2.13,2.02,3.05,1.3,1.36,3.43,1.68,5.12,.97,1.78-.75,2.76-2.38,2.88-4.28,.01-.16,.07-.78,.07-.83,.07-.41,.15-.83,.26-1.23,.11-.43,.23-.86,.37-1.29,.06-.17,.62-1.55,.26-.75,.52-1.16,.69-2.51,.4-3.72,1.68-3.88,3.44-7.78,5.16-11.71,.76-1.2,1.37-2.54,1.79-4.01,.05-.17,.09-.33,.14-.5,3.2-7.69,5.99-15.54,7.29-23.71,.53-3.35,.65-6.44-.45-9.48,.73-5.44,1.29-10.91,1.67-16.38,.54-7.78,.73-15.62,.4-23.41Z"/><path class="cls-10" d="M477.82,372.02c-.05-.13-.1-.27-.14-.4,.5-1.9-.21-4.12-2.65-4.79-1.44-.39-2.87-.16-4.02,.7-1.18-10.32-.26-20.71,2.83-30.64,1.55-4.99,3.62-9.76,6.21-14.3,2.5-4.38,6.81-8.72,6.26-14.13-.59-5.88-5.54-10.72-11.51-10.78-3.17-.03-4.37,3-3.6,5.33-.37,.43-.66,.93-.85,1.49-1.71,4.97-3.17,10.02-4.41,15.11-.68,.5-1.18,1.19-1.34,2.04-1.67,9.24-3.17,18.55-3.66,27.89-.14,1.01-.27,2.03-.39,3.04-.06,.53,.03,1.05,.24,1.52-.06,4.44,.13,8.88,.68,13.32-1.96,2.77-3.45,5.77-4.64,8.96-.75,2.01,.83,4.35,2.77,4.88,2.22,.61,4.13-.76,4.88-2.77,.1-.27,.21-.54,.32-.8,.15,1,.38,2,.69,3,1.22,3.9,6.4,3.33,7.6,.42,1.95,2.09,5.46,1.41,6.69-1.6,1.1-2.71,.1-5.61-1.94-7.49Zm.64-62.87c.05,.46-.04,.89-.31,1.53-.15,.35-.33,.69-.54,1.03,.28-.85,.56-1.71,.85-2.56Z"/><polygon class="cls-10" points="718.03 374.22 718.03 374.22 718.03 374.22 718.03 374.22 718.03 374.22"/><path class="cls-10" d="M718.03,374.22c-.08-.02,.02,.08,0,0h0Z"/><path class="cls-10" d="M731.9,371.24c4.52-10.69,6.51-22.31,5.49-33.9-.53-5.94-1.7-11.83-3.69-17.45-1.85-5.22-4.15-11.88-8.91-15.15-3.73-2.57-7.38,.58-9.48,3.71-1.91,2.86-2.33,6.2-1.84,9.52,.29,1.99,2.67,3.14,4.51,2.85,.11,.17,.22,.34,.33,.5,1.17,1.65,2.73,2.99,3.46,4.91,.86,2.25,1.08,4.79,1.44,7.15,.42,2.75,.82,5.51,1.11,8.27,.89,8.53,.89,17.44-2.13,25.5-.15-.06-.3-.1-.46-.15-.52-.14-1.04-.28-1.56-.41-2.07-.55-4.31,.69-4.88,2.77-.62,2.26,.76,4.02,2.72,4.86,0-.01,0-.02-.01-.04,0,.01,.01,.03,.02,.04,.01,0,.03,.01,.04,.02-.02,0-.03,0-.04-.01,.64,1.5,1.93,2.57,3.35,2.81,1.15,.76,2.64,1,3.89,.39,1.64,3.3,7.25,2.74,7.49-1.71,.02-.43,.05-.85,.07-1.28,.04-.74-.18-1.44-.56-2.04-.11-.39-.23-.78-.38-1.15Z"/><path class="cls-4" d="M606.83,187.08c-4.3-10.04-8.79-20.14-15.76-28.66-6.96-8.5-16.4-14.32-26.61-18.15-19.91-7.47-42.69-7.05-62.47,.65-19.09,7.42-34.62,21.56-44.94,39.15-10.56,17.99-15.53,38.85-15.11,59.65,.47,23.3,7.26,46.15,17.76,66.84,1.31,2.58,2.69,5.13,4.11,7.66,1.14,2.02,4.26,.21,3.11-1.82-11.05-19.56-18.87-41.26-20.89-63.73-1.82-20.34,1.28-41.01,10.22-59.46,8.44-17.41,21.78-32.45,39.09-41.37,18.28-9.42,40.12-11.81,60.02-6.65,10.17,2.64,20.2,7.17,28,14.33,7.81,7.16,12.88,16.63,17.19,26.17,1.08,2.4,2.12,4.81,3.16,7.23,.91,2.13,4.02,.29,3.11-1.82h0Z"/><path class="cls-4" d="M474.63,329.65c11.71,14.45,23.62,29.04,38.7,40.15,15.63,11.52,34.17,17.42,52.67,22.57,11.14,3.1,22.35,6.41,33.96,7.08,2.32,.13,2.31-3.47,0-3.6-10.2-.59-20.07-3.38-29.87-6.09-9.18-2.53-18.36-5.11-27.28-8.45-8.85-3.31-17.38-7.45-25.16-12.84-7.44-5.16-14.14-11.34-20.37-17.89-7.1-7.47-13.61-15.48-20.09-23.48-1.46-1.8-4,.76-2.55,2.55h0Z"/><path class="cls-4" d="M606.83,187.51c5.16-18.09,18.16-33.42,34.8-42.07,19-9.87,42.12-10.63,62.07-3.22,9.53,3.54,18.14,9.12,25.06,16.58,6.28,6.77,11.12,14.88,14.53,23.45,3.43,8.62,5.58,17.78,6.5,27.01,1.09,11.05,.42,22.22-.69,33.24-2.12,20.89-6.81,42.04-17.35,60.41-1.33,2.32-2.75,4.57-4.26,6.78-1.31,1.92,1.81,3.73,3.11,1.82,12.49-18.35,18.43-40.12,21.28-61.91,2.79-21.35,3.53-43.34-3.51-63.97-6.43-18.83-18.86-35.34-37.06-44.06-19.99-9.57-44.15-10.6-64.76-2.31-18.32,7.37-33.34,22.02-40.81,40.35-.93,2.27-1.71,4.59-2.39,6.95-.64,2.23,2.84,3.19,3.48,.96h0Z"/><path class="cls-4" d="M717.22,325.66c-22.82,28.04-53.2,49.75-87.11,62.3-9.53,3.53-19.33,6.32-29.28,8.38-2.27,.47-1.31,3.94,.96,3.48,35.83-7.39,69.46-24.61,96.61-49.11,7.69-6.94,14.83-14.46,21.37-22.5,1.45-1.78-1.08-4.35-2.55-2.55h0Z"/><path class="cls-3" d="M470.83,298.56c-6.49,12.64-10.64,26.35-12.29,40.46-.83,7.09-1.01,14.26-.52,21.39,.12,1.7,.28,3.4,.47,5.09,.1,.86,.27,1.73-.05,2.56-.31,.81-.99,1.47-1.44,2.2-1.69,2.71-2.51,6.09-2.1,9.26,.41,3.21,3.13,5.07,6.29,4.15,3.24-.94,4.43-4.31,5.16-7.26-1.16-.32-2.32-.64-3.48-.96-.66,4.42,1.37,9.86,6.65,9.77,4.36-.07,6.81-5.27,3.85-8.55-1.13-1.25-2.96-.17-3.08,1.27-.23,2.76,1.94,4.96,4.51,5.61,2.99,.75,5.88-.54,7.27-3.3,1.44-2.86,.91-6.55-.81-9.18-2.1-3.21-5.54-5.08-8.87-6.77,.3,.52,.6,1.04,.89,1.56-.05-16.48,.11-34.54,10.52-48.27,1.4-1.85-1.73-3.65-3.11-1.82-10.77,14.21-11.06,33.03-11.01,50.09,0,.61,.34,1.27,.89,1.56,3.67,1.87,8.78,4.36,8.72,9.18-.02,1.64-.8,3.51-2.67,3.57-1.36,.04-2.85-.73-2.72-2.22-1.03,.42-2.05,.85-3.08,1.27,1.32,1.47-1.02,2.69-2.3,2.22-2.01-.73-2.46-3.14-2.18-5.03,.33-2.23-2.9-3.27-3.48-.96-.33,1.33-1.47,6.02-3.84,4.78-.97-.51-.67-2.69-.57-3.58,.18-1.52,.71-3.01,1.49-4.33,.67-1.12,1.59-2.08,2-3.35,.44-1.36,.22-2.73,.07-4.12-.34-3.07-.55-6.16-.63-9.25-.33-12.11,1.28-24.22,4.74-35.83,2-6.7,4.61-13.19,7.81-19.41,1.06-2.06-2.05-3.89-3.11-1.82h0Z"/><path class="cls-3" d="M721.8,305.2c13.36,15.69,17.88,38.26,11.73,57.91-.92,2.93-2.41,5.78-2.44,8.91-.02,1.58,.29,3.11-.4,4.6-.63,1.35-1.74,2.25-3.07,2.85,.73,.09,1.46,.19,2.18,.28-1.37-1.59-1.81-3.51-1.58-5.56,.24-2.13-2.91-2.28-3.54-.48-.44,1.25-2.32,3.76-3.92,2.64-.41-.29-1.08-1.87-.35-2.14-.68-.88-1.36-1.76-2.04-2.65-1.02,1.47-2.72-.31-2.4-1.63,.51-2.13,3.07-2.24,4.7-1.43,1.06,.53,2.28,.09,2.65-1.08,3.11-9.85,2.78-20.41,1.49-30.55-.93-7.3-3.12-15.43-10.55-18.51-2.14-.89-3.07,2.6-.96,3.48,6.41,2.66,7.54,11.38,8.17,17.38,.96,9.11,1.16,18.41-1.63,27.24,.88-.36,1.76-.72,2.65-1.08-4.33-2.16-10.49-.15-10.18,5.46,.26,4.79,6.51,6.39,9.17,2.54,.87-1.25-.58-3.18-2.04-2.65-3.47,1.27-3.77,5.82-1.2,8.2,3.69,3.42,8.61-.57,9.91-4.27-1.18-.16-2.36-.32-3.54-.48-.34,3.02,.67,5.82,2.63,8.11,.56,.65,1.49,.59,2.18,.28,2.35-1.05,4.16-3.08,4.94-5.54,.43-1.35,.4-2.72,.35-4.12-.07-1.82,.33-3.37,.96-5.06,1.97-5.34,3.3-10.8,3.86-16.47,1.09-11.09-.78-22.42-5.16-32.65-2.51-5.85-5.9-11.24-10.02-16.09-1.51-1.77-4.05,.79-2.55,2.55h0Z"/><path class="cls-3" d="M558.82,252.32c-.14,1.33-.03,2.65,.25,3.96,.15,.69,.83,1.21,1.5,1.29,.78,.09,1.34-.26,1.8-.86,1.09-1.44,1.07-3.37,.31-4.94-.42-.88-1.67-1.11-2.47-.65-.9,.52-1.07,1.59-.65,2.47-.06-.12,.08,.33,.09,.35-.05-.24-.04,.32,0,.07-.07,.4-.12,.5-.41,.88,1.1,.14,2.2,.29,3.29,.43-.21-.99-.23-1.99-.12-3,.1-.97-.9-1.8-1.8-1.8-1.06,0-1.7,.83-1.8,1.8h0Z"/><path class="cls-2" d="M554.88,251.93c3.81,.5,7.63,.55,11.46,.16,2.29-.23,2.31-3.84,0-3.6-3.82,.39-7.64,.34-11.46-.16-2.29-.3-2.27,3.31,0,3.6h0Z"/><path class="cls-2" d="M636.86,253.14c-.67,1.61-.74,3.33-.4,5.03,.28,1.41,2.08,1.64,3.01,.8,1.85-1.66,2.19-4.37,1.08-6.53-1.06-2.06-4.18-.24-3.11,1.82,.39,.76,.12,1.6-.52,2.17,1,.27,2.01,.53,3.01,.8-.22-1.08-.02-2.11,.4-3.11,.37-.9-.4-1.98-1.26-2.22-1.04-.28-1.84,.36-2.22,1.26h0Z"/><path class="cls-2" d="M632.72,253.41c3.82,.06,7.64,.13,11.46,.19,2.32,.04,2.32-3.56,0-3.6-3.82-.06-7.64-.13-11.46-.19-2.32-.04-2.32,3.56,0,3.6h0Z"/><path class="cls-2" d="M558.8,252.73c.03,.35,.03,.5-.14,.78-.56,.97-.07,2.39,1.08,2.65,.38,.09-.12-.1-.21-.18-.06-.05-.14-.36-.09-.15,.05,.2-.01-.09,0-.14,.04-.1,.04-.24,.13-.32,.94,.12,1.89,.24,2.83,.36-.47-.67-.62-1.31-.4-2.1,.64-2.23-2.84-3.19-3.48-.96-.47,1.65-.23,3.46,.76,4.88,.66,.95,1.94,1.22,2.83,.36,1.67-1.61,.89-4.73-1.42-5.24,.36,.88,.72,1.76,1.08,2.65,.46-.79,.7-1.69,.63-2.6-.07-.97-.77-1.8-1.8-1.8-.92,0-1.88,.83-1.8,1.8h0Z"/><path class="cls-2" d="M549.26,208.9c7.39-1.41,14.91-1.74,22.4-1.04,2.31,.21,2.29-3.39,0-3.6-7.82-.72-15.65-.3-23.36,1.17-2.28,.44-1.31,3.91,.96,3.48h0Z"/><path class="cls-2" d="M630.25,209.42c6.98-.43,13.94-.01,20.81,1.32,2.27,.44,3.24-3.03,.96-3.48-7.18-1.39-14.47-1.9-21.77-1.45-2.3,.14-2.32,3.75,0,3.6h0Z"/><path class="cls-2" d="M598.13,269.94v1.64c0,.94,.83,1.85,1.8,1.8,.98-.04,1.8-.79,1.8-1.8v-1.64c0-.94-.83-1.85-1.8-1.8-.98,.04-1.8,.79-1.8,1.8h0Z"/><path class="cls-3" d="M586.28,319.96c.88-3.67,2.54-7.21,5.08-10.03,1.14-1.26,2.86-2.85,4.41-1.3,1.02,1.02,1.36,2.68,2.69,3.4,1.27,.69,2.8,.27,3.79-.69,.58-.56,.9-1.25,1.21-1.98,.34-.77,.56-1.41,1.49-.9,1.5,.82,2.46,3.54,3.23,4.98,.51,.95,1,1.91,1.43,2.89,.2,.45,.38,.9,.54,1.36,.11,.3,.22,.61,.31,.91,.12,.38,.13,.41,.03,.08,.58-.44,1.16-.88,1.74-1.32-.08,0-.15,.02-.23,.02,.42,.18,.85,.35,1.27,.53-.06-.05-.11-.11-.17-.16,.15,.58,.31,1.17,.46,1.75,.02-.06,.04-.11,.06-.17,.74-2.2-2.74-3.15-3.48-.96-.02,.06-.04,.11-.06,.17-.2,.58,.02,1.34,.46,1.75,.49,.46,.99,.73,1.67,.66,.88-.09,1.41-.52,1.74-1.32,.79-1.97-1.21-5.15-2.08-6.88-1.06-2.1-2.14-4.51-3.72-6.28-1.39-1.56-3.63-2.41-5.63-1.51-.95,.43-1.57,1.2-2.02,2.12-.19,.38-.46,.88-.54,1.29-.09,.13-.19,.27-.28,.4,.51-.01,.57-.2,.18-.56-.51-1.63-2.54-3.31-4.13-3.75-2.3-.63-4.52,.57-6.17,2.09-3.46,3.2-5.71,7.91-6.79,12.43-.54,2.25,2.93,3.22,3.48,.96h0Z"/><path class="cls-3" d="M595.05,315c-.55,1.35-.6,2.8-.34,4.22,.18,.96,1.34,1.5,2.22,1.26,1.01-.28,1.44-1.26,1.26-2.22-.13-.73,0-1.5,.34-2.3,.37-.9-.4-1.98-1.26-2.22-1.03-.28-1.85,.35-2.22,1.26h0Z"/><path class="cls-3" d="M600.57,316.32c.17,1.09,.33,2.18,.5,3.26,.15,.96,1.36,1.5,2.22,1.26,1.03-.28,1.41-1.25,1.26-2.22-.17-1.09-.33-2.18-.5-3.26-.15-.96-1.36-1.5-2.22-1.26-1.03,.28-1.41,1.25-1.26,2.22h0Z"/></g><g><g><path class="cls-6" d="M874.01,269.35c-6.12-13.34-11.11-27.08-15.23-41.18-2.85-9.77-3.74-19.63-2.95-29.72,1.07-13.71,5.95-25.97,14.74-36.44,7.34-8.75,16.17-15.93,26.11-21.65,1.67-.96,3.29-2.01,4.94-3.01,1.98-1.19,3.88-2.6,5.99-3.5,18.62-7.92,37.84-10.48,57.67-5.61,6.11,1.5,11.44,4.77,15.29,9.89,1.6,2.13,2.82,2.77,5.61,1.83,7.32-2.47,13.6-.46,18.59,5.56,5.39,6.5,9.1,13.57,10.53,22.13,2.61,15.61,4.32,31.32,6.6,46.96,.47,3.2,.36,6.55,2.25,9.42,2.1,.55,3.42,2.06,1.57,3.61-2.96,2.47-5.57,6.14-10.35,5.09-4.04-.88-7.31-4.86-7.89-9.53-.83-6.66-1.86-13.3-2.87-19.94-.85-5.62-3.83-8.24-9.43-8.79-16.63,7.3-33.57,13.82-49.03,23.65-11.47,7.29-23.78,12.86-37.8,13.6-4.47,.24-8.81,.42-13.24-.48-4.82-.99-5.9,.04-5.77,5.01,.11,4.45,1.04,8.83,1.47,13.25,.32,3.2,2.04,3.84,4.81,2.97,1.11-.35,2.22-.67,3.33-1.01,19.2-5.98,38.65-11.28,57.52-18.18,14.5-5.31,29.75-8.25,43.86-14.61,2.21-.32,4.96-1.47,6.09,1.32,1.58,3.9-3.41,3.94-4.38,6.46-.32,6.04,.8,11.9,1.94,17.76,3.01,15.53-4.37,28.48-18.32,32.22-10.46,2.8-23.75-2.58-29.72-12.1-3.57-5.69-6.08-11.9-8.75-18.15,.28,4.95,.73,9.83,1.24,14.7,.39,3.65,.74,7.31,.35,10.98-1.22,11.44-8.51,18.61-19.94,19.66-16.27,1.49-25.35-4.29-31.37-19.53-1.36-3.44-2.07-7.53-6-9.41-5.38,2.89-5.71,3.57-2.49,7.93,1.79,2.43,2.1,4.46-.11,6.58-2.31,2.21-4.55,1.75-6.43-.56-1.42-1.75-3.29-2.51-5.33-3.19-1.83-.61-3.75-1.37-3.09-3.99Zm108.01-37.91c-8.58,1.73-16.55,5.32-24.92,7.64-2.63,.73-3.42,1.99-2.78,4.53,2.87,11.49,6.77,21.77,19.4,26.6,11.74,4.49,21.97-3.86,23.99-12.44,1.02-4.33,1.32-8.79,.41-13.22-1.12-5.48-2.33-10.93-3.62-16.93-4.41,1.38-8.37,2.98-12.48,3.81Zm-62,19.9c-5.71,1.78-11.41,3.62-17.14,5.31-2.26,.67-3.28,1.73-2.47,4.16,.86,2.56,1.49,5.19,2.35,7.75,4.02,12.06,10.77,17.06,23.52,17.5,8.73,.3,15.28-4.51,16.12-13.17,.79-8.22-.34-16.51-2.08-24.64-.47-2.2-1.53-2.76-3.69-2.04-5.49,1.82-11.05,3.48-16.57,5.2,0-.03-.02-.05-.02-.08Z"/><path class="cls-6" d="M996.03,192.42c.24-.28,.68-.83,.7-.81,4.31,3.11,9.57,5.18,9.73,11.99,.16,7.06,2.04,13.98,2.45,21.07,.17,3,4.5,6.6,7.56,7,1.43,.18,2.78,.13,3.61-1.16,1-1.55,2.42-2.34,4.09-3,2.64-1.05,.84-2.3-.02-3.45,9.28,.07,17.07,5.09,20.38,13.4,2.32,5.83,3.03,12.01,2.65,18.22-.36,5.87-4.03,10.4-7.41,14.82-1.8,2.36-2.7,4.17-1.63,7.21,4.33,12.26,6.04,25.13,8.25,37.88,1.82,10.48-.04,20.31-5.25,29.58-2.2,3.92-2.17,4.12,1.15,7.13,6.6,5.98,12.75,12.3,18.11,19.47,11.48,15.36,18.55,32.31,20.46,51.5,1.95,19.66-2.88,37.54-13.2,54.1-6.04,9.7-15.6,15.31-25.23,20.71-1.47,.82-3.3,1.09-5,1.36-5.15,.83-10.3,1.76-15.48,2.26-7.15,.69-14.26,.45-21.18-1.95-3.65-1.27-7.43-2.15-11.09-3.36-4.76-1.57-9.53-4.77-14.17-4.56-4.7,.21-9.63,2.3-14.48,3.53-5.08,1.29-10.21,2.05-15.41,2.55-10.54,1.02-21.1,1.95-31.68,2.02-6.55,.04-12.35-3.14-17.4-7.1-18.61-14.57-26.23-34.03-25.76-57.37,.36-17.94,5.07-34.52,15.21-49.09,6.68-9.6,14.71-18.38,24.76-24.89,3.73-2.42,3.7-2.47,1.24-6.07-3.39-4.95-6-10.33-8.94-15.53-2.66-4.7-5.38-9.29-6.96-14.54-.83-2.78-2.82-4.49-6.2-3.53-1.04,.29-2.39,.18-3.4-.24-8.21-3.42-15.46-7.92-18.47-17.02-2.85-8.6-4.43-17.22-.61-25.99,1.55-3.56,3.01-7.16,6.62-9.22,.54,1.3,1.32,2.43,2.82,2.62,3.15,.41,5.9,1.04,7.32,4.57,.71,1.75,2.55,1.13,3.81-.19,1.24-1.3,2.47-2.37,.67-4.31-5.29-5.72-5.09-6.84,1.41-10.96,.31-.19,.73-.2,1.11-.29,1.27,4.68,1.36,9.54,1.77,14.31,.49,5.68-4.01,8.4-9.25,6.01-.35-.16-.68-.36-1.02-.55-8.23-4.58-9.32-4.06-11.14,5.27-2.86,14.67,5.47,26.67,20.25,28.96,5.68,.88,9,4.3,10.69,9.39,3.39,10.2,9.21,19.11,14.6,28.27,10.14,17.24,26.32,21.82,44.74,20.3,14.65-1.21,28.93-4.82,42.93-9.39,5.73-1.87,11.21-4.31,16.48-7.11,14.31-7.6,21.34-21.14,19.28-37.68-1.6-12.84-3.55-25.68-7.73-37.99-2.06-6.07-2.01-11.17,3.21-15.71,8.77-7.62,6-26.43-2.19-31.62-2.14-1.35-4.15-3.37-6.79-2.29-2.53,1.04-1.37,3.71-1.53,5.71-.33,4.06-.93,8.07-1.84,12.03-.58,2.5-1.51,5.01-4.55,5.34-3.1,.33-5.18-1.49-6.38-4.11-2.57-5.65-4.34-11.63-5.71-17.63-1.05-4.59-3.3-6.55-7.75-6.48,.59-2.35,2.83-2.14,4.46-2.86,1.03-.45,2.34-.75,2.04-2.2-.31-1.5-1.58-1.27-2.71-1.05-.74,.14-1.47,.28-2.21,.43,2.11-4.79,.49-9.27-.94-13.86-1.43-4.56-3.42-8.99-3.84-13.84Zm-30.91,292.71c-7.73-5.12-15.54-10.12-23.06-15.57-9.98-7.25-20.47-13.69-31.98-18.37-2.95-1.2-6.02-1.28-8.98-2.1-5.66-1.57-6.65-3.89-3.61-8.74,1.85-2.94,3.77-5.85,5.87-8.61,4.05-5.35,9.67-8.4,16.15-9.35,6.93-1.02,13.86-.29,20.48,2.23,.88,.33,1.65,1.12,2.68,.66,2.94-1.31,5.72,.07,8.49,.59,11.58,2.15,23.08,4.73,34.85,5.7,2,.17,3.58,.45,4.49-2.11,1.41-3.97,4.79-5.81,8.69-6.95,12.13-3.53,23.72-2.09,34.8,3.74,4.78,2.51,6.28,5.68,5.54,10.95-.82,5.89-3.06,8.56-8.27,9.79-11.62,2.74-23.09,1.55-32.98-4.77-7.65-4.9-15.44-7.38-24.22-8.17-4.79-.43-9.5-1.72-14.26-2.53-3.61-.61-7.26-1.05-10.88-1.61-2.67-.42-4.9,.2-6.64,2.37-4.62,5.74-10.61,10.11-15.52,15.56-1.08,1.2-2.72,2.03-3.03,3.76,3.44,2.13,6.8,4.05,9.98,6.22,10.22,6.96,20.35,14.05,30.55,21.04,8.67,5.94,17.98,10.61,28.14,13.43,8.15,2.26,16.11,5.79,24.85,4.87,7.1-.74,14.16-1.86,21.23-2.84,.75-.11,1.55-.33,2.2-.71,7.17-4.17,14.75-7.96,20.07-14.5,11.41-14.02,16.96-30.42,16.62-48.33-.3-15.83-4.39-30.94-12.64-44.68-7.12-11.84-15.75-22.41-26.57-31.11-1.7-1.36-2.85-2.02-4.79-.04-5.26,5.37-12.02,8.34-19,10.76-11.31,3.91-22.49,8.37-34.32,10.48-9.09,1.62-18.17,3.65-27.54,2.68-12.07-1.26-23.82-3.31-32.47-13.01-1.4-1.57-2.89-1.76-4.63-.9-1.72,.86-3.63,1.55-5.05,2.78-9.07,7.83-17.96,15.9-23.77,26.6-7.22,13.29-11.42,27.47-11,42.72,.32,11.65,1.58,23.12,7.65,33.53,3.36,5.76,8,10.32,12.57,15.05,6.35,6.58,14.14,9.54,22.95,9.19,9.23-.37,18.53-.02,27.7-1.48,7.36-1.17,14.71-2.46,22.47-5.6-1.68-1.16-2.73-1.9-3.8-2.6Zm30.05-52.38c-.54,3.59,2.54,4.43,4.75,5.62,9.05,4.91,18.68,6.92,28.93,5.01,4.16-.78,5.77-2.51,6.24-6.39,.43-3.55-.48-5.16-4.49-7.07-9.34-4.47-19.04-5.9-28.18-3.16-4.29,.77-6.72,2.43-7.25,5.99Zm-79.24,15.46c2.05,.71,3.57,.56,5.17-1.04,5.03-5.05,10.25-9.91,15.27-14.96,2.06-2.07,1.8-3.34-.87-4.12-8.67-2.54-17.23-2.82-24.92,2.84-4.44,3.27-7.03,8.06-9.99,13.58,5.94,.2,10.62,2.06,15.33,3.7Z"/><path class="cls-6" d="M1020.07,243.28c.37,1.19,0,2.49-.39,3.76-.23,.73-.73,1.39-1.6,1.45-1.04,.07-1.92-.41-2.3-1.35-.77-1.91-.37-3.79,.69-5.45,.73-1.15,2.87-.25,3.6,1.59Z"/><path class="cls-6" d="M960.83,291.83c.97,3.72,1.75,7.5,2.97,11.14,1.2,3.57,2.35,4.01,6.09,3.15,1.99-.46,4.21-1.85,5.46,.97,.82,1.85-.74,3.13-4.52,3.97-6.22,1.38-9.77-.33-11.57-6.35-2.31-7.72-4.17-15.59-6.21-23.39-.44-1.67-.1-3.22,1.68-3.71,1.86-.51,2.82,.85,3.24,2.45,1.03,3.9,1.99,7.83,2.97,11.74-.04,0-.07,.02-.1,.03Z"/><path class="cls-6" d="M971.5,244.61c1.93-.34,3.52-.04,4.23,1.97,.69,1.97-.67,4.48-2.65,5-1.9,.5-3.99-.75-4.34-2.69-.41-2.27,.78-3.59,2.75-4.28Z"/><path class="cls-6" d="M933.85,261.55c.68,2.07-.43,4.22-2.58,5-2.23,.81-4.38-.16-5.07-2.29-.68-2.1,.44-4.31,2.54-5,2.28-.75,4.43,.21,5.11,2.28Z"/><path class="cls-6" d="M987.96,331.97c1.18,2.72,1.26,4.85,1.43,6.95,.71,8.73-2.83,12.88-11.53,13.88-1.85,.21-3.37-.18-4.91-1.1-9.34-5.6-9.74-20.92-.67-27.02,4.15-2.79,12.27-.22,14.86,4.77,.52,1.01,.71,2.19,.82,2.53Zm-9.41-3.34c-3.01-.45-5.23,.73-6.84,3.16-2.9,4.39-1.95,11.15,1.75,14.83,2.41,2.4,4.92,2.44,7.88,1.41,3.11-1.08,3.97-3.46,3.86-6.31-.08-2.28-.06-4.61-1.02-7.02-.54-3.04-1.98-5.52-5.63-6.07Z"/></g><path class="cls-9" d="M923.48,280.05c1.09,4.23,2.35,7.24,3.65,7.34,7.17,.58,14.34,.64,21.53,.77,12.29,.22,24.57,1.12,36.86,1.72,10.62,.52,21.2-.66,31.81-.84,6.99-.12,13.93-1.52,20.96-.56,1.3,.18,2.35,0,2.9-.93,.26-1.03,.43-1.66,.43-1.66,.15-7.2,.58-14.39,.69-21.58,11.21-37.41-22.95-65.12-39.68-60.54-10.57-1.32-37.67-3.97-66.09,9.25-9.72-.74-14.99,31.35-16.52,38.33-.64,2.9,.82,17.49,3.1,27.2l.2-2.09s.16,1.06,.16,3.6Z"/><path class="cls-9" d="M969.19,190.58c-5.3-.08-10.61-.02-13.79-.02-6.84-1.15-11.58-.86-16.31-.82-5.8,.04-5.77,0-6.59,5.81-1.12,7.96,1.15,18.39,10.43,22.54,11.62,5.2,22.17,3.82,27.51-10.28,1.55-4.09,2.68-8.21,2.89-12.64,.21-4.46,.47-4.52-4.13-4.58Z"/><path class="cls-6" d="M923.32,276.45l-.2,2.09c.12,.51,.24,1.03,.37,1.51,0-2.54-.16-3.6-.16-3.6Z"/></g><g><path class="cls-6" d="M246.13,317.73c-2.51,1.57-5.17,2.87-8.1,3.3-4.95,.73-8.05-1.63-8.85-6.53-.83-5.08-.27-10.06,1.35-14.89,1.46-4.38,4.84-6.23,9.34-4.95,3,.86,5.99,2,8.72,3.51,7.67,4.23,8.21,11.98,1.33,17.31-1.15,.89-2.51,1.51-3.78,2.26Zm3.89-10.77c-.52-3.15-3.1-4.81-6.07-5.73-.4-.12-.77-.32-1.16-.47-5.91-2.21-7.57-1.44-8.79,4.61-.73,3.63-2.06,8.13,1.21,10.55,3.2,2.36,6.55-1.31,10.23-2.35,1.57-2.01,5.16-3.05,4.57-6.61Z"/><path class="cls-9" d="M237.26,351.03c2.53,.78,5.09,1.07,7.65,1.22-3.63-.71-7.41-1.76-10.89-2.92,.74,.77,1.82,1.26,3.24,1.7Z"/><path class="cls-9" d="M270.44,352.09c-.77-2.73-1.09-5.59-1.53-8.4-1.25-7.95,1.92-14.76,8.88-18.93,6.2-3.73,11.19-8.59,14.81-15.3-3.01-1.25-5.49-2.22-7.91-3.32-1.51-.69-2.77-1.81-2.73-3.63,.05-1.91,1.52-2.65,3.14-3.14,3.23-.97,5.33-3.26,7.35-5.85,6.39-8.18,8.42-17.42,7.34-27.57-.45-4.24-.4-4.45,3.76-5.74,11.63-3.6,16.8-20,7.32-29.04-4.18-3.99-5.91-4.59-11.38-2.43-2.63,1.04-5.01,2.6-7.88,3.2-12.58,2.63-23.13-2.47-32.97-9.09-9.17-6.17-16.75-14.28-24.09-22.54-2.16-2.43-4.38-4.8-6.96-7.62-3.15,8.12-8.2,14.46-13.09,20.67-10.1,12.83-21.1,24.97-32.57,36.61-5.29,5.37-11.54,9.66-19.5,9.92-3.05,.1-5.99,.78-9,.97-2.22,.14-4.3,1.01-5.47,2.92-4.2,6.85-5.97,12.16-.42,19.68,4.38,5.93,10.55,9.05,17.91,8.66,2.78-.15,3.86,.88,4.88,2.82,.57,1.1,1.11,2.24,1.47,3.42,1.46,4.8,3.93,9.13,6.12,13.6,.74,1.51,1.75,2.54,3.18,3.41,3.21,1.96,6.47,3.75,10.25,4.3,1.67,.24,3.31,.64,3.83,2.38,.61,2.06-1,3.17-2.34,4.38-.89,.8-2.25,1.22-2.51,2.92,4.23,4.98,9.79,7.8,16.34,8.74,2.14,.31,4.1,.83,6.04,1.88,8.41,4.55,14.35,11.09,16.32,20.59,.36,1.72,.99,2.75,1.92,3.38,3.64,.42,7.56,.67,11.26,.62,3.06-.46,6.09-1.15,9.15-1.67,.88-.15,1.72-.37,2.58-.57,5.15-1.71,10.88-4.21,16.07-6.81,.62-.86,.85-1.93,.42-3.44Zm-65.16-96.94c-2.9,.47-5.52-1.19-6.04-3.84-.59-2.98,1.55-6.29,4.45-6.87,2.89-.57,5.41,1.08,5.94,3.89,.6,3.19-1.42,6.35-4.35,6.82Zm26.83,1.7c.83,4.5,.81,4.53-3.44,6.08-3.96,1.44-5.8,4.74-5.18,9.32,.54,4.05,2.54,5.63,7.42,5.87,.53,.03,1.06-.07,1.59-.06,1.64,.01,2.84,.83,3,2.42,.16,1.55-.84,2.58-2.33,3.18-4.14,1.66-11.77-1.15-13.86-5.45-2.78-5.73-2.96-14.58,4.01-19.07,2.47-1.6,2.92-3.15,2.18-5.64-.35-1.18-.52-2.43-.64-3.66-.15-1.57,.38-2.86,2.07-3.22,1.63-.35,2.85,.42,3.31,1.95,.55,1.86,.84,3.81,1.24,5.72l.08-.02c.18,.87,.38,1.73,.54,2.61Zm9.67-15.56c-.38-2.71,1.55-5.33,4.28-5.8,2.9-.5,5.31,1.16,5.87,4.03,.58,3-1.02,5.52-3.78,5.98-3.06,.5-5.97-1.42-6.36-4.21Z"/><path class="cls-9" d="M271.6,350.25c1-.25,1.77-.63,2.37-1.17-5.61,1.49-11.73,2.75-17.13,3.37,5-.11,9.9-1,14.76-2.2Z"/><path class="cls-6" d="M203.67,244.43c-2.89,.58-5.04,3.89-4.45,6.87,.52,2.65,3.14,4.31,6.04,3.84,2.93-.47,4.94-3.64,4.35-6.82-.53-2.81-3.06-4.46-5.94-3.89Z"/><path class="cls-6" d="M230.25,248.54c-.45-1.53-1.68-2.3-3.31-1.95-1.69,.36-2.22,1.66-2.07,3.22,.12,1.23,.29,2.48,.64,3.66,.74,2.49,.29,4.04-2.18,5.64-6.97,4.5-6.79,13.34-4.01,19.07,2.09,4.3,9.72,7.11,13.86,5.45,1.48-.59,2.48-1.63,2.33-3.18-.16-1.59-1.36-2.41-3-2.42-.53,0-1.06,.09-1.59,.06-4.88-.23-6.88-1.82-7.42-5.87-.62-4.58,1.22-7.88,5.18-9.32,4.25-1.54,4.27-1.57,3.44-6.08-.16-.87-.36-1.74-.54-2.61l-.08,.02c-.4-1.91-.68-3.85-1.24-5.72Z"/><path class="cls-6" d="M251.92,239.52c-.55-2.87-2.97-4.53-5.87-4.03-2.73,.47-4.66,3.09-4.28,5.8,.39,2.79,3.3,4.71,6.36,4.21,2.77-.46,4.36-2.98,3.78-5.98Z"/><path class="cls-6" d="M229.04,360.58c-1.97-9.5-7.91-16.04-16.32-20.59-1.94-1.05-3.9-1.57-6.04-1.88-6.55-.94-12.1-3.76-16.34-8.74,.26-1.7,1.62-2.12,2.51-2.92,1.34-1.21,2.95-2.32,2.34-4.38-.52-1.74-2.16-2.14-3.83-2.38-3.78-.54-7.04-2.34-10.25-4.3-1.43-.87-2.44-1.9-3.18-3.41-2.19-4.46-4.66-8.8-6.12-13.6-.36-1.18-.89-2.33-1.47-3.42-1.02-1.94-2.1-2.97-4.88-2.82-7.36,.39-13.54-2.73-17.91-8.66-5.55-7.52-3.78-12.83,.42-19.68,1.17-1.91,3.25-2.79,5.47-2.92,3.01-.19,5.95-.87,9-.97,7.96-.26,14.22-4.55,19.5-9.92,11.47-11.65,22.46-23.78,32.57-36.61,4.89-6.21,9.94-12.55,13.09-20.67,2.58,2.82,4.8,5.19,6.96,7.62,7.34,8.26,14.92,16.37,24.09,22.54,9.84,6.62,20.39,11.72,32.97,9.09,2.87-.6,5.24-2.16,7.88-3.2,5.46-2.16,7.19-1.56,11.38,2.43,9.48,9.04,4.31,25.44-7.32,29.04-4.16,1.29-4.22,1.49-3.76,5.74,1.09,10.15-.94,19.39-7.34,27.57-2.02,2.58-4.12,4.88-7.35,5.85-1.62,.48-3.09,1.22-3.14,3.14-.05,1.82,1.21,2.94,2.73,3.63,2.42,1.1,4.9,2.07,7.91,3.32-3.62,6.71-8.61,11.57-14.81,15.3-6.95,4.17-10.13,10.98-8.88,18.93,.44,2.81,2.36,6.27,3.13,8.99,.43,1.51,3.27,1.79,2.64,2.64,2.23-1.12-.33-2.05,1.59-3.14-.71-3.18-1.32-6.4-1.71-9.67-.68-5.57,1.55-9.82,6.06-12.61,7.29-4.51,13.07-10.33,17.26-17.76,1-1.77,2.3-2.82,4.33-3.57,10.7-3.93,18.41-11.01,22.71-21.79,3.33-8.34,5.45-16.88,5.94-25.84,.52-9.6,1.57-19.46-.96-28.67-4.27-15.54-8.56-31.22-17.52-45.04-5.33-8.22-10.96-16.14-17.71-23.29-8.47-8.98-18.77-15.26-29.71-20.49-10.21-4.89-21.05-7.43-32.51-5.89-1.13,.15-2.09-.01-3.1-.35-5.92-1.99-11.92-1.39-17.94-.62-12.74,1.63-24.16,7.2-35.7,12.26-12.49,5.49-22.57,14.09-29.99,25.63-10.11,15.71-16.44,32.69-16.68,51.56-.1,7.81,.05,15.65,.47,23.45,1.08,19.82,3.56,39.24,14.46,56.69,4.99,7.99,10.84,14.93,18.37,20.49,5.37,3.97,11.49,5.67,18.09,4.9,2.38-.28,3.99,.02,5.63,1.79,4.96,5.37,10.97,8.74,18.28,10.21,8.51,1.71,14.99,6.62,17.96,14.96,.51,1.44,.89,2.91,1.33,4.37,2.13,.35,4.62,.72,7.33,1.03-.93-.64-1.56-1.66-1.92-3.38Z"/><path class="cls-9" d="M326.69,458.15c7.42,3.6,14.97,3.2,21.52,1.23,2.79-1.09,4.54-1.64,6.08-2.77,6.71-4.95,6.22-12.48-1.33-15.97-8.48-3.92-17.28-4.07-26.04-.88-4.41,1.6-6.72,5.16-6.85,9.72-.12,4.43,2.92,6.88,6.62,8.67Z"/><path class="cls-9" d="M236.11,445.16c-2.57,1.87-4.52,4.54-6.12,7.34-.92,1.61-1.1,3.75,.93,4.26,4.38,1.11,9.58,2.44,13.32,.41,8.07-4.39,15.4-10.14,23.58-15.7-12.19-6.16-22.27-3.17-31.71,3.7Z"/><path class="cls-9" d="M336.94,478.31c7.42,3.6,14.97,3.2,21.52,1.23,2.79-1.09,4.54-1.64,6.08-2.77,6.71-4.95,6.22-12.48-1.33-15.97-8.48-3.92-17.28-4.07-26.04-.88-4.41,1.6-6.72,5.16-6.85,9.72-.12,4.43,2.92,6.88,6.62,8.67Z"/><path class="cls-9" d="M246.35,465.32c-2.57,1.87-4.52,4.54-6.12,7.34-.92,1.61-1.1,3.75,.93,4.26,4.38,1.11,9.58,2.44,13.32,.41,8.07-4.39,15.4-10.14,23.58-15.7-12.19-6.16-22.27-3.17-31.71,3.7Z"/><path class="cls-6" d="M342.09,389.5c-5.59-7.74-12.55-14.11-19.32-20.72-2.34-2.28-4.83-4.19-7.77-5.59-3.14-1.49-3.65-1.48-3.65-1.48-.88-.55-6.83-1.43-6.83-1.43-.69,1.79,.59,4.44,4.1,5.81,7.95,3.1,13.17,9.35,18.95,14.97,9.09,8.84,16,19.43,20.93,30.91,5.44,12.67,5.97,26.29,3.31,39.87-1.5,7.69-3.52,15.24-9.75,20.74-3.44,3.03-6.5,6.4-9.42,9.93-2.26,2.72-4.57,5.66-8.23,6.5-6.47,1.47-12.48,4.27-18.75,6.29-15.56,5.02-30.89,3.4-45.61-2.79-19.27-8.11-31.6-24.44-44.88-39.53-1.85-2.1-1.51-3.9,.79-5.5,6.24-4.36,12.29-8.97,18.78-12.98,2.9-1.79,5.55-1.73,8.62-.42,10.76,4.6,21.87,8.08,33.53,9.55,2.92,.37,5.58,1.34,7.94,3.1,11.62,8.65,23.9,8.38,36.34,2.24,5.23-2.58,7.97-7.3,7.94-13.21-.03-5.58-2.82-9.41-7.89-11.97-8.44-4.26-17.2-4.51-26.23-3-7.13,1.19-12.31,5.02-14.39,11.97-1.36,4.53-3.77,5.44-7.91,4.3-9.78-2.69-19.68-5.03-28.85-9.57-4.86-2.41-9.83-4.52-15.08-5.96-14.11-3.87-30.78,2.91-38.12,15.58-3.98,6.87-1.12,12.65,6.87,13.08,5.01,.27,8.29,2.46,11.62,6.05,10.76,11.64,19.82,24.98,33.38,33.85,2.58,1.69,1.74,2.72-.63,3.68-7.18,2.9-14.9,3.1-22.38,4.22-16.71,2.52-32.83,1.57-46.24-10.66-1.24-1.13-2.82-1.87-4.16-2.91-11.78-9.12-18.95-20.71-18.24-36.03,.43-9.23,3.11-18.05,7.93-25.94,4.5-7.36,9.56-14.36,15.71-20.51,1.02-1.02,2.5-1.91,2.07-3.77-.78-.97-1.57-1.93-2.35-2.9-6.65,4.18-10.4,10.93-15.18,16.81-6.36,7.82-10.03,16.76-12.34,26.4-3.66,15.29-1.01,29.22,9.39,41.24,7.27,8.4,16.69,14.21,25.84,20.28,1.79,1.19,3.99,2.04,6.1,2.38,6.49,1.02,13.02,2.49,19.59,2.16,14.71-.74,29.33-2.38,43.06-8.28,1.93-.83,3.37-.61,5.2,.24,19.25,8.94,38.76,9.68,58.48,1.52,3.14-1.3,6.34-2.38,9.64-3.12,5.19-1.17,9.31-3.93,12.4-8.21,2.59-3.59,5.59-6.81,9.01-9.57,4.38-3.54,7.15-8.07,8.89-13.29,8.96-26.91,4.23-51.55-12.23-74.32Zm-49.83,37.99c8.76-3.18,17.56-3.04,26.04,.88,7.55,3.49,8.04,11.01,1.33,15.97-1.53,1.13-3.28,1.68-6.08,2.77-6.56,1.97-14.1,2.37-21.52-1.23-3.69-1.79-6.74-4.24-6.62-8.67,.13-4.56,2.43-8.12,6.85-9.72Zm-96.01,17c-2.03-.51-1.85-2.65-.93-4.26,1.6-2.79,3.55-5.46,6.12-7.34,9.44-6.87,19.52-9.86,31.71-3.7-8.18,5.56-15.51,11.31-23.58,15.7-3.74,2.04-8.94,.71-13.32-.41Z"/><path class="cls-5" d="M226.77,361.94s-6.39,15.53-25.77,20.82-29.74,18.84-29.74,18.84"/><path class="cls-5" d="M273.03,347.4s2.64,11.24,12.89,12.56c10.24,1.32,23.79,3.97,23.79,3.97"/><path class="cls-5" d="M225.34,358.87s12.01,13.97,46.7-6.18"/></g></g></g></svg>