<?xml version="1.0" encoding="UTF-8"?><svg id="_レイヤー_2" xmlns="http://www.w3.org/2000/svg" xmlns:xlink="http://www.w3.org/1999/xlink" viewBox="0 0 1200 500"><defs><style>.cls-1{fill:#fff;}.cls-2{fill:#040000;}.cls-3{fill:#f49c00;}.cls-4{clip-path:url(#clippath);}.cls-5,.cls-6,.cls-7{fill:none;}.cls-8{fill:#f3d4cf;}.cls-6{stroke-width:4px;}.cls-6,.cls-7{stroke:#040000;stroke-linecap:round;stroke-linejoin:round;}.cls-9{fill:#231815;}.cls-7{stroke-width:5px;}</style><clipPath id="clippath"><rect class="cls-5" width="1200" height="500"/></clipPath></defs><g id="_レイヤー_1-2"><g class="cls-4"><rect class="cls-1" width="1200" height="500"/><g><path class="cls-3" d="M728.36,181.28c-2.34-15.63-9.2-29.92-19.28-42.01-10.98-13.16-26.98-20.61-43.74-22.57-18.39-2.15-35.95,6.3-49.49,18.1-8.06,7.02-14.38,15.8-19.94,25-2.69-5.78-6.1-11.24-10.55-16.24-5.42-6.09-12.68-10.93-19.94-14.6-7.79-3.94-16.08-7.77-24.6-9.81-20.1-4.82-39.56,.57-57.33,10.22-8.81,4.78-16.25,11.07-21.97,19.31-4.66,6.71-7.42,14.85-9.59,22.68-2.5,8.99-4.46,17.96-5.49,27.25-1.05,9.46,.11,18.96,1.82,28.28,2.74,14.94,7.54,29.86,12.5,44.2,5.2,15.05,11.5,30.13,20.76,43.17,8.92,12.57,19.23,23.27,31.41,32.67,12.25,9.46,25.41,17.2,39.66,23.27,5.56,2.37,11.14,4.63,16.82,6.66,2.32,1.28,4.91,2.16,7.69,2.59,.21,.07,.42,.14,.63,.2,6.01,1.85,12.15,2.68,18.33,.87,2.38-.69,4.53-1.69,6.46-2.94,22.66-5.1,43.12-18.54,59.89-34.58,20.24-19.36,37.53-42.36,48.44-68.21,5.75-13.62,9.69-27.74,13.24-42.06,2.13-8.6,4.02-17.09,5.09-25.9,1.05-8.64,.46-16.95-.82-25.54Zm-143.89,98.49c2.25,.41,4.51,.82,6.72,1.39,.69,.18,1.71,.68,2.59,.93,.08,.08,.16,.17,.24,.25,0,0,0,.01,.01,.02,.41,.67,.76,1.37,1.14,2.06,.28,.83,.56,1.66,.8,2.51,.37,1.28,.67,2.56,.94,3.86,.03,.53,.05,1.06,.06,1.58-.45,.3-.91,.6-1.38,.84-.15,.08-.29,.15-.42,.22-1.17,.41-2.33,.83-3.52,1.2-1.3,.41-2.61,.82-3.94,1.19-3.39-1.47-6-2.44-8.97-3.06-.82-4.76-1.64-9.52-2.46-14.28,2.72,.47,5.47,.81,8.17,1.3Z"/><path class="cls-8" d="M592.39,286.02c-.55-.95-1.09-1.89-1.64-2.84-1.57-2.73-5.51-3.91-8.23-2.16-2.75,1.77-3.84,5.31-2.16,8.23,1.12,1.94,2.23,3.88,3.35,5.82,1.25,2.16,4.32,3.64,6.79,2.76,2.81-1,5.07-3.41,4.93-6.57-.1-2.11-1.27-4.17-3.05-5.25Z"/><path class="cls-9" d="M598.39,168.22c2.41-17.06-10.84-31.21-23.8-40.28-12.55-8.78-27.59-13.88-42.85-14.96-15.05-1.06-30.14,2.26-43.46,9.31-12.89,6.82-23.97,17.07-31.84,29.34-9.18,14.32-12.99,31.17-13.75,48.01-.76,16.73,1.1,33.67,5.01,49.94,3.83,15.98,9.81,31.48,17.63,45.93,7.73,14.27,17.39,27.54,28.6,39.28,10.83,11.33,23.15,21.29,36.44,29.58,13.24,8.26,27.55,14.87,42.42,19.6,1.87,.59,3.74,1.16,5.63,1.69,.87,.25,1.74,.51,2.62,.72,1.49,.36,2.73,.05,4.18-.32,3.71-.94,7.38-1.99,11.02-3.16,7.52-2.41,14.88-5.3,22.06-8.59,14.15-6.48,27.41-14.7,39.65-24.3,12.15-9.53,23.16-20.53,32.63-32.73,10.18-13.1,18.67-27.42,25.18-42.69,6.48-15.19,11.14-31.09,13.65-47.43,2.58-16.86,3.3-34.21,.84-51.13-2.31-15.89-8.56-30.85-19.88-42.41-10.05-10.26-23.32-17.59-37.41-20.48-14.42-2.96-29.12-1.15-42.46,5.03-12.81,5.94-23.83,15.85-31.26,27.83-3.63,5.85-6.39,12.3-8.08,18.97-.5,1.97,.64,4.08,2.63,4.62,1.93,.53,4.12-.65,4.62-2.63,3.24-12.79,10.47-23.87,20.6-32.55,4.7-4.03,10.52-7.62,16.57-10.34,5.19-2.33,12.68-4.21,18.3-4.68,13.43-1.13,26.52,2.26,37.99,9.14,11.39,6.83,20.69,16.93,25.88,29.47,6.3,15.25,7.04,32.38,6.25,48.66-.77,15.76-3.57,31.25-8.27,46.4-9.19,29.64-25.7,56.83-48.02,78.46-21.28,20.62-47.52,36.19-75.82,44.84-3.44,1.05-6.91,2-10.41,2.86h2c-28.53-7.55-55.08-22.21-76.67-42.31-22.39-20.85-39.04-47.4-48.28-76.5-4.74-14.92-7.55-30.2-8.28-45.75-.39-8.44-.26-16.95,.83-25.33,.51-3.92,1.27-7.81,2.25-11.63,.51-1.99,1.09-3.96,1.74-5.91,.33-.98,.67-1.95,1.03-2.91,.18-.48,.37-.96,.56-1.44,.1-.26,.21-.52,.31-.77,.18-.43,.21-.51,.11-.25,5.32-12.43,14.08-23.3,24.62-31.11,5.27-3.9,11.56-7.49,17.22-9.75,3.22-1.28,6.53-2.35,9.89-3.19,3.3-.82,6.57-1.4,9.62-1.7,14.13-1.41,28.43,1.1,41.05,7.14,6.37,3.05,12.28,6.87,17.41,11.42,5.42,4.8,10.63,10.66,13.01,17.42,1.12,3.19,1.67,6.47,1.24,9.55-.28,2.01,.49,4.04,2.63,4.62,1.76,.48,4.34-.6,4.62-2.63h0Z"/><path class="cls-9" d="M561.8,226.37c.65-1.04,1.31-2.07,1.96-3.11-1.97,.25-3.94,.51-5.9,.76,.06,.08,.13,.15,.19,.23-.2-.25-.39-.51-.59-.76,.24,.32,.45,.66,.61,1.02-.13-.3-.25-.6-.38-.9,.12,.29,.21,.6,.26,.91-.04-.33-.09-.67-.13-1,.02,.22,.03,.43,0,.65,.04-.33,.09-.67,.13-1-.03,.19-.07,.37-.14,.55,.13-.3,.25-.6,.38-.9-.07,.16-.16,.31-.27,.45,.2-.25,.39-.51,.59-.76-.11,.14-.24,.26-.37,.37,.25-.2,.51-.39,.76-.59-.14,.11-.29,.19-.45,.27,.3-.13,.6-.25,.9-.38-.14,.06-.28,.1-.43,.12,.33-.04,.67-.09,1-.13-.13,.02-.25,.02-.38,0,.33,.04,.67,.09,1,.13-.13-.02-.25-.05-.37-.1,.3,.13,.6,.25,.9,.38-.09-.04-.17-.09-.25-.15,.25,.2,.51,.39,.76,.59-.05-.05-.1-.09-.15-.15,.2,.25,.39,.51,.59,.76-.06-.08-.11-.16-.15-.25,.13,.3,.25,.6,.38,.9-.04-.11-.07-.21-.09-.33,.04,.33,.09,.67,.13,1-.02-.14-.02-.29,0-.43-.04,.33-.09,.67-.13,1,.02-.14,.06-.28,.11-.41-.13,.3-.25,.6-.38,.9,.05-.1,.1-.19,.16-.28-.2,.25-.39,.51-.59,.76,.05-.06,.1-.12,.16-.17-.25,.2-.51,.39-.76,.59,.06-.05,.13-.09,.2-.12-.3,.13-.6,.25-.9,.38,.06-.02,.12-.04,.19-.05-.33,.04-.67,.09-1,.13,.08-.01,.16,0,.25,0,.52,.02,1-.09,1.45-.32,.47-.15,.87-.41,1.21-.78,.37-.34,.63-.74,.78-1.21,.24-.45,.34-.93,.32-1.45-.04-.97-.36-1.98-1.1-2.66-.25-.2-.51-.39-.76-.59-.59-.34-1.22-.51-1.9-.51-.07,0-.14-.01-.21,0-.27,.01-.77,.08-1.04,.14-.03,0-.06,.01-.1,.02-.03,0-.06,.02-.09,.03-.25,.09-.7,.27-.93,.39-.2,.1-.37,.26-.54,.4-.17,.13-.35,.25-.49,.4-.12,.13-.28,.36-.34,.44-.08,.1-.24,.3-.34,.45-.24,.38-.4,.81-.54,1.23-.02,.06-.04,.12-.05,.19-.07,.37-.13,.77-.16,1.15-.04,.45,.07,.99,.14,1.39,.08,.43,.28,.84,.47,1.22,.19,.4,.49,.78,.79,1.07,.26,.25,.59,.5,.89,.7,.06,.04,.12,.07,.19,.11,.82,.42,1.4,.57,2.32,.63,.08,0,.16,0,.25,0,.4-.03,.83-.08,1.22-.17,.48-.11,.94-.33,1.37-.56,.89-.48,1.51-1.19,2.08-2.01,.59-.84,.79-1.88,.87-2.87,.04-.57-.07-1.16-.17-1.72-.05-.27-.13-.52-.24-.77-.22-.53-.42-1.07-.73-1.55-.31-.48-.67-.92-1.03-1.36-.47-.47-1.02-.79-1.66-.97-.5-.16-1-.18-1.5-.07-.5,.02-.97,.17-1.4,.45-.56,.33-1.01,.78-1.35,1.35-.65,1.04-1.31,2.07-1.96,3.11-.27,.43-.42,.9-.45,1.4-.11,.5-.09,1,.07,1.5,.12,.49,.34,.92,.67,1.28,.27,.41,.62,.73,1.05,.97,.87,.46,1.93,.69,2.9,.38,.95-.31,1.71-.87,2.25-1.73h0Z"/><path class="cls-9" d="M618.73,222.82c.1-1.19,.2-2.39,.31-3.58-1.89,1.08-3.77,2.16-5.66,3.25,.02,.02,.04,.03,.06,.05-.25-.2-.51-.39-.76-.59,.25,.2,.48,.42,.68,.67-.2-.25-.39-.51-.59-.76,.23,.3,.41,.62,.56,.96-.13-.3-.25-.6-.38-.9,.15,.37,.26,.76,.32,1.16-.04-.33-.09-.67-.13-1,.06,.43,.06,.85,0,1.28,.04-.33,.09-.67,.13-1-.05,.37-.15,.73-.29,1.08,.13-.3,.25-.6,.38-.9-.14,.32-.31,.62-.52,.89,.2-.25,.39-.51,.59-.76-.03,.04-.07,.08-.1,.12-.37,.34-.63,.74-.78,1.21-.24,.45-.34,.93-.32,1.45,0,.92,.41,2.02,1.1,2.66,.72,.66,1.66,1.15,2.66,1.1,.95-.04,2.02-.35,2.66-1.1,.81-.96,1.42-1.93,1.76-3.17,.16-.59,.23-1.22,.28-1.83,.03-.32,.02-.64-.02-.96-.15-1.29-.39-2.33-1.02-3.49-.61-1.13-1.48-1.92-2.48-2.67-.59-.34-1.22-.51-1.9-.51-.68,0-1.31,.17-1.9,.51-.56,.33-1.01,.78-1.35,1.35-.34,.59-.51,1.22-.51,1.9-.1,1.19-.2,2.39-.31,3.58-.08,.91,.48,2.03,1.1,2.66,.65,.65,1.72,1.14,2.66,1.1,.97-.04,1.98-.36,2.66-1.1,.2-.25,.39-.51,.59-.76,.34-.59,.51-1.22,.51-1.9h0Z"/><path class="cls-9" d="M557.23,220.13c-.29,.57-.58,1.14-.87,1.7-.27,.43-.42,.9-.45,1.4-.11,.5-.09,1,.07,1.5,.12,.49,.34,.92,.67,1.28,.27,.41,.62,.73,1.05,.97,.3,.13,.6,.25,.9,.38,.67,.18,1.33,.18,2,0,.3-.13,.6-.25,.9-.38,.56-.33,1.01-.78,1.35-1.35,.29-.57,.58-1.14,.87-1.7,.27-.43,.42-.9,.45-1.4,.11-.5,.09-1-.07-1.5-.12-.49-.34-.92-.67-1.28-.27-.41-.62-.73-1.05-.97-.3-.13-.6-.25-.9-.38-.67-.18-1.33-.18-2,0-.3,.13-.6,.25-.9,.38-.56,.33-1.01,.78-1.35,1.35h0Z"/><path class="cls-9" d="M543.75,196.1c5.68,1.67,11.73-.94,15.24-5.49,3.81-4.93,4.19-11.74,2.53-17.56-.54-1.89-2.68-3.25-4.62-2.63-1.92,.62-3.2,2.6-2.63,4.62,.17,.58,.32,1.17,.44,1.76,.06,.29,.16,.61,.16,.9,0-.5-.04-.38,0,.06,.12,1.16,.1,2.32,.02,3.48-.05,.74,.09-.42,0,.05-.06,.29-.1,.59-.17,.88-.12,.54-.26,1.07-.44,1.58-.04,.12-.35,1.09-.05,.22-.09,.28-.25,.55-.39,.81-.24,.46-.54,.89-.81,1.33-.24,.39,.48-.55,.03-.03-.17,.2-.34,.4-.53,.59-.34,.35-.7,.66-1.07,.98-.21,.17-.14,.11,.24-.18-.11,.08-.21,.15-.32,.23-.18,.12-.37,.24-.56,.35-.23,.14-.46,.26-.69,.38-.12,.06-.23,.12-.35,.17-.26,.12-.16,.08,.3-.12-.27,.25-1,.35-1.36,.44-.25,.06-.51,.1-.76,.16-.47,.11,.82-.05,.11-.02-.26,.01-.51,.03-.77,.03-.15,0-.64-.09-.77-.04,.16,.02,.33,.05,.49,.07-.17-.03-.34-.06-.51-.09-.26-.05-.51-.12-.76-.2-1.89-.56-4.18,.67-4.62,2.63-.46,2.02,.61,4.03,2.63,4.62h0Z"/><path class="cls-9" d="M620.5,172.91c-1.4,6.38-.35,13.18,3.02,18.8,3.35,5.6,10.67,12.05,17.5,7.97,1.69-1.01,2.46-3.42,1.35-5.14-1.09-1.7-3.34-2.43-5.14-1.35-.15,.1-.32,.19-.48,.27,.45-.18,.54-.22,.27-.14-.13,.04-.25,.08-.38,.1-.42,.08-.35,.07,.22-.03-.02,.05-.78,0-.8-.01,.51,.08,.61,.09,.33,.04-.14-.02-.27-.05-.4-.09-.32-.08-.62-.2-.94-.3-.26-.1-.18-.07,.24,.1-.17-.08-.35-.17-.52-.26-.47-.25-1.1-.55-1.47-.95,.59,.64,.04,0-.12-.14-.25-.22-.48-.45-.72-.69-.43-.44-.83-.91-1.24-1.37-.56-.64,.34,.5-.11-.14-.19-.27-.39-.54-.57-.82-.34-.51-.66-1.04-.96-1.58-.27-.5-.51-1.01-.76-1.53-.33-.69,.24,.64-.11-.29-.12-.31-.23-.62-.34-.94-.39-1.18-.66-2.38-.87-3.6-.14-.79,.06,.74-.01-.13-.02-.28-.05-.57-.07-.85-.04-.66-.05-1.33-.03-1.99,.02-.57,.06-1.14,.12-1.7,.09-.87-.14,.66,.02-.13,.08-.37,.14-.75,.22-1.12,.42-1.92-.58-4.16-2.63-4.62-1.9-.43-4.17,.57-4.62,2.63h0Z"/><path class="cls-9" d="M590.63,245.05v-.54c0-1.97-1.73-3.85-3.76-3.76-2.04,.09-3.76,1.65-3.76,3.76v1.08c0,1.97,1.73,3.85,3.76,3.76,2.04-.09,3.76-1.65,3.76-3.76v-.54c0-1.97-1.73-3.85-3.76-3.76-2.04,.09-3.76,1.65-3.76,3.76v.54c0,1.97,1.73,3.85,3.76,3.76,2.04-.09,3.76-1.65,3.76-3.76v-1.08c0-1.97-1.73-3.85-3.76-3.76-2.04,.09-3.76,1.65-3.76,3.76v.54c0,1.97,1.73,3.85,3.76,3.76,2.04-.09,3.76-1.65,3.76-3.76h0Z"/><path class="cls-9" d="M576.52,272.31c-1.98,2.22-3.96,4.44-5.94,6.66-1.26,1.41-1.48,3.4-.29,4.94,1.05,1.36,3.33,2.08,4.85,.97,.6-.44,1.23-.83,1.91-1.16l.22-.11c.37-.17,.3-.14-.22,.09,0-.02,.49-.18,.46-.17,.39-.14,.78-.25,1.18-.35,.1-.03,1.19-.18,1.21-.24-.02,.04-.97,.09-.26,.04,.17-.01,.33-.03,.5-.04,.83-.05,1.66-.01,2.49,.06,.83,.07-.65-.17-.14-.01,.19,.06,.41,.07,.61,.12,.32,.07,.65,.15,.97,.24,.4,.11,.79,.26,1.18,.39,.54,.19-.17-.12-.21-.1,.08-.04,.56,.26,.67,.32,.33,.17,1.81,.8,1.89,1.17-.05-.25-.56-.49-.09-.05,.15,.14,.31,.27,.46,.41,.3,.29,.57,.6,.85,.9,.56,.6-.31-.5,0,0,.14,.22,.3,.43,.44,.65,.22,.36,.41,.73,.6,1.1,.45,.85-.1-.45,.04,.11,.06,.25,.17,.49,.24,.74,.05,.2,.1,.4,.14,.6,.22,.92,.02-.72,.02,.22,0,.26,.02,.51,0,.77,0,.05,0,.1,0,.15-.04,.44-.03,.41,.02-.08,.05,.15-.17,.97-.29,1.06,.06-.14,.12-.28,.17-.41-.06,.12-.12,.24-.18,.35-.06,.1-.24,.54-.35,.56,0,0,.61-.68,.1-.14-.18,.19-.36,.38-.55,.56-.54,.52,.15-.11,.15-.1-.02,.12-.57,.34-.66,.4-.43,.26-.1-.17,.19-.07-.03-.01-.42,.12-.49,.14-.76,.27,.6,.02,.11,0-.1,0-.6,.07-.65,0-.03-.05,.96,.24,.21,0-.13-.03-.26-.07-.38-.11-.27-.09-.17-.05,.28,.13-.03-.06-1.27-.76-.75-.41,.49,.34-.19-.19-.24-.23-.13-.13-.26-.26-.39-.39-.03-.03-.61-.72-.24-.25,.37,.47-.17-.26-.19-.29-.25-.38-.48-.78-.68-1.19-.09-.18-.17-.37-.26-.55,.36,.8,0-.05-.06-.23-.2-.57-.36-1.16-.48-1.76-.04-.2-.08-.4-.11-.6-.18-.99,.04,.79-.02-.21-.03-.51-.06-1.01-.05-1.52,0-.25,.01-.51,.03-.76,0-.11,.11-1.11,.04-.56-.08,.61,.07-.37,.08-.4,.06-.3,.12-.59,.2-.89,.13-.49,.3-.97,.45-1.45,.29-.92-.24,.44,.03-.08,.16-.32,.31-.64,.48-.95,.93-1.73,.49-4.17-1.35-5.14-1.75-.92-4.15-.5-5.14,1.35-2.58,4.8-3.12,10.71-1.07,15.81,1.07,2.66,2.63,5.02,5.03,6.66,2.26,1.54,5.28,2.02,7.87,1.06,2.92-1.09,5.1-3.39,6.15-6.31,1.03-2.89,.52-6.05-.67-8.79-1.92-4.39-6-7.53-10.55-8.83-4.87-1.39-10.59-.72-14.73,2.31,1.52,1.97,3.04,3.94,4.55,5.9,1.98-2.22,3.96-4.44,5.94-6.66,1.31-1.47,1.55-3.89,0-5.32-1.43-1.31-3.92-1.57-5.32,0h0Z"/><path class="cls-9" d="M486.53,356.8c-.04,.09-.45,1.14-.24,.62,.2-.51-.23,.52-.27,.61-.24,.53-.49,1.05-.75,1.57-.56,1.12-1.17,2.22-1.83,3.28-.66,1.07-1.36,2.11-2.11,3.11-.22,.29-.47,.68-.12,.16-.19,.28-.42,.53-.63,.79-.4,.48-.81,.96-1.23,1.43-1.62,1.81-3.45,3.8-5.48,5.14,.53-.35,.14-.1-.16,.12-.23,.17-.47,.34-.7,.51-.55,.39-1.11,.77-1.68,1.14-1.05,.68-2.14,1.31-3.25,1.89-1.74,.92-2.42,3.49-1.35,5.14,1.14,1.77,3.28,2.33,5.14,1.35,10.07-5.33,17.78-14.3,21.9-24.87,.72-1.84-.79-4.2-2.63-4.62-2.16-.49-3.86,.66-4.62,2.63h0Z"/><path class="cls-9" d="M494.56,368.68c-.73,1.27-1.51,2.51-2.34,3.71-.45,.64-.91,1.27-1.38,1.89,.56-.74-.11,.13-.23,.27-.21,.27-.43,.53-.65,.79-1.89,2.24-3.97,4.32-6.21,6.2-.3,.25-.6,.5-.9,.74-.27,.22-.67,.53-.16,.14-.62,.48-1.25,.94-1.89,1.38-1.2,.84-2.44,1.62-3.7,2.36-1.27,.73-2.57,1.41-3.89,2.03-.27,.12-.53,.25-.8,.36-.18,.08-.36,.16-.54,.24,.45-.19,.48-.2,.09-.04-.73,.29-1.45,.57-2.19,.84-1.85,.66-3.28,2.59-2.63,4.62,.59,1.82,2.64,3.34,4.62,2.63,12.27-4.41,22.79-13.05,29.29-24.37,.98-1.71,.46-4.19-1.35-5.14-1.79-.95-4.1-.47-5.14,1.35h0Z"/><path class="cls-9" d="M461.15,365.43c-1.99-5.6-8.08-8.2-13.68-6.73-5.09,1.34-9.38,5.58-11.81,10.12-2.4,4.49-3.42,9.8-2.12,14.79,1.15,4.39,4.29,8.22,8.43,10.11,4.56,2.08,10.27,2.43,14.45-.78,1.5-1.16,2.33-2.82,1.54-4.69-.74-1.74-2.59-2.62-4.43-2.18-6.8,1.65-9.82,8.76-11.52,14.85-.89,3.2-1.31,6.73,0,9.86,1.82,4.31,6.72,5.63,10.95,4.3,3.98-1.25,7.52-4.18,9.22-8.02,.78-1.75,.63-4.16-1.35-5.14-1.84-.91-3.77-.92-5.56,.14-1.82,1.07-2.72,3-2.93,5.03-.23,2.3,.38,4.83,.9,7.07,.99,4.27,2.75,8.62,5.85,11.8,3.62,3.71,8.93,5.09,13.92,3.71,5.25-1.45,9.57-5.3,12.73-9.59,1.64-2.24,2.98-4.86,3.6-7.57,.77-3.32,.46-6.47-.91-9.58-.8-1.81-3.57-2.36-5.14-1.35-1.87,1.21-2.2,3.21-1.35,5.14-.38-.87,.14,.51,.19,.73,.05,.18,.08,.37,.12,.55,.21,.88,0-.59,0-.02,0,.42,.04,.84,.03,1.27,0,.24-.04,.47-.05,.71-.03,.29-.02,.19,.04-.29-.02,.14-.05,.28-.08,.42-.17,.86-.37,1.88-.8,2.65,.06-.11,.34-.71,.02-.08-.11,.22-.21,.45-.33,.67-.25,.49-.52,.97-.82,1.44-.24,.39-.49,.76-.75,1.13-.15,.21-.29,.41-.44,.61,.08-.11,.48-.58,.03-.05-.64,.77-1.31,1.51-2.03,2.21-.37,.36-.75,.7-1.14,1.03-.16,.13-.32,.26-.48,.39,.55-.48,.16-.12,.03-.02-.83,.59-1.68,1.15-2.59,1.62-.27,.14-.54,.27-.82,.39,.12-.06,.72-.27,.07-.04-.42,.15-.84,.29-1.27,.4-.24,.06-.48,.11-.71,.17-.68,.17,.01,.03,.13,0-.5,.11-1.09,.09-1.6,.07-.23,0-.52,.02-.73-.05,.78,.24,.32,.05,.12,0-.41-.11-.83-.19-1.23-.33-.06-.02-.43-.18-.45-.17,.19-.13,.76,.39,.14,.04-.38-.21-.75-.4-1.11-.64-.06-.04-.35-.27-.38-.27,.27-.05,.62,.54,.12,.08-.26-.24-.52-.47-.77-.72-.05-.05-.78-.89-.79-.88,.02-.01,.55,.77,.15,.19-.14-.2-.28-.39-.41-.59-.41-.62-.78-1.26-1.11-1.92-.19-.38-.34-.77-.53-1.14,.49,.93-.08-.23-.18-.53-.64-1.78-1.1-3.63-1.43-5.49-.07-.42-.14-.83-.2-1.25-.15-.9,.09,1.01,0-.05-.03-.32-.07-.63-.08-.95,0-.15-.04-.51,.01-.63-.07,.44-.06,.52,0,.24,.09-.28,.05-.2-.1,.25-.05,.1-.86,.77-.56,.6,.25-.14,.13-.09-.35,.15-.61,.17-1.2,.1-1.78-.23-.45-1.71-.9-3.43-1.35-5.14-.24,.55-.52,1.08-.84,1.59-.1,.16-.21,.3-.31,.46-.23,.37,.15-.23,.17-.21,.04,.05-.68,.77-.74,.83-.19,.2-.4,.39-.6,.57-.12,.1-.28,.27-.42,.36,.02,0,.57-.39,.21-.17-.55,.33-1.11,.66-1.67,.98-.46,.26,.63-.22,.14-.05-.13,.04-.26,.1-.39,.14-.32,.11-.65,.2-.98,.28-.09,.02-.37,.13-.46,.09,0,0,.7-.02,.23-.04-.19,0-.43-.02-.62,.01-.46,.07,.53,.16,.09,.03-.14-.04-.3-.08-.44-.11,.15,.03,.65,.39,.06,.02-.08-.05-.21-.16-.3-.19-.36-.11,.33,.14,.31,.24,0-.03-.35-.31-.31-.31,.05,0,.41,.66,.26,.33-.04-.09-.12-.2-.17-.28-.37-.51,.16,.6,.06,.2-.06-.22-.14-.43-.2-.65-.04-.15-.05-.31-.09-.45-.11-.38,.08,.39,.06,.42,.06-.06-.04-.62-.04-.72,0-.33,0-.66,.03-.99,.01-.18,.11-1.09,.04-.51-.07,.62,.08-.38,.1-.5,.11-.57,.25-1.14,.41-1.7,.32-1.16,.69-2.31,1.11-3.44,.09-.25,.19-.49,.28-.74,.24-.64-.31,.67,.08-.19,.25-.55,.52-1.1,.81-1.63,.33-.6,.72-1.14,1.09-1.71,.23-.35-.2,.29-.21,.27-.01-.04,.28-.33,.32-.37,.21-.24,.44-.47,.67-.7,.09-.08,.18-.16,.27-.24,.6-.55-.07,.11-.11,.07,0,0,.76-.48,.81-.51,.1-.05,.24-.1,.32-.17,.32-.26-.64,.2-.23,.09,.36-.1,.7-.23,1.07-.32-.97-2.29-1.93-4.58-2.9-6.87-.31,.24-.62,.46-.96,.66-.16,.1-.34,.18-.5,.27-.46,.27-.37-.09,.18-.06-.25-.01-.72,.25-.96,.32-.18,.05-.36,.09-.55,.13-.11,.02-.22,.04-.33,.06-.29,.05-.15,.03,.44-.06-.32-.06-.8,.06-1.13,.06-.31,0-.87-.16-1.14-.06,.06-.02,.96,.17,.31,.04-.19-.04-.38-.07-.57-.11-.42-.09-.83-.2-1.24-.34-.15-.05-.29-.11-.44-.15-.79-.25,.78,.39,.03,.02-.32-.16-.64-.31-.95-.48-.31-.17-.61-.36-.91-.56-.08-.06-.49-.42-.58-.41,.23-.03,.64,.53,.03,0-.26-.23-.52-.48-.76-.73-.16-.17-.49-.74-.69-.8,.1,.13,.2,.26,.3,.39-.09-.13-.18-.25-.27-.39-.09-.13-.17-.26-.25-.4-.1-.17-.2-.34-.29-.51-.1-.19-.57-.96-.1-.14-.39-.67-.56-1.64-.71-2.39-.01-.06-.16-.96-.07-.32,.09,.64-.02-.26-.02-.32-.04-.51-.05-1.01-.04-1.52,.01-.42,.05-.83,.08-1.25,.07-.95-.18,.82,.02-.11,.04-.18,.07-.37,.1-.55,.19-.92,.46-1.83,.79-2.7,.08-.21,.25-1.04,.05-.15,.03-.16,.18-.38,.24-.52,.21-.43,.43-.85,.66-1.26,.24-.41,.49-.81,.75-1.21,.11-.16,.21-.31,.32-.47,.11-.15,.22-.31,.34-.46-.08,.1-.16,.21-.24,.31,.4-.78,1.35-1.53,1.98-2.11,.15-.14,.3-.27,.45-.4,0,0,.79-.61,.33-.28-.46,.34,.35-.24,.35-.24,.25-.17,.5-.33,.76-.48,.22-.13,.44-.25,.66-.36,.13-.07,.27-.14,.4-.2-.44,.18-.47,.19-.07,.03,.47-.16,.94-.29,1.42-.42,.91-.24-.55,0,.03-.03,.31-.02,.62-.05,.93-.04,.12,0,.43,.06,.52,.03-.57-.09-.64-.1-.22-.03,.09,.02,.17,.03,.26,.05,.26,.06,.51,.12,.76,.2l.25,.08c.38,.15,.33,.12-.18-.08,.17,.26,1.04,.32,1.11,.65-.12-.09-.24-.18-.36-.28,.13,.11,.26,.22,.38,.34,.14,.13,.48,.38,.51,.56-.06-.32-.34-.54-.15-.14,.09,.14,.17,.29,.25,.44-.2-.51-.23-.57-.09-.19,.66,1.85,2.59,3.28,4.62,2.63,1.82-.59,3.33-2.64,2.63-4.62h0Z"/><path class="cls-9" d="M563.62,222.37v-1.71c.02-.52-.09-1-.32-1.45-.15-.47-.41-.87-.78-1.21-.34-.37-.74-.63-1.21-.78-.45-.24-.93-.34-1.45-.32-.33,.04-.67,.09-1,.13-.64,.18-1.19,.5-1.66,.97-.2,.25-.39,.51-.59,.76-.34,.59-.51,1.22-.51,1.9v1.71c-.02,.52,.09,1,.32,1.45,.15,.47,.41,.87,.78,1.21,.34,.37,.74,.63,1.21,.78,.45,.24,.93,.34,1.45,.32,.33-.04,.67-.09,1-.13,.64-.18,1.19-.5,1.66-.97,.2-.25,.39-.51,.59-.76,.34-.59,.51-1.22,.51-1.9h0Z"/><path class="cls-9" d="M557.2,219.71c-.28,.28-.57,.57-.85,.85-.37,.34-.63,.74-.78,1.21-.24,.45-.34,.93-.32,1.45-.02,.52,.09,1,.32,1.45,.15,.47,.41,.87,.78,1.21,.25,.2,.51,.39,.76,.59,.59,.34,1.22,.51,1.9,.51,.33-.04,.67-.09,1-.13,.64-.18,1.19-.5,1.66-.97,.28-.28,.57-.57,.85-.85,.37-.34,.63-.74,.78-1.21,.24-.45,.34-.93,.32-1.45,.02-.52-.09-1-.32-1.45-.15-.47-.41-.87-.78-1.21-.25-.2-.51-.39-.76-.59-.59-.34-1.22-.51-1.9-.51-.33,.04-.67,.09-1,.13-.64,.18-1.19,.5-1.66,.97h0Z"/><path class="cls-9" d="M562.76,222.37v-.53c0-1.97-1.73-3.85-3.76-3.76-2.04,.09-3.76,1.65-3.76,3.76v.53c0,1.97,1.73,3.85,3.76,3.76,2.04-.09,3.76-1.65,3.76-3.76v-.53c0-1.97-1.73-3.85-3.76-3.76-2.04,.09-3.76,1.65-3.76,3.76v.53c0,1.97,1.73,3.85,3.76,3.76,2.04-.09,3.76-1.65,3.76-3.76h0Z"/><path class="cls-9" d="M618.19,222.22c-.03-.08-.04-.15-.05-.23,.04,.33,.09,.67,.13,1-.01-.11-.01-.21,0-.32-.04,.33-.09,.67-.13,1,.02-.12,.05-.24,.1-.35-.13,.3-.25,.6-.38,.9,.05-.11,.11-.22,.19-.32-.2,.25-.39,.51-.59,.76,.07-.08,.14-.16,.23-.23-.25,.2-.51,.39-.76,.59,.09-.07,.18-.12,.28-.16-.3,.13-.6,.25-.9,.38,.04-.02,.08-.03,.12-.04,.49-.12,.92-.34,1.28-.67,.41-.26,.73-.62,.97-1.05,.27-.43,.42-.9,.45-1.4,.11-.5,.09-1-.07-1.5-.13-.3-.25-.6-.38-.9-.33-.56-.78-1.01-1.35-1.35-.3-.13-.6-.25-.9-.38-.67-.18-1.33-.18-2,0-.39,.12-.78,.28-1.14,.48-.04,.02-.07,.04-.11,.07-.15,.1-.3,.23-.43,.33-.13,.1-.29,.21-.42,.33-.07,.06-.13,.12-.19,.19-.18,.22-.55,.64-.73,.98,0,.02-.02,.04-.03,.06-.14,.3-.27,.63-.4,.94-.02,.04-.03,.09-.05,.13-.01,.04-.03,.09-.03,.14-.07,.36-.11,.74-.15,1.11,0,.09-.01,.18,0,.28,.03,.32,.09,.72,.14,1.04,0,.02,0,.04,.01,.06,.01,.05,.02,.1,.04,.15,.12,.49,.34,.92,.67,1.28,.27,.41,.62,.73,1.05,.97,.43,.27,.9,.42,1.4,.45,.5,.11,1,.09,1.5-.07,.3-.13,.6-.25,.9-.38,.56-.33,1.01-.78,1.35-1.35,.13-.3,.25-.6,.38-.9,.18-.67,.18-1.33,0-2h0Z"/><path class="cls-9" d="M613.52,225.22s.06,.02,.09,.03c-.3-.13-.6-.25-.9-.38,.15,.06,.28,.14,.41,.24-.25-.2-.51-.39-.76-.59,.12,.1,.23,.21,.33,.34-.2-.25-.39-.51-.59-.76,.11,.14,.19,.29,.26,.45-.13-.3-.25-.6-.38-.9,.08,.19,.14,.39,.16,.6-.04-.33-.09-.67-.13-1,.02,.18,.02,.35,0,.52,.04-.33,.09-.67,.13-1-.02,.17-.07,.34-.13,.5,.13-.3,.25-.6,.38-.9-.06,.13-.13,.25-.22,.37,2.29,.3,4.58,.6,6.87,.9-.02-.11-.04-.22-.06-.32,.04,.33,.09,.67,.13,1-.06-.46-.06-.92,0-1.38-.04,.33-.09,.67-.13,1,.06-.48,.19-.95,.38-1.39-.13,.3-.25,.6-.38,.9,.14-.32,.31-.63,.51-.92,.27-.43,.42-.9,.45-1.4,.11-.5,.09-1-.07-1.5-.12-.49-.34-.92-.67-1.28-.26-.41-.62-.73-1.05-.97-.87-.46-1.93-.69-2.9-.38-.3,.13-.6,.25-.9,.38-.56,.33-1.01,.78-1.35,1.35-.29,.43-.49,.89-.7,1.37-.21,.49-.4,.96-.51,1.49-.1,.48-.15,.97-.2,1.45-.02,.19-.03,.37-.03,.56,0,.18,0,.35,.03,.53,.05,.51,.11,1.02,.21,1.52,.13,.3,.25,.6,.38,.9,.2,.25,.39,.51,.59,.76l.76,.59c.43,.27,.9,.42,1.4,.45,.33,.09,.67,.09,1,0,.34,0,.66-.09,.95-.26,.32-.09,.59-.25,.83-.48,.41-.26,.73-.62,.97-1.05,.28-.37,.45-.89,.61-1.29,.06-.16,.1-.31,.13-.48,.07-.47,.18-.97,.14-1.45-.03-.39-.09-.8-.16-1.19-.02-.09-.04-.17-.06-.26-.3-.98-.73-1.67-1.39-2.43-.06-.07-.12-.13-.18-.19-.28-.25-.6-.49-.91-.71-.06-.05-.13-.09-.2-.12-.36-.18-.74-.34-1.12-.47-.5-.16-1-.18-1.5-.07-.5,.02-.97,.17-1.4,.45-.44,.24-.79,.56-1.05,.97-.33,.36-.56,.79-.67,1.28-.04,.33-.09,.67-.13,1,0,.68,.17,1.31,.51,1.9,.2,.25,.39,.51,.59,.76,.47,.47,1.02,.79,1.66,.97h0Z"/></g><g><path class="cls-9" d="M882.12,324.52c-1.42-1.64-3.33-1-5.05-1.01-8.06-.06-16.12,.03-24.18-.05-2.26-.02-5.12,.28-5.7-2.73-.49-2.52,1.84-3.84,3.69-4.75,4.17-2.05,8.38-4.15,12.79-5.53,8.11-2.53,12.27-7.37,13.84-16.08,2.4-13.36,6.4-26.42,11.83-38.96,2.87-6.63,6.45-12.76,11.29-18.15,1.67-1.86,3.33-3.76,4.76-5.81,2.13-3.04,5.12-4.52,8.63-4.77,12.49-.91,24.96-2.1,37.53-1.3,15.98,1.02,31.56,4.16,46.99,8.18,6.2,1.62,12.61,2.48,18.38,5.72,9.78,5.48,16.34,12.81,17.5,24.59,.86,8.73,.89,17.49,1.61,26.22,.72,8.74,.31,8.75,8.47,12.62,3.07,1.46,6.08,3.04,9.09,4.62,.94,.49,1.92,1.08,1.9,2.36-.03,1.67-1.38,2.02-2.58,2.21-4.06,.65-8.14,1.15-12.2,1.75-3.01,.44-6,.93-9.01,1.4-1.43,1.49-3.23,2.11-5.25,2.22-18.88,1.23-37.83,1.29-56.69,2.55-17.09,1.15-34.19,2.17-51.27,3.64-10.1,.87-20.29,1.63-30.47,1.48-2.05-.36-4.01,.59-6.05,.42-.02,0-.04-.23-.02-.34,.03-.16,.1-.32,.16-.48Z"/><path class="cls-9" d="M767.57,384.09c-.18-14.72,2.66-26.76,4.76-38.91,4.37-25.26,12.95-49.47,18.7-74.38,1.4-6.09,3.36-12.05,5.22-18.02,1.46-4.69,2.62-5.35,7.49-4.56,2.64,.43,5.27,1.02,7.86,1.7,4.49,1.19,8.93,2.49,13.63,2.8,4.91,.32,9.32,2.38,13.6,4.67,3.86,2.07,4.13,2.43,3.23,6.73-2.95,14.18-5.69,28.41-9.55,42.38-2.53,9.15-4.43,18.4-6.1,27.74-1.51,8.44-3.21,16.89-5.52,25.14-3.16,11.35-1.19,21.98,3.36,32.37,2.58,5.9,5.95,11.4,9.35,16.89,6.42,10.36,16.06,17.19,25.83,23.86,5.58,3.81,11.08,8.02,18.48,7.66,1.51-.07,2.86,.84,2.68,2.66-.18,1.84-1.62,2.13-3.17,2.08-4.18-.14-8.14-1.12-11.78-3.21-9.03-5.2-17.3-11.46-25.26-18.14-4.29-3.6-7.49-8.21-10.48-12.87-6.99-10.89-13.31-22.1-14.64-35.35-.39-3.92-.57-7.81,.35-11.73,5.27-22.62,9.01-45.58,15.14-68.03,2.59-9.47,4.33-19.18,6.39-28.8,.98-4.57,.76-4.92-3.55-6.95-1.61-.76-3.27-1.67-4.99-1.9-7.28-.98-14.37-2.83-21.51-4.44-6.37-1.43-6.36-1.2-8.07,5.31-3.45,13.14-6.68,26.35-10.53,39.37-5.13,17.34-9.54,34.85-12.75,52.63-1.93,10.71-4.06,21.4-3.85,32.43,.36,19.53,3.2,38.46,12.07,56.13,3.63,7.22,7.84,14,13.4,19.98,7.92,8.52,15.49,17.35,23.29,25.98,7.07,7.82,13.83,15.99,22.92,21.7,1.43,.9,2.74,2.07,1.54,3.92-1.4,2.14-3.1,1.12-4.61,.06-3.4-2.36-6.31-5.29-9.25-8.16-11.68-11.38-22.11-23.91-32.98-36.04-3.58-3.99-7.4-7.77-10.44-12.25-9.94-14.61-15.93-30.84-18.8-48.11-1.34-8.07-1.1-16.4-1.44-22.35Z"/><path class="cls-9" d="M1057.07,252.54c1.96,8.4,4.67,15.8,7.32,23.2,3.28,9.14,4.66,18.73,7.06,28.07,5.42,21.01,6.48,42.38,5.55,63.9-.41,9.5-2.69,18.77-5.5,27.83-1.69,5.45-3.98,10.73-6.2,16.01-3.22,7.64-8.54,14.03-13.08,20.86-2.96,4.45-7.57,7.58-12.44,10.01-4.16,2.08-8.34,4.11-12.54,6.1-1.53,.72-3.28,1.17-4.1-.86-.82-2.05,.84-2.82,2.38-3.45,.82-.34,1.68-.6,2.51-.94,4.14-1.7,8.21-3.58,12.03-5.92,5.11-3.14,9.62-6.96,12.23-12.48,2.17-4.59,6.08-7.99,8.21-12.55,3.65-7.79,6.82-15.77,8.91-24.13,4.67-18.63,4.69-37.35,2.81-56.45-1.38-14-4.85-27.46-7.65-41.06-2.58-12.55-6.76-24.82-12.34-36.48-1.24-2.59-.45-5.03,2.66-5.72,6.32-1.4,12.22-4.07,18.46-5.58,3.63-.88,7.23-1.93,10.95-2.56,2.94-.5,5.68,.28,8.51,.24,1.58-.02,2.61,1.15,3.42,2.33,1.01,1.47,2.04,2.98,2.71,4.62,6.5,16.1,12.35,32.41,16.15,49.39,2.97,13.27,4.91,26.76,6.51,40.19,3.94,33.13,3.16,66.14-8.04,98.09-7.69,21.94-18.21,42.29-33.95,59.8-6.57,7.31-13.39,14.4-19.78,21.88-1.02,1.2-2.1,2.13-3.6,.97-1.42-1.09-1.11-2.59-.24-3.83,.71-1.01,1.71-1.81,2.61-2.68,16.69-16.15,31.63-33.69,41.6-54.88,12.42-26.39,19.47-54.05,19.09-83.46-.17-13.07-.25-26.15-2.49-39.02-1.8-10.39-2.91-20.86-4.9-31.23-2.63-13.78-6.85-27.01-11.64-40.12-1.54-4.2-3.14-8.37-4.79-12.53-1.9-4.79-3-5.42-8.01-5.18-5.04,.25-9.92,1.43-14.72,2.8-5.13,1.46-10.04,3.67-15.68,4.83Z"/><path class="cls-2" d="M1027.4,315.75c1.43-.24,2.87-.47,4.3-.71-1.51,8.66,.1,17.52-1.69,26.17-.56,2.69-.2,4.97,3.13,5.5,.17,.03,.34,.12,.5,.19,14.49,6.92,17.32,13.34,14.25,30.49-1.18,6.61-6.79,10.22-12.85,12.62-1.15,.46-2.42,.62-3.63,.95-5.65,1.56-5.41,1.6-6.28,7.26-2.56,16.59-4.87,33.23-10.38,49.21-2.88,8.35-8.46,13.86-16.65,16.92-11.9,4.46-24.4,5.34-36.89,6.15-15.23,.99-30.47,.31-45.48-2.19-14.8-2.47-26.72-10.5-29.37-26.89-1.83-11.32-2.14-22.76-2.92-34.16-.1-1.43-.1-2.86-.09-4.29,.01-2.26-.8-3.53-3.29-3.96-3.72-.64-7.03-2.55-10.44-4.12-3.42-1.57-5.9-4.11-6.9-7.78-1.16-4.29-3.31-8.36-3.19-12.94,.3-12.09,6.12-22.98,18.69-27.17,4.08-1.36,3.92-1.56,4-5.9,.11-5.52-1.56-11.03-.11-16.57,1.42-1.3,3.09-.85,4.72-.68,2.75,8.01,1.49,16.18,.71,24.28-.23,2.38-2.69,3.27-4.87,3.61-15.22,2.34-20.33,19.75-14.48,32.69,2.14,4.74,6.27,6.63,10.89,7.89,9.51,2.59,9.95,3.52,10.33,13.29,.41,10.53,.89,21.05,2.38,31.53,2.25,15.8,12.04,23.47,27.24,25.57,20.52,2.82,41.01,2.9,61.51-.08,4.62-.67,9.19-1.63,13.64-2.92,7.13-2.06,12.28-6.56,14.7-13.71,5.36-15.85,8.28-32.21,9.65-48.85,.54-6.54,2.86-9.77,9.14-11.59,.69-.2,1.39-.33,2.09-.5,5.94-1.4,11.1-4.19,12.09-10.65,1.12-7.34,1.32-14.85-6.37-19.56-1.53-.94-3.01-1.93-4.66-2.64-6.6-2.85-7.56-3.99-6.7-10.83,.78-6.25,.87-12.49,.91-18.75,.02-2.56,.34-5.02,2.36-6.89Z"/><path class="cls-2" d="M1072.14,190.05c-2.94,4.06-4.82,7.99-4.74,12.67,0,.54,0,1.07-.02,1.61-.06,1.33-.38,2.54-1.95,2.75-1.23,.16-1.98-.58-2.49-1.62-1.5-3.04-3.24-5.95-4.34-9.2-.63-1.88-1.14-4.09-3.75-5.18-1.15,5.01,.11,9.46,.96,13.93,.38,2,2.08,4.55-.57,5.71-2.93,1.29-3.69-1.9-4.99-3.64-2.97-3.96-5.57-8.23-9.84-11.73-1.78,3.75-.25,6.66,1,9.4,2.15,4.71,4.65,9.25,7.02,13.86,.49,.95,1.21,1.81,1.54,2.81,.56,1.71-.16,3.16-1.42,4.32-1.14,1.04-2.35,.53-3.48-.06-2.37-1.24-4.67-2.63-7.09-3.76-2.28-1.07-5.29-2.29-6.91-.04-1.65,2.29,.63,4.82,2.23,6.63,3.08,3.48,6.5,6.64,10.61,8.96,1.7,.97,3.33,2.09,4.9,3.26,.9,.67,1.43,1.65,.68,2.78-.81,1.23-1.94,1.61-3.22,.79-2.7-1.74-5.46-3.43-8.01-5.38-2.55-1.95-4.9-4.17-7.3-6.32-1.77-1.59-2.87-3.66-3.75-5.82-1.12-2.74-1.65-5.58,.52-8.08,2.08-2.39,4.93-2.89,7.85-2.31,2.37,.47,4.64,1.43,7.54,2.36-1.2-4.18-3.24-7.31-4.84-10.62-1.65-3.42-2.92-6.9-2.89-10.77,.02-2.48,.54-4.75,2.99-5.83,2.39-1.05,4.6-.22,6.38,1.53,1.63,1.61,3.12,3.36,5.4,5.84,0-2.57-.09-4.4,.02-6.21,.2-3.53,1.65-5.64,4.14-6.16,2.99-.62,4.75,1.23,6.11,3.4,1.23,1.95,2.12,4.11,3.28,6.4,1.17-2.23,2.26-4.4,3.43-6.54,1.34-2.44,2.96-4.71,6.21-4.04,3.2,.66,3.85,3.42,4.34,6.11,.19,1.03,.16,2.1,.28,3.84,2.61-2.53,4.66-4.92,8.22-4.75,3.47,.16,5.84,1.53,6.83,4.87,.66,2.22,1.13,4.52,.99,6.88-.34,5.69-.42,11.39-2.23,16.92-.94,2.87-1.31,5.92-1.9,8.9-.31,1.57-.5,3.17-.85,4.73-.47,2.12-1.02,4.85-3.83,4.08-3.04-.83-1.39-3.31-.93-5.35,2.05-9.04,4.87-17.93,5.28-27.28,.09-2.12-.11-4.3-.51-6.39-.62-3.27-3.34-4.16-5.87-2.02-1.38,1.17-2.21,2.79-3.03,4.38-.65,1.27-1.22,2.59-1.92,3.83-.56,.98-1.44,1.69-2.64,1.37-1.13-.29-1.81-1.16-1.84-2.33-.06-2.5,.03-5.01-.07-7.51-.08-1.9,.58-3.98-1.53-5.97Z"/><path class="cls-2" d="M839.87,214.34c2.18-.72,3.37-2.67,5.15-3.84,2.05-1.34,4.12-2.25,6.51-1.08,2.36,1.16,3,3.2,3.13,5.74,.23,4.42-.5,8.51-2.89,12.29-1.04,1.65-1.87,3.43-2.79,5.13,1.4,1.29,2.4,.08,3.47-.26,1.19-.38,2.32-1.03,3.53-1.25,2.82-.5,5.93-1.2,7.85,1.7,1.93,2.93,1.71,6.12-.17,9.11-1.96,3.12-5,5.06-7.89,7.16-3.67,2.67-8.07,3.76-12.17,5.46-1.57,.65-3.9,1.3-4.58-1.04-.72-2.44,1.57-2.77,3.33-3.13,5.92-1.21,11.11-3.85,15.5-8.01,1.29-1.23,2.63-2.43,3.01-4.32,.42-2.12-.34-3.06-2.52-2.93-2.62,.15-4.69,1.64-6.82,2.92-2.02,1.21-4.11,2.23-6.52,2.16-2.81-.08-3.73-1.72-2.36-4.25,2.05-3.77,4.16-7.5,6.34-11.19,1.74-2.95,1.65-6.16,1.52-9.38-.09-2.23-1.34-2.36-2.83-1.28-2.75,2.02-5.15,4.43-7.12,7.23-.72,1.02-1.37,2.09-2.08,3.12-.69,1.01-1.72,1.36-2.81,1-1.15-.38-1.57-1.42-1.43-2.59,.43-3.55,.95-7.08,1.33-10.64,.2-1.89,1-3.92-.88-5.57-2.77,.8-3.42,3.45-4.63,5.54-1.17,2-2.07,4.16-3.05,6.27-.67,1.44-1.05,3.34-3.18,2.97-2.6-.45-1.78-2.66-1.84-4.33-.07-1.79,.06-3.58-.09-5.36-.11-1.35,.15-3.19-1.62-3.57-2.05-.44-2.63,1.46-3.29,2.87-1.15,2.44-1.77,5.05-2.12,7.72-.14,1.06-.19,2.14-.46,3.17-.24,.9-.9,1.53-1.91,1.62-1.23,.11-2.13-.46-2.46-1.6-.56-1.88-.82-3.85-1.48-5.69-.74-2.04-2.11-2.31-3.58-.68-2.74,3.03-4.12,6.81-4.27,10.76-.2,5.2,.38,10.38,4.14,14.55,.24,.27,.5,.52,.7,.81,.88,1.25,1.48,2.69,.15,3.84-1.53,1.33-2.98,.44-4.23-.75-1.45-1.39-2.52-3.12-3.11-4.95-2.4-7.47-3.34-14.94,.16-22.45,2.93-6.28,4.87-7.42,11.88-5.99,1.12,.23,1.63-.08,2.04-1,.51-1.14,.94-2.34,1.61-3.38,3.27-5.15,8.02-5.07,11.4,.14,.26,.4,.47,.83,.74,1.32,1.9-.85,2.24-2.85,3.49-4.07,1.76-1.73,3.66-2.96,6.22-2.08,2.63,.9,4.12,2.88,4.26,5.62,.11,2.11-.16,4.25-.27,6.43Z"/><path class="cls-2" d="M977.09,157.69c1.78,.27,2.83,1.13,2.59,2.86-.12,.84-.67,1.64-1.12,2.4-3.35,5.55-2.46,10.94,.65,16.2,.82,1.38,1.86,2.62,2.78,3.94,5.49,7.89,4.38,18.83-2.6,25.48-.51,.49-1.03,1.06-1.65,1.34-1.01,.45-2.11,.53-2.91-.49-.63-.81-.51-1.73,.02-2.49,.51-.72,1.22-1.29,1.83-1.95,5.23-5.63,5.88-13.24,1.38-19.56-2.95-4.14-5.4-8.4-6.07-13.53-.56-4.26,.39-8.14,2.44-11.84,.64-1.16,1.54-1.93,2.65-2.35Z"/><path class="cls-2" d="M1002.51,108.51c-.66,2.03-1.79,3.96-3.65,5.39-.8,.61-1.68,.51-2.4-.1-.67-.57-1.22-1.31-.85-2.28,.75-2.01,1.9-3.74,3.63-5.03,.78-.58,1.64-.59,2.41,.02,.57,.44,.89,1.06,.86,2.01Z"/><path class="cls-2" d="M1007.2,136.13c.24,.06,.43,.08,.58,.16,2.02,1.09,4.2,2.06,4.72,4.63,.15,.75-.33,1.35-1.07,1.64-1.36,.53-4.87-1.03-6.06-2.66-.58-.79-.72-1.62-.25-2.48,.45-.84,1.18-1.29,2.08-1.29Z"/><path class="cls-2" d="M986.85,108.16c-.11,1.2,.21,2.68-1.39,3.11-1.66,.44-2.07-.91-2.54-2.09-.2-.49-.55-.93-.74-1.43-.57-1.49-1.5-3.13,.76-4.01,1.57-.61,3.34,.77,3.79,2.81,.11,.52,.08,1.06,.12,1.6Z"/><path class="cls-2" d="M1009.58,118.82c1.9-.08,3.32,.02,3.68,1.46,.44,1.76-.9,2.47-2.37,2.9-.68,.2-1.34,.49-2.03,.62-1.39,.27-2.52-.25-2.94-1.61-.46-1.45,.41-2.36,1.71-2.84,.82-.3,1.68-.46,1.95-.54Z"/><path class="cls-2" d="M969.61,124.22c-2.74,.08-4.55-.33-4.42-2.68,.1-1.76,1.67-2.04,3.18-1.89,1.75,.17,3.89,.22,3.95,2.52,.06,2.18-1.96,2.02-2.71,2.06Z"/><path class="cls-2" d="M983.77,146.25c-.05,1.85-2.49,4.28-4.22,4.22-1.26-.04-1.88-.85-1.83-2.07,.07-1.95,2.35-4.18,4.12-4.07,1.27,.08,1.85,.83,1.93,1.92Z"/><path class="cls-2" d="M971.32,136.64c-.34,1.47-3.6,3.68-4.86,3.19-1.08-.42-1.62-1.31-1.41-2.5,.35-1.93,2.91-3.25,4.97-2.6,.93,.29,1.47,.86,1.29,1.92Z"/><path class="cls-2" d="M1000.3,148.8c-.11,1.06-.65,1.93-1.89,2.09-1.59,.21-3.35-1.66-3.36-3.44,0-1.27,.69-2.01,1.87-2.2,1.58-.26,3.32,1.55,3.38,3.55Z"/><path class="cls-1" d="M908.87,306.96c-6.05,.45-11.75-.22-17.46-.62-.53-.04-1.09-.05-1.59-.21-1.15-.37-1.83-1.19-1.51-2.42,.24-.93,.99-1.55,1.99-1.45,2.13,.2,4.25,.66,6.39,.75,17.36,.69,34.74,.21,52.07-.49,18.56-.75,37.07-2.73,55.67-3.04,5.52-.09,11.03-1,16.37-2.6,1.61-.48,3.96-1.57,4.55,.88,.67,2.79-2.03,2.82-3.9,3.12-7.94,1.3-15.89,2.37-23.99,2.23-10.2-.17-20.33,1.19-30.5,1.79-13.93,.82-27.85,1.46-41.81,1.54-5.52,.03-11.05,.83-16.28,.52Z"/><path class="cls-2" d="M989.77,141.63c-6.08,.2-10.69-4.55-10.83-11.15-.13-5.9,6.23-12.44,12.24-12.6,4.99-.13,11.12,5.81,11.28,10.93,.23,7.18-5.12,12.58-12.69,12.83Zm1.4-19.55c-3.47,.29-7.9,5.09-7.71,8.35,.2,3.51,4.34,7.59,7.68,7.58,3.96-.01,7.46-4.24,7.34-8.88-.08-3.43-4.12-7.32-7.31-7.05Z"/><path class="cls-2" d="M942.08,393.92c.16-8.95,1.54-17.76,3.17-26.52,.32-1.72,.43-4.62,3.21-4.02,2.97,.64,2.12,3.4,1.58,5.35-2.19,7.97-2.99,16.11-3.31,24.33-.11,2.8,.06,4.99,3.83,4.53,1.56-.19,2.84,.75,2.88,2.47,.03,1.82-1.42,2.28-2.91,2.51-5.69,.87-8.6-2.09-8.45-8.64Z"/><path class="cls-2" d="M923.49,360.08c-3.2-1.56-5.63-2-8.08-2.27-1.9-.21-3.19-.97-2.8-3.01,.34-1.79,1.99-2.02,3.41-1.75,4.56,.89,9.08,2.06,13.34,3.91,2.41,1.05,2.55,3.79,.21,5.06-4.54,2.46-9.3,4.53-14.01,6.66-1.06,.48-2.19-.02-2.72-1.08-.64-1.29-.29-2.59,1-3.22,2.87-1.4,5.83-2.62,9.65-4.31Z"/><path class="cls-2" d="M978.18,359.05c1.81,2.66,4.28,2.84,6.32,3.76,.96,.43,2.04,.61,2.96,1.1,1,.54,1.59,1.52,1.23,2.68-.34,1.08-1.19,1.73-2.38,1.83-3.13,.25-13.64-5.97-14.78-8.78-.75-1.85-.04-3.31,1.71-3.83,3.57-1.06,7.21-1.9,10.85-2.67,1.5-.32,3,.22,3.28,1.92,.28,1.68-.81,2.6-2.44,2.87-2.1,.35-4.2,.69-6.76,1.11Z"/><path class="cls-2" d="M921.39,337.95c-2.7-.33-5.3,.16-7.89,.85-1.02,.27-2.05,.58-3.09,.72-1.16,.15-2.12-.35-2.54-1.48-.52-1.39,.15-2.41,1.31-3.11,.59-.36,1.27-.65,1.95-.78,4.19-.81,8.43-1.23,12.71-1.12,.7,.02,1.49-.01,2.08,.29,1.26,.66,2.59,1.51,2.09,3.24-.39,1.34-1.5,1.92-2.91,1.78-1.24-.12-2.47-.27-3.71-.4Z"/><path class="cls-2" d="M985.72,340.09c-1.06,.11-2.13,.27-3.19,.3-1.19,.03-2.08-.59-2.39-1.73-.39-1.44,.36-2.4,1.61-2.99,.47-.22,1.01-.42,1.52-.44,4.85-.21,9.6,.46,14.24,1.86,1.71,.52,3.05,1.45,2.36,3.43-.6,1.71-2.21,1.58-3.65,1.27-3.47-.75-6.83-2.19-10.5-1.7Z"/><path class="cls-2" d="M909.14,433.12c-.31-3.1,1.05-5.74,3.62-8.13,5.72-5.31,12.53-8.31,20.07-9.48,16.01-2.5,31.64-1,46.66,5.44,2.15,.92,4.15,2.08,5.9,3.65,5.68,5.06,5.01,10.93,1.46,17.01-1.88,3.22-6.19,3.79-9.68,3.4-6.93-.77-13.92-.76-20.84-1.9-7.66-1.26-15.42-.62-22.85,1.59-5.97,1.77-11.72,.9-17.47-.4-4.66-1.06-6.84-4.82-6.86-11.17Zm11.83-9.16c-2.43,1.22-4.41,3.11-6.05,5.22-2.7,3.48-1.55,10.12,2.05,11.11,4.81,1.32,9.65,2.11,14.76,.5,8.28-2.61,16.87-3.26,25.42-1.63,6.53,1.25,13.16,1,19.71,1.95,5.8,.84,8.97-3.05,8.11-8.85-.44-2.98-2.61-4.59-4.93-5.97-4.02-2.38-8.38-3.93-12.94-4.98-8.75-2.02-17.68-1.7-27.23-2.31-6.22,.17-12.74,1.86-18.89,4.96Z"/></g><path class="cls-7" d="M910.23,406.77s7.54-12.57,18.85-17.6"/><g><g><path class="cls-2" d="M268.52,330.8c1.71,1.64,5.94,1.86,4.17,5.05-1.43,2.56-4.1-.15-6.04-1.04-1.8-.82-4.77-1.56-3.42-4.26,1.55-3.12,3.52,.14,5.3,.25Z"/><path class="cls-2" d="M264.94,327.49c-.4-.89-.75-1.37-.83-1.89-.12-.8,.14-1.66,.98-1.85,2.99-.69,6.02-1.05,9.06-.41,.78,.16,1.19,1,1.05,1.82-.08,.51-.44,1.34-.75,1.38-3.18,.4-6.37,.66-9.52,.95Z"/><path class="cls-2" d="M172.74,317.23c3.65-.45,5.95-.31,8.02,.93,.88,.53,1.27,1.43,.91,2.49-.28,.8-.91,1.28-1.73,1.28-1.91,0-3.83-.07-5.74-.16-1.5-.07-2.74-.79-2.84-2.32-.11-1.68,1.24-2.2,1.39-2.21Z"/><path class="cls-2" d="M182.5,327.31c0,1.44-1.01,2.29-2.13,3.07-1.25,.87-2.38,1.97-3.75,2.58-1.55,.69-3.15-.81-2.84-2.42,.32-1.67,5.55-5.21,7.19-4.84,.78,.18,1.31,.71,1.53,1.61Z"/></g><g><g><path class="cls-2" d="M205.35,157.28c-3.43,4.13-5.62,8.22-9.11,11.25-3.79,3.3-6.29,2.95-7.95-1.73-1.87-5.27-3.17-10.74-4.62-16.15-.56-2.1,.28-3.88,2.45-4.28,2.46-.45,3.16,1.46,3.37,3.46,.5,4.7,1.25,9.32,3.39,13.77,2.67-.97,3.62-3.16,4.95-4.9,1.64-2.14,2.92-4.56,4.59-6.67,2.48-3.14,4.79-2.96,6.76,.48,1.03,1.79,1.67,3.8,2.59,5.66,1,2.01,1.7,4.24,4.08,5.94,2.67-1.56,4.05-4.35,5.64-6.89,1.43-2.3,2.77-4.67,5.04-6.26,1.45-1.01,3.07-1.58,4.49-.03,1.4,1.52,1.05,3.14-.49,4.3-3.41,2.57-5.41,6.26-7.9,9.57-.99,1.31-2.17,2.55-3.47,3.54-3.58,2.71-5.7,2.37-8.3-1.29-1.08-1.52-1.95-3.19-2.87-4.81-.8-1.42-1.54-2.87-2.64-4.95Z"/><path class="cls-2" d="M256.85,162.3c.13,2.75-.36,5.17-1.85,7.28-.77,1.09-1.92,1.6-3.26,1.12-1.43-.52-1.63-1.82-1.48-3.07,.25-2.05,1.42-3.86,1.42-6.02,0-2.72-1.14-4.32-3.86-4.7-1.89-.26-3.26,.22-3.52,2.41-.34,2.88-.76,5.74-1.12,8.62-.18,1.43-.17,2.92-.54,4.3-.49,1.83-1.82,2.83-3.75,2.27-1.65-.48-2.18-1.92-1.89-3.47,.74-4.07,1.62-8.11,2.45-12.17,.71-3.45,1.43-6.9,1.27-10.46-.1-2.24,.29-4.51,2.99-4.52,2.26,0,3.12,2,2.79,4.04-.41,2.52,1,3.12,2.94,3.77,5.11,1.72,7.87,5.19,7.43,10.59Z"/><path class="cls-2" d="M272.29,163.44c2.94-2.49,4.04-5.48,5.8-8,1.15-1.64,2.53-3.1,4.57-1.57,1.6,1.2,1.3,2.98,.21,4.45-5.03,6.85-10.16,13.63-15.99,19.84-1.39,1.48-3.15,2.43-4.85,.76-1.71-1.67-.75-3.4,.67-4.87,.14-.15,.27-.31,.41-.46,1.66-1.76,4.81-2.67,4.73-5.37-.08-2.88-2.25-5.24-3.77-7.7-.98-1.58-2.05-3.11-2.88-4.76-.78-1.54-.15-2.89,1.29-3.65,1.32-.7,2.44,0,3.18,1.1,2.18,3.27,4.28,6.59,6.63,10.23Z"/><path class="cls-2" d="M311.11,147.24c-.15,1.64-.65,3.4-1.46,5.11-2.25,4.69-6.53,7.99-8.68,12.79-.5,1.11-1.98,1.57-3.27,.92-1.43-.71-2.12-1.89-1.67-3.56,.61-2.28,1.94-4.08,3.6-5.69,1.79-1.73,3.51-3.52,4.72-5.72,2.41-4.4,1.4-7.06-3.32-8.45-1.37-.4-2.87-.37-4.22-.8-1.04-.33-1.54-1.32-1.45-2.47,.09-1.13,.71-1.85,1.79-2.25,5.29-1.98,13.86,4.08,13.97,10.12Z"/><path class="cls-2" d="M300.51,180.7c-.13,2.09-2.39,4.05-4.73,4-1.88-.04-3.2-.91-3.35-2.9-.17-2.23,2.57-4.91,4.72-4.79,1.97,.11,3.48,1.76,3.36,3.68Z"/></g><g><path class="cls-2" d="M150.27,384.42c-2.23,1.3-4.47,.97-6.77,.16-1.46-.51-2.81-1.18-3.94-2.2-12.91-11.6-24.09-24.29-29.79-41.27-3.42-10.19-5.89-20.33-5.67-31.11,.17-8.14,1.6-16.03,3.27-23.97,2.17-10.28,7.46-19.07,12.23-28.15,.7-1.34,1.47-2.71,2.5-3.79,7.74-8.21,15.09-16.8,24.22-23.61,11.12-8.28,22.61-15.88,35.69-20.81,8.57-3.23,17.52-4.93,26.49-6.33,6.53-1.02,13.15-.28,19.43,2.06,4.03,1.5,7.87,1.9,12.28,1.17,6.25-1.04,12.68-.41,19.09-.05,8.75,.49,16.38,3.47,24.05,6.92,1.52,.69,3.01,1.56,4.33,2.58,4.4,3.4,8.69,6.94,13.07,10.38,5.25,4.12,8.91,9.53,12.69,14.94,6.68,9.56,12.91,19.36,17.47,30.11,7.09,16.71,10.12,34.26,9.28,52.33-.37,7.87-1.41,15.78-3.03,23.54-2.43,11.64-8.75,21.45-15.09,31.19-2.65,4.07-5.54,8.05-9.33,11.23-.77,.64-1.37,1.52-2.48,1.6-4.22,.91-8.38,2.15-12.64,2.85-6.11,1-10.91-1.64-13.28-7.33-1.35-3.23-4.22-6.3-1.81-10.24,.15-.48,.25-1.03,.57-1.4,12.23-13.99,13.96-31.73,17.32-48.84,1.13-5.76,1.66-11.65,2.71-17.77-8.12-.33-15.54-3.25-23.21-5.04-10.38-2.43-18.96-8.62-27.54-14.54-5.36-3.7-10.93-7.33-14.31-13.3-1.73-3.06-4.18-2.71-6.86-.96-5.21,3.41-10.21,7.16-15.79,9.99-18.97,9.63-39,15.72-60.2,17.62-4.43,.4-5.61,2.25-5.77,6.34-.55,14.6,1.13,28.9,5.09,42.94,.46,5.91,2.29,11.42,5.28,16.47,1.36,2.3,1.83,4.57,1.77,7.12-.06,2.61-.79,4.48-3.89,4.69-3.17,.21-5.68,1.78-7.44,4.46Z"/><path class="cls-2" d="M283.65,376.83c.99,1.79-2.33,2.85-.63,4.97,3.22,4.01,3.46,10.53,10.46,11.34,2.99,.34,6.01-.14,8.23-1.21,3.06-1.47,5.67-.89,8.54-.58-5.27,4.55-11.26,6.3-18.21,5.23-4.83-.74-7.97-3.29-9.93-7.59-.48-1.05-.56-2.33-1.75-3.04-2.29,1.46-4.02,3.5-6,5.85,12.16,7.28,23.93,14.93,32.18,26.95,5.67-6.26,11.32-12.26,16.41-18.76,.81-1.03,.98-2.1,1.04-3.26,.47-9.53,6.62-14.64,14.46-18.29,2.26-1.05,4.81-1.57,7.27-2.12,5.76-1.27,8.49,.17,10.85,5.84,.57,1.36,1.37,1.14,2.35,1.11,3.37-.08,6.78-.49,10.1-.12,4.9,.55,9.07,2.63,10.92,7.71,1.9,5.2-.3,9.14-3.9,12.67-1.47,1.45-3.09,2.66-5.06,3.24-3.38,1-6.59,2.67-10.18,2.87-4.66,.25-7.23,2.65-8.19,7.17-.87,4.11-2.07,8.15-2.97,12.25-2.61,11.93-7.81,22.94-12.26,34.19-2.67,6.75-6.68,12.89-11.33,18.46-3.58,4.28-8.79,6.27-14.05,7.49-9.51,2.19-19.08,1.74-28.57-.49-.49-.12-1.01-.15-1.49-.3-1.47-.48-3.23-1.12-2.54-3,.73-1.99,2.46-1.05,3.88-.54,9.7,3.45,19.59,3.23,29.32,.63,5.54-1.48,10.26-4.53,13.5-9.86,4.66-7.66,8.87-15.44,11.8-23.95,2.85-8.27,6.46-16.28,8.39-24.86,.37-1.64,.79-3.28,1.06-4.94,.67-4.11,1.25-8.23,3.17-12.17-3.1-1.95-6.61-1.8-9.78-2.78-4.02-1.24-8.15-2.07-12.29-2.87-1.9-.37-3.21-.13-4.44,1.34-10.07,11.99-21.47,22.85-30.47,35.77-1.08,1.55-1.98,5.02-4.62,3.05-2.26-1.69,.52-3.53,1.6-4.99,3.8-5.14,7.12-10.66,11.63-15.27,.69-.7,1.33-1.4,.55-2.6-1.55-2.38-2.52-5.1-4.62-7.18-5.77-5.72-12.19-10.62-18.9-15.14-1.24-.84-2.67-1.44-4.07-2-3.71-1.47-7.24-2.21-10.63,1.12-2.56,2.51-6.2,3.32-9.4,4.81-11.64,5.4-23.85,8.43-36.72,7.58-12.33-.82-24.32-3.42-35.47-9.04-3.73-1.88-8.01-2.73-10.99-6.03-.95-1.05-2.28-.38-3.37-.21-15.83,2.48-30.32,7.76-41.51,19.95-.89,.98-2.06,1.7-3.09,2.54,4.32,6.73,7.4,13.45,9.78,20.5,.38,1.11,.78,2.25,.94,3.4,.15,1.09-.45,2.02-1.52,2.32-1.13,.33-2.01-.21-2.27-1.39-2.75-12.31-10.53-22.1-16.32-32.9-2.15-4-4.15-8.09-6.13-12.18-.85-1.75-2.04-2.5-3.98-2.24-7.67,1.03-15.34,2.02-23.01,3.01-2.26,.29-2.98,1.53-3.01,3.78-.14,8.32,1.18,16.48,2.97,24.53,1.82,8.2,2.83,16.58,5.79,24.55,2.86,7.71,6.93,14.97,12.4,20.64,5.92,6.12,14.12,9.62,23.11,10.07,8.25,.41,16.51,1.19,24.35-2.46,.7-.33,1.65-.23,2.47-.14,.69,.07,1.21,.57,1.37,1.3,.15,.71-.13,1.3-.63,1.81-1.16,1.17-2.77,1.24-4.2,1.57-16.38,3.81-32.08,2.59-46.69-6.49-1.6-.99-3.08-2.12-4.16-3.64-7.74-10.96-14.22-22.5-15.91-36.13-.66-5.36-2.46-10.48-3.13-15.86-.81-6.53-1.52-13.07-1.59-19.63-.03-2.98-1.42-3.41-3.65-3.4-4.74,.03-9.5-.12-14.01-1.65-10.21-3.47-9.99-12.91-5.38-18.04,1.04-1.15,2.28-2.04,3.7-2.59,3.13-1.23,6.24-2.62,9.48-3.47,3.01-.79,6.04-.78,6.22-5.19,.08-1.86,2.41-2.55,4.25-3.09,4.87-1.41,9.75-.82,14.51,.23,5.06,1.12,10.18,2.16,14.57,5.38,3.66,2.68,5.68,6.11,6.3,10.49,.14,1,.29,2.03,.18,3.02-1.29,11.75,6.04,20.13,11.08,30.01,12.39-13.08,27.39-19.75,44.67-22.6-2.07-4.37-4.71-7.68-7.68-10.99-2.51,2.36-5.21,3.97-8.56,4.14,.58-3.99,2.9-6.16,7.01-5.65,2.45,.3,2.99-.42,3-2.53,.02-3.02-.56-5.55-2.21-8.4-2.79-4.82-4.71-10.28-4.81-16.09,5.96,4.6,8.51,11.14,9.1,18.2,1.02,12.17,8.75,19.25,18.15,24.87,12.25,7.32,26.09,9.92,40.06,11.06,7.17,.58,14.48-1.02,21.37-3.15,9.5-2.93,18.56-7.13,26.73-12.88,3.7-2.61,6.56-6.25,9.76-9.45,1.52-1.52,2.67-3.56,5.22-3.55Zm-177.08,7.25c.11-5.23-2.05-9.22-6.79-11.44-6.62-3.1-13.57-5.01-20.99-4.54-.82,.05-1.68,.26-2.43,.6-1.56,.71-1.65,2.64-.2,3.55,1.05,.66,2.26,.56,3.44,.63,2.35,.14,4.72,.2,7.06,.49,1.2,.15,2.3,.85,2.12,2.34-.17,1.39-1.26,1.91-2.5,2.1-.49,.07-1-.06-1.5-.1-3.18-.27-6.43-.21-9.53-.88-6.38-1.39-11.95,.88-17.57,3.2-3.09,1.28-4.91,3.55-4.78,7.01,.12,3.41,2.56,5.05,5.33,6,3.34,1.15,6.85,1.63,10.43,1.62,12.69-.05,25.07-2.53,37.9-4.34,0-2.21-.04-4.22,0-6.23Zm263.44,19.42c4.66-1.79,7.54-6.23,6.85-10.06-.7-3.89-4.27-6.46-9.48-6.81-.5-.03-1.01-.04-1.51,0-7.04,.55-14.08,1.02-20.97,2.71-1.55,.38-3.63,1.49-4.2-.94-.53-2.26,1.74-2.48,3.3-2.95,.8-.24,1.67-.21,2.49-.37,1.48-.3,3-.52,4.39-1.05,.96-.36,1.6-1.42,1.4-2.45-.16-.79-.99-1.38-1.88-1.49-1.16-.14-2.37-.35-3.5-.15-3.66,.64-7.29,1.58-10.46,3.54-3.33,2.06-6,4.98-7.92,8.35-2.57,4.49-1.13,7.41,3.88,8.73,6.34,1.67,12.71,3.23,19,5.08,1.81,.53,3.47,1.17,5.19,.65,4.8,.12,9.18-1.14,13.43-2.78Z"/><path class="cls-2" d="M196.85,325.69c-2.99-.01-4.88-1.75-4.84-4.47,.04-3,2.82-5.92,5.65-5.91,2.86,0,5.16,2.23,5.16,4.98,0,2.99-2.68,5.41-5.97,5.4Z"/><path class="cls-2" d="M260.87,309.51c-4.34-.8-8.94-1.59-13.43-2.93-1.43-.43-2.56-1.15-2.25-2.77,.39-2.06,2.18-2.07,3.58-1.59,4.3,1.47,8.74,2.05,13.2,2.62,1.54,.2,3.18,.61,3,2.62-.22,2.41-2.2,2.03-4.1,2.06Z"/><path class="cls-2" d="M218.61,334.11c3.92-.06,7.06,1.85,8.05,4.9,.45,1.37,.57,2.77-.92,3.52-1.59,.8-2.47-.12-3.01-1.61-.28-.78-.62-1.63-1.19-2.19-1.8-1.76-4.09-.93-5.26,2.1-.65,1.69-1.15,3.5-3.34,2.69-2.13-.78-1.48-2.75-1.04-4.35,.89-3.21,3.35-5.01,6.7-5.06Z"/><path class="cls-2" d="M186,308.37c-1.84,.11-2.91-.43-3.26-1.69-.36-1.32,.4-2.47,1.62-2.76,4.56-1.08,9.15-2.04,13.75-2.92,1.42-.27,2.8,.23,3.01,1.91,.2,1.63-.78,2.46-2.38,2.58-4.56,.35-8.82,2.04-12.75,2.87Z"/><path class="cls-2" d="M240.06,321.31c.05-3.32,1.71-5.04,4.87-5.02,2.93,.02,5.08,1.9,5.04,4.41-.05,2.59-2.61,5.4-4.98,5.47-3.27,.09-4.98-1.59-4.93-4.86Z"/><path class="cls-2" d="M217.75,382.24c-5.93,.08-10.43-4.01-10.62-9.65-.24-7.23,4.6-13.39,10.62-13.49,6.4-.11,11.2,4.27,11.29,10.27,.11,7.17-4.82,12.78-11.3,12.87Zm.12-3.35c3.55,.11,7.08-4,7.17-8.36,.09-4.27-2.56-7.14-6.66-7.2-3.71-.06-6.59,3.4-6.65,7.97-.04,3.21,3.43,7.5,6.14,7.59Z"/></g></g><path class="cls-7" d="M200.47,347.58s-15.69,6.46-13.84,16.61"/></g><line class="cls-6" x1="149.1" y1="480.92" x2="144.86" y2="508.43"/><line class="cls-6" x1="281.77" y1="485.12" x2="286.02" y2="512.63"/></g></g></svg>