<?xml version="1.0" encoding="UTF-8"?><svg id="_レイヤー_2" xmlns="http://www.w3.org/2000/svg" xmlns:xlink="http://www.w3.org/1999/xlink" viewBox="0 0 1200 500"><defs><style>.cls-1{fill:#fff;}.cls-2{fill:#8fd1e4;}.cls-3{fill:#040000;}.cls-4{fill:#f49c00;}.cls-5{fill:#1598bf;}.cls-6{clip-path:url(#clippath);}.cls-7,.cls-8,.cls-9{fill:none;}.cls-8{stroke-width:4px;}.cls-8,.cls-10{stroke:#231815;}.cls-8,.cls-10,.cls-9{stroke-linecap:round;stroke-linejoin:round;}.cls-11,.cls-10{fill:#231815;}.cls-10{stroke-width:3px;}.cls-12{fill:#fdeadb;}.cls-9{stroke:#040000;stroke-width:5px;}</style><clipPath id="clippath"><rect class="cls-7" width="1200" height="500"/></clipPath></defs><g id="_レイヤー_1-2"><g class="cls-6"><rect class="cls-1" width="1200" height="500"/><g><g id="_汗"><path class="cls-2" d="M743.21,128.99c-2.46-2.46-5.88-1.78-8.75-.62-4.82,1.94-8.79,5.26-11.5,9.71-1.17,1.93-.8,4.45,.63,6.09,.11,.26,.23,.52,.38,.78,1.52,2.65,4.83,4.26,7.84,4.39,3.5,.16,5.54-2.2,7.47-4.71,1.66-2.16,3.23-4.41,4.49-6.83,1.47-2.82,1.9-6.35-.56-8.81Z"/><path class="cls-2" d="M757.91,156.99c-4.78,.6-9.19,2.38-12.64,5.71-3.18,1.63-4.69,5.56-2.87,8.94,1.76,3.26,5.77,4.5,9.18,3.29,2.76-.98,4.94-3.1,7.18-4.92,2.52-2.06,4.19-4.48,4.35-7.82,.13-2.56-2.5-5.54-5.2-5.2Z"/><path class="cls-2" d="M776.96,184.01c-4.81-2.71-10.27-.47-14.27,2.56-1.29,.98-2.22,2.32-2.48,3.78-1.4,2.33-1.73,5.14-.09,7.72,3.48,5.45,10.45,2.74,14.49-.35,1.78-1.36,3.46-2.92,4.67-4.84,1.96-3.1,.84-7.09-2.32-8.87Z"/><path class="cls-2" d="M799.14,151.38c-3.74-1.16-8.08,.36-11.19,2.76-1.49,.74-2.77,1.78-3.64,3.33-1.53,2.74-.98,6.18,1.27,8.33,3.77,3.61,9.49,1.43,13.01-1.32,1.6-1.25,3.07-2.82,4.02-4.63,1.72-3.3,.11-7.35-3.47-8.46Z"/><path class="cls-2" d="M785.54,123.21c-1.95-2.57-5.15-2.89-8.06-2.06-3.17,.91-6.17,2.51-8.73,4.61-1.28,.36-2.43,1.2-3.23,2.38-.81,1.21-1.16,2.65-1.1,4.07-.01,.64,.09,1.28,.32,1.89,.32,1.05,.85,2.03,1.6,2.84,1.96,2.13,4.82,2.9,7.64,2.55,4.93-.61,8.37-4.13,11.17-7.94,1.83-2.49,2.36-5.75,.4-8.35Z"/><path class="cls-3" d="M726.46,137.11c1.81-2.56,4.25-4.59,7.07-5.94,2.56-1.22,7-2.69,9.51-.68,2.68,2.15-.96,6.46-2.29,8.49-2,3.04-4.32,5.82-6.89,8.39-1.63,1.63,.9,4.17,2.54,2.54,3.37-3.37,6.35-7.15,8.78-11.25,1.12-1.88,2.52-4.02,2.51-6.29,0-1.86-1.03-3.58-2.47-4.7-3.4-2.67-8.38-1.72-12.07-.22-4,1.63-7.31,4.34-9.8,7.86-1.33,1.89,1.78,3.68,3.1,1.81h0Z"/><path class="cls-3" d="M747.37,163.08c2.16-1.92,4.74-3.59,7.52-4.45,1.92-.59,5-1.06,6.26,.96,1.47,2.34-.86,5.5-2.41,7.16-2.06,2.21-4.46,3.99-7.1,5.43-2.03,1.1-.22,4.2,1.81,3.1,3.48-1.89,6.81-4.44,9.2-7.63,2.16-2.87,3.65-7.06,1.32-10.28-4.74-6.54-14.77-.71-19.14,3.16-1.73,1.53,.81,4.06,2.54,2.54h0Z"/><path class="cls-3" d="M765.77,187.38c2.52-1.58,5.41-3.45,8.53-3.24,2.43,.16,4.94,1.71,4.71,4.45-.46,5.71-8.14,9.2-12.81,10.61-2.2,.67-1.26,4.13,.95,3.46,6.43-1.95,16.64-7.37,15.35-15.58-.55-3.53-3.6-5.86-7-6.38-4.23-.66-8.08,1.42-11.55,3.59-1.95,1.22-.15,4.33,1.81,3.1h0Z"/><path class="cls-3" d="M789.86,155.07c2.34-1.7,5.06-2.76,7.99-2.71,1.12,.02,2.53,.17,3.24,1.17,.68,.96,.49,2.39,.22,3.45-1.2,4.65-6.05,7.45-9.91,9.69-1.99,1.16-.19,4.26,1.81,3.1,5.36-3.11,12.34-7.78,11.9-14.89-.55-8.8-12.27-6.39-17.05-2.92-1.85,1.35-.06,4.46,1.81,3.1h0Z"/><path class="cls-3" d="M768.8,128.9c1.82-2.37,4.26-4.26,6.98-5.46,2.24-.99,5.79-2.15,8.04-.61,2.51,1.72,.77,5.42-.59,7.31-1.92,2.69-4.66,4.82-7.49,6.46-2,1.16-.19,4.26,1.81,3.1,3.76-2.17,7.54-5.24,9.63-9.13,1.75-3.25,2.34-7.66-.8-10.29-3.05-2.55-7.54-1.86-10.97-.55-3.93,1.5-7.16,4.04-9.71,7.36-1.41,1.83,1.71,3.62,3.1,1.81h0Z"/></g><g id="_えっ_"><path class="cls-11" d="M415.6,114.43c2.86,.49,5.73,.97,8.59,1.46,2.26,.38,3.23-3.07,.95-3.46-2.86-.49-5.73-.97-8.59-1.46-2.26-.38-3.23,3.07-.95,3.46h0Z"/><path class="cls-11" d="M420.98,131.73c2.92-3.41,6.31-6.27,10.19-8.55-.88-.36-1.76-.71-2.63-1.07,.91,3.48,.26,6.99-.47,10.44-.73,3.46-1.47,6.91-2.2,10.37-.43,2.03,2.11,3.05,3.28,1.38,.85-1.22,1.31-4.13,2.67-4.81,.78-.39,1.89,.3,2.72,.45,.78,.15,1.58,.19,2.37,.12,3.2-.26,6.1-2.11,7.65-4.92,1.12-2.02-1.98-3.83-3.1-1.81-.8,1.45-2.03,2.47-3.63,2.94-1.83,.54-3.17-.22-4.95-.46-4.34-.59-4.96,4-6.84,6.68,1.09,.46,2.19,.92,3.28,1.38,.83-3.89,1.69-7.77,2.47-11.67,.73-3.68,1.16-7.37,.2-11.05-.29-1.12-1.65-1.65-2.63-1.07-4.12,2.42-7.81,5.47-10.92,9.11-1.49,1.74,1.03,4.29,2.54,2.54h0Z"/><path class="cls-11" d="M448.33,125.29c1.38-1.34,3.46-3.45,5.59-2.71,2.34,.81,2.18,3.72,.23,4.84-2,1.15-.2,4.25,1.81,3.1,3.76-2.16,4.5-7.39,1.06-10.23-3.84-3.18-8.25-.43-11.23,2.47-1.66,1.61,.88,4.15,2.54,2.54h0Z"/><path class="cls-11" d="M455.28,93.15c2.71,5.98,5.42,11.97,8.13,17.96,.95,2.1,4.04,.28,3.1-1.81-2.71-5.99-5.42-11.97-8.13-17.96-.95-2.1-4.04-.28-3.1,1.81h0Z"/><path class="cls-11" d="M470.87,121.91c-.03-.08-.05-.15-.07-.24,.02,.16,.04,.32,.06,.48-.01-.11-.01-.22,0-.33-.02,.16-.04,.32-.06,.48,.02-.08,.04-.16,.07-.24-.06,.14-.12,.29-.18,.43,.04-.08,.18-.27-.02-.03-.2,.25-.03,.05,.03,0-1-.26-2-.53-3-.79,.01,.04,.03,.09,.03,.14-.02-.16-.04-.32-.06-.48,0,.07,0,.13,0,.2,.02-.16,.04-.32,.06-.48-.01,.07-.03,.13-.05,.2l.18-.43s-.09,.18-.09,.18c0-.02,.34-.39,.13-.17-.14,.14-.16,.01,.17-.12-.06,.03-.12,.07-.18,.1,.14-.06,.29-.12,.43-.18-.09,.03-.17,.06-.26,.08,.16-.02,.32-.04,.48-.06-.09,.01-.18,.01-.27,0,.16,.02,.32,.04,.48,.06-.07-.01-.13-.03-.19-.06,.14,.06,.29,.12,.43,.18-.04-.02-.08-.04-.12-.07-.8-.5-2.01-.19-2.45,.64-.47,.88-.21,1.92,.64,2.45,2.05,1.28,4.77-.86,4.12-3.14-.17-.6-.65-1.09-1.25-1.25-.65-.18-1.25,.03-1.75,.46-.78,.68-1.13,1.96-.75,2.94,.17,.45,.39,.82,.82,1.07,.38,.22,.95,.32,1.38,.18,.85-.27,1.62-1.27,1.25-2.21h0Z"/><path class="cls-11" d="M470.79,90.65c1.54-1.8,3.94-3.84,6.5-3.02,2.32,.75,3.3,3.55,2.42,5.7-.46,1.11-1.26,1.94-2.25,2.59-.95,.63-1.83,1.1-2.24,2.24-.81,2.23,.96,5.58,1.66,7.68,.73,2.18,4.19,1.24,3.46-.95-.27-.82-.55-1.65-.81-2.47-.22-.7-.94-2.1-.72-2.82,.18-.61,1-.91,1.53-1.33,.61-.49,1.13-1.04,1.59-1.67,1.77-2.39,2.22-5.56,.96-8.28-1.17-2.53-3.64-4.29-6.44-4.43-3.25-.16-6.17,1.87-8.2,4.23-1.5,1.74,1.03,4.29,2.54,2.54h0Z"/><path class="cls-11" d="M482.9,115.61s0-.04,0-.06c-.02,.16-.04,.32-.06,.48,.05-.36-.23,.36-.09,.16l-.21,.27c.12-.12,.04-.07-.23,.17,.21-.13,.07,.04-.22,.07,.08,0,.16-.05,.24-.06-.16,.02-.32,.04-.48,.06,.1-.01,.2-.01,.3,0-.16-.02-.32-.04-.48-.06,.09,.02,.26,.09-.05-.04-.32-.14-.13-.06-.06-.01-.2-.14-.35-.28-.48-.48,.13,.21-.15-.45-.09-.19-.02-.16-.04-.32-.06-.48,0,.07,0,.13,0,.19,.02-.16,.04-.32,.06-.48-.07,.38,.21-.35,.06-.13,.07-.09,.13-.17,.2-.26-.03,.03-.06,.07-.1,.1,.15-.19,.34-.28,.13-.13,.33-.13,.41-.16,.24-.11-.04,.01-.09,.02-.13,.02,.16-.02,.32-.04,.48-.06-.07,0-.13,0-.19,0,.16,.02,.32,.04,.48,.06-.22-.04,.25,.12,.25,.12-.28-.14,.59,.46,.02,.02-.44-.34,.1,.08,.18,.18,.08,.08,.14,.17,.17,.28,.06,.18,.08,.2,.05,.09,.02,.16,.04,.32,.06,.48,0-.07,0-.13,0-.2-.02,.16-.04,.32-.06,.48,.05-.26-.21,.37-.11,.21,.04-.08,.02-.04-.08,.1-.09,.14-.2,.25-.35,.33,.81-.48,1.17-1.63,.64-2.45-.52-.81-1.59-1.16-2.45-.64-.76,.46-1.2,1.26-1.18,2.15,.01,.59,.24,1.12,.62,1.55,.14,.16,.24,.23,.45,.38-.62-.44,0,.04,.22,.16,1.45,.84,3.27-.09,3.8-1.57,.24-.67,.12-1.45-.26-2.05-.45-.72-1.23-1.09-2.05-1.14-1.47-.08-2.71,1.05-2.78,2.51-.04,.94,.86,1.84,1.79,1.79,1.01-.05,1.75-.79,1.79-1.79h0Z"/><path class="cls-11" d="M497.76,68.95c2.09,16.56,3.97,33.15,5.66,49.76,.23,2.27,3.82,2.3,3.59,0-1.69-16.61-3.57-33.2-5.66-49.76-.28-2.26-3.88-2.29-3.59,0h0Z"/><path class="cls-11" d="M509.98,88.99c1.29,9.75,2.3,19.53,3.04,29.34,.17,2.29,3.76,2.31,3.59,0-.74-9.81-1.75-19.59-3.04-29.34-.3-2.26-3.89-2.29-3.59,0h0Z"/><path class="cls-11" d="M380.27,137.19c16.02,11.45,32.53,22.19,49.48,32.22,1.99,1.18,3.8-1.92,1.81-3.1-16.95-10.02-33.46-20.77-49.48-32.22-1.88-1.34-3.67,1.77-1.81,3.1h0Z"/><path class="cls-11" d="M396.3,161.25c9.11,5.88,18.9,10.6,29.15,14.12,2.19,.75,3.13-2.71,.95-3.46-9.96-3.42-19.44-8.05-28.29-13.76-1.95-1.26-3.75,1.85-1.81,3.1h0Z"/></g><g id="_びっくりハート"><path class="cls-4" d="M717.4,286.99c5.3-5.74,10.8-11.37,15.72-17.43,5.22-6.43,9.57-14.17,8.8-22.75-.08-.83-.32-1.63-.71-2.32,.31-2.38,.52-4.74,.43-7.16-.32-8.24-1.45-16.62-2.76-24.75-1.18-7.33-3.13-14.32-6.01-21.16-3.49-8.27-8.17-15.53-14.41-22.07-2.42-2.54-5.01-4.93-7.75-7.11-2.31-1.84-4.69-3.79-7.24-5.33-2.69-1.63-5.74-2.83-8.65-3.95-8.34-3.21-17.82-4.48-26.65-5.2-8.54-.7-17.38,.04-25.69,2.09-7.52,1.85-15.17,5.04-21.46,9.61-4.08,2.97-8.02,6.06-11.24,9.97-3.13,3.8-6.07,7.74-8.39,12.09-2.09,3.91-3.88,7.99-5.47,12.15-1.98-4.93-4.22-9.76-7.11-14.17-5.51-8.4-12.63-14.86-20.98-20.39-13.49-8.94-30.32-13.9-46.5-13.7-8.03,.1-16.39,1.34-23.94,4.15-4.43,1.65-8.86,3.54-12.97,5.89-4.12,2.36-7.87,5.24-11.59,8.18-6.48,5.12-11.69,11.29-16.65,17.86-5.45,7.22-9.61,15.42-11.55,24.3-4.23,19.36-4.52,39.05-1.56,58.53-.53,.79-.84,1.72-.81,2.6,0,.06,0,.11,0,.17,.06,1.55,.83,2.95,2.01,3.8,.26,.81,.62,1.61,1.06,2.4-.34,.88-.41,1.84-.07,2.74,2.7,7.18,9.27,9.59,16.04,11.68,3.01,.93,5.54,2.52,8.4,3.79,.78,.35,1.55,.63,2.32,.86,1.12,3.18,2,6.43,2.65,9.73-2.88,2.93-5.12,6.75-6.04,10.83-.85-.17-1.72-.14-2.53,.12-.65-.65-1.3-1.29-1.97-1.92-1.85-1.71-4.76-1.83-6.59,0-1.73,1.73-1.86,4.88,0,6.59,1.39,1.29,2.71,2.64,4,4.03,0,.41,.05,.85,.17,1.3,1.14,4.34,2.98,8.57,5.51,12.28,1.31,1.92,2.76,3.86,4.43,5.49,.55,.54,1.21,1.02,1.93,1.4,.25,.6,.52,1.2,.8,1.84,1.67,3.67,4.43,6.85,7.16,9.78,4.49,4.83,9.13,9.53,13.69,14.29,4.16,4.34,8.16,9.01,12.77,12.89,3.84,3.22,7.31,5.7,11.86,7.62,1.88,.79,3.4,1.33,5.12,1.72,.78,.64,1.62,1.28,2.57,1.94,2.63,1.83,5.8,3.03,8.75,4.17,3.93,1.53,8.03,2.67,12.1,3.75,10.16,2.7,20.65,4.45,31.14,5.14,5.21,.34,10.44,.3,15.65-.09,2.4,.49,4.97,.47,7.58-.16,1.5-.36,2.99-.8,4.47-1.33,.94-.16,1.88-.33,2.82-.51,9.29-1.8,18.17-5.09,26.72-9.12,2.17-1.02,4.3-2.13,6.38-3.32,7.15-1.41,14.01-4.05,20.52-7.31,7.57-3.79,14.25-9.21,20.44-14.93,9.41-8.69,19.02-17.73,26.19-28.45,.18-.12,.35-.25,.52-.42,.4-.4,.79-.8,1.19-1.2,2.18-1.64,3.97-3.46,5.51-5.71,.88-1.28,.51-2.63-.38-3.52,2.28-2.46,4.57-4.92,6.85-7.38,1.14-1.23,.91-3.32-.14-4.48,2.74-2.86,5.24-5.91,7.16-9.44,1.88-3.45-3.39-6.53-5.27-3.08-1.97,3.62-4.56,6.73-7.39,9.66-.14-.96-.32-1.92-.53-2.86-.6-2.75-1.38-5.4-1.93-8.14-.28-3.44-.27-6.89,.04-10.32,.38-2.12,.87-4.21,1.46-6.28Zm-85.62,52.16c-1.52,1.03-3.09,1.96-4.73,2.77-6.92,2.45-14.5,3.35-21.78,4.32l2.75-.37c-8.08,1.09-16.24,1.75-24.37,1.01-4.43-.81-8.64-2.16-12.88-3.81-3.15-1.23-6.13-1.99-9.49-2.44-1.34-.18-2.67-.3-4.01-.4-.1-.06-.19-.12-.29-.18-.19-.92-.36-1.85-.52-2.78-.2-2.17-.26-4.33-.14-6.51,.38-1.72,.89-3.39,1.51-5.05,1.61-3.54,3.42-7.11,5.57-10.35,.06-.06,.11-.12,.17-.18,1.63-.99,3.12-2.31,4.38-3.82,.72-.11,1.44-.26,2.15-.47,4.11-1.23,8.22-2.35,12.44-3.09,5.6-.55,11.24-.56,16.87-.31,5.47,.24,10.98,.56,16.43,1.15,1.68,.3,3.33,.68,4.95,1.2,2.87,1.49,5.55,3.32,8.39,4.89,.35,.19,.7,.38,1.05,.57,.37,1.24,.73,2.49,1.09,3.74,.7,2.44,1.44,4.9,2.03,7.39-.16,.74-.27,1.5-.3,2.28-.53,2.38-.43,4.77,.32,7.15,.13,.47,.29,.94,.46,1.41-.65,.65-1.33,1.28-2.02,1.89Z"/><path class="cls-1" d="M634.37,329.38c-.85-5.97-2.76-12.3-7.54-16.34-5.57-4.71-12.29-5.9-19.41-5.76-5.87,.12-11.76,.15-17.62,.47-6.55,.36-13.28,1.41-19,4.84-3.58,2.15-6.42,4.96-8.82,8.35-2.43,3.43-3.36,7.4-3.76,11.51-.25,2.63,1.4,5.94,3.2,7.74,1.86,1.86,4.88,3.26,7.56,3.21,4.46,2.34,9.48,2.88,14.48,2.78,4.49-.09,8.99-.31,13.47-.6,8.98-.58,17.93-1.46,26.88-2.34,3.56-.35,6.36-1.42,8.59-4.31,2.3-2.98,2.47-5.92,1.96-9.54Z"/><path class="cls-12" d="M474.99,295.46c-.6-.6-1.26-1.09-1.97-1.47-.72-2.03-2.56-3.52-4.87-3.53-2.56,0-4.05-.23-6.7-1.07-.89-.28-1.86-.25-2.76,.01-6.82-2.84-14.06-7.2-19.29-12.91-1.58-1.73-2.25-2.62-3.5-4.56-1.35-2.11-2.55-4.31-3.78-6.49-2.55-4.52-5.1-9.04-7.64-13.57-.04-.07-.09-.14-.13-.2-.69-5.19-2.43-10.25-4.21-15.17-.69-1.91-2.56-3.2-4.63-2.63-1.85,.51-3.33,2.71-2.63,4.63,.55,1.53,1.11,3.07,1.62,4.62-.12,.03-.24,.05-.36,.09-.54,.16-1.18-.28-1.69-.55-1.09-.58-2.17-1.15-3.32-1.61-2.23-.88-4.65-1.26-7.04-1.2-3.48,.08-4.88,4.75-2.57,6.68-.23,.23-.44,.46-.64,.7-2.08,2.48-3.67,6.29-.27,8.47,.91,.59,1.84,.85,2.76,.89-.14,.86-.28,1.73-.5,2.63-.94,3.76,3.52,6.14,6.3,3.66,1.41-1.25,2.82-2.51,4.23-3.76,.37,.39,.81,.7,1.29,.92,6.09,14.82,17.42,26.83,28.85,37.83,6.44,6.2,13.48,11.94,21.99,15.01,2.27,.82,4.91,1.69,7.32,.98,2.91-.85,4.46-3.29,5.48-5.96,1.53-4,1.92-9.15-1.33-12.45Z"/><path class="cls-12" d="M781.77,237.43c-.2-.34-.44-.65-.71-.94,.57-1.03,.83-2.24,.66-3.34-.42-2.76-2.46-4.18-5.11-4.51-1.83-.23-3.57-.12-5.23,.25,.53-2.49-.59-5.08-3.02-6.07-2.18-.88-5.43-.27-6.5,2.13-.73,1.63-1.45,3.26-2.18,4.89-.8,1.8-1.67,3.5-1.6,5.54,.03,.81,.21,1.58,.51,2.3-.83,.97-1.6,1.97-2.33,2.96-4.41,6.01-8.49,12.27-12.87,18.3-4.18,5.74-8.56,11.27-13.75,16.5-2.48,2.49-5.35,5.1-7.97,7.11-2.97,2.28-6.62,4.56-8.6,8.14-2.18,3.94-2.6,8.57-2.32,12.99,.14,2.3,.21,4.74,1.32,6.82,1.5,2.82,4.55,4.46,7.72,3.53,1.64-.48,3.3-1.87,3.63-3.63,.03-.18,.06-.36,.09-.54,14.04-20.15,31.68-37.91,44.41-59.14,.11-.19,.22-.37,.33-.56,.2-.3,.39-.6,.59-.91,.63,.31,1.29,.59,1.97,.83,1.72,.93,3.74,1.2,5.7,1.35,4.16,.31,6.04-4.53,4.62-7.69,.24-.32,.46-.67,.64-1.07,.77-1.76,1.02-3.5,0-5.25Z"/><path class="cls-10" d="M597.04,197.35c-2.48-17.67-15.36-32.23-30.05-41.43-15.42-9.67-34.17-14.14-52.28-12.07-17.73,2.03-34.69,9.81-47.59,22.18-12.79,12.26-21.31,28.58-25.52,45.68-5.46,22.16-3.69,45.49,1.86,67.44,.57,2.24,4.03,1.29,3.46-.95-8.89-35.12-7.16-75.59,17.57-104.19,11.3-13.07,26.79-22.03,43.7-25.52,17.1-3.53,35.22-.92,50.77,6.99,16.68,8.48,31.93,23.58,34.64,42.82,.32,2.28,3.78,1.31,3.46-.95h0Z"/><path class="cls-10" d="M452.97,308.32c8.32,21.1,20.3,40.64,35.41,57.56,7.73,8.65,16.22,17.07,26.42,22.77,10.62,5.93,22.54,10.02,34.25,13.18,13.43,3.63,27.27,5.72,41.16,6.3,2.31,.1,2.3-3.49,0-3.59-23.77-1-47.98-6.43-69.45-16.84-10.49-5.09-19.04-12.74-26.95-21.2-7.49-8.01-14.27-16.68-20.24-25.88-6.8-10.48-12.56-21.64-17.15-33.26-.84-2.12-4.31-1.2-3.46,.95h0Z"/><path class="cls-10" d="M598.1,197.47c1.35-14.47,10.12-27.44,21.71-35.86,13.35-9.7,29.98-13.12,46.26-12.32,8.82,.43,17.57,2.07,26.03,4.57,7.9,2.34,15.1,5.94,21.25,11.48,11.6,10.47,18.74,25.21,22.95,40.05,5.41,19.1,5.82,39.49,1.18,58.79-.54,2.24,2.92,3.2,3.46,.95,4.34-18.05,4.43-37.01,.26-55.1-3.72-16.13-10.72-32.34-22.35-44.38-5.7-5.9-12.5-10.48-20.17-13.39-8.56-3.25-17.76-5.17-26.85-6.13-17.3-1.83-35.64,.68-50.53,10.12-14.36,9.1-25.18,24.01-26.78,41.19-.21,2.3,3.38,2.28,3.59,0h0Z"/><path class="cls-10" d="M730.42,300.87c-6.99,21.19-19.08,40.56-34.85,56.32-7.91,7.91-16.73,14.9-26.28,20.74-11.08,6.77-23.16,11.92-35.11,16.94-13.74,5.77-28.34,10.69-43.46,9.17-2.29-.23-2.28,3.36,0,3.59,13.59,1.37,26.94-2.35,39.47-7.29,6.47-2.55,12.83-5.38,19.18-8.22,6.17-2.76,12.29-5.63,18.16-8.98,19.89-11.36,36.92-27.57,49.55-46.66,7.11-10.74,12.76-22.43,16.79-34.66,.72-2.2-2.74-3.14-3.46-.95h0Z"/><path class="cls-11" d="M422.27,246.47c.9,6.06,3.73,11.56,6.87,16.75,3.11,5.15,6.58,10.17,10.77,14.52,8.52,8.83,19.9,13.19,31.21,17.26,2.18,.78,3.11-2.68,.95-3.46-10.73-3.86-21.55-7.96-29.63-16.34-3.92-4.06-7.12-8.72-10.05-13.53-3.06-5.03-5.79-10.27-6.66-16.16-.34-2.28-3.8-1.31-3.46,.95h0Z"/><path class="cls-11" d="M425.7,245.58c-.14-2.98-.99-5.89-2.65-8.38-1.53-2.3-3.95-4.92-6.77-5.52-2.74-.58-5.22,1.34-6.14,3.84-1.13,3.05,.28,6.18,1.83,8.8,.68-.88,1.35-1.76,2.03-2.63-4.75-1.63-10.73-6.07-15.45-1.67-3.42,3.19-.82,10.47,4.27,8.83,2.18-.71,1.29-4.07-.95-3.46-3.78,1.03-7.79,4.37-7.04,8.72,.65,3.76,5.02,6.51,8.49,4.42-.82-.82-1.64-1.64-2.45-2.45-1.19,1.77-2.36,3.85-1.83,6.07,.42,1.73,1.72,3.23,3.54,3.47,1.93,.26,4.14-.92,5.71-1.94,1.84-1.19,3.34-2.72,4.61-4.51-1.09-.14-2.19-.29-3.28-.43,8.23,20.29,23.04,37.6,41.78,48.93,5.3,3.21,10.91,5.88,16.71,8.06,2.16,.81,3.1-2.65,.95-3.46-19.5-7.32-36.42-21.14-47.71-38.63-3.24-5.02-6.03-10.33-8.27-15.86-.59-1.47-2.34-1.75-3.28-.43-1.29,1.81-3.04,3.27-5.07,4.18-.85,.38-2,.96-2.23-.35-.2-1.13,.88-2.43,1.47-3.3,1.02-1.51-.97-3.35-2.45-2.45-1.62,.98-3.36-1.1-3.14-2.67,.3-2.13,2.58-3.4,4.45-3.91-.32-1.15-.64-2.31-.95-3.46-.94,.3-1.57-1.04-1.42-1.86,.26-1.35,2.07-1.73,3.2-1.76,3.32-.09,6.35,2.34,9.4,3.38,1.51,.52,2.79-1.34,2.03-2.63-.94-1.58-2.21-3.64-1.64-5.56,.64-2.14,2.33-1.94,3.82-.82,2.95,2.24,4.69,5.78,4.86,9.46,.11,2.3,3.69,2.31,3.59,0h0Z"/><path class="cls-11" d="M716.14,291.13c9.2-8.09,17.68-16.97,25.3-26.56,3.84-4.83,7.48-9.82,10.88-14.97,3.38-5.11,6.94-10.41,9.32-16.08,1.05-2.5,1.38-6.83,3.77-8.46,.69-.47,2.21-.98,2.86-.16,1.06,1.33-1.07,3.64-1.87,4.54-1.28,1.43,.43,4.07,2.17,2.82,2.64-1.9,6.16-2.63,9.21-1.25,1.23,.55,2.88,1.77,2.83,3.29-.03,1.05-1.23,2.12-2.2,1.48-.3,1.11-.6,2.23-.91,3.34,1.31,.15,3.44,1.15,3.4,2.74-.02,.85-1.32,2.1-2.1,1.34-.42,1.02-.85,2.04-1.27,3.06,.82-.1,1.56,.39,1.62,1.3,.06,.97-.89,1.68-1.7,1.99-2.18,.83-4.46-.65-6.15-1.88-.82-.6-1.95-.09-2.45,.64-15.55,22.83-32.87,44.41-51.78,64.53-1.58,1.68,.95,4.22,2.54,2.54,19.12-20.35,36.63-42.18,52.34-65.26-.82,.21-1.64,.43-2.45,.64,3.5,2.53,8.79,4.06,12.01,.18,2.58-3.12,.47-8.82-3.97-8.27-1.45,.18-2.49,1.88-1.27,3.06,2.65,2.58,7.16,.78,8.07-2.62,1.14-4.22-3.22-7.17-6.84-7.58-1.91-.22-2.23,2.45-.91,3.34,2.08,1.39,4.71,.62,6.28-1.18,1.86-2.14,1.56-5.1-.11-7.25-3.75-4.83-11.39-4.62-16.01-1.29,.72,.94,1.45,1.88,2.17,2.82,1.91-2.13,3.96-5.04,2.85-8.03-.96-2.6-3.85-3.49-6.36-2.79-2.85,.8-4.41,3.22-5.36,5.86-.56,1.56-.94,3.18-1.54,4.73-.74,1.88-1.74,3.67-2.74,5.42-7.04,12.3-15.43,23.84-24.91,34.38-5.41,6.02-11.18,11.71-17.26,17.06-1.74,1.53,.81,4.06,2.54,2.54h0Z"/><path class="cls-10" d="M550.67,253.7c-1.88,1.89-2.71,4.68-2,7.28,.34,1.24,1.04,2.46,2.41,2.68,1.34,.21,2.41-.73,2.98-1.86,.62-1.23,.62-2.74,.78-4.09,.17-1.39,.03-2.8-1.29-3.6-2.62-1.6-5.34,1.53-3.84,4.02,1.19,1.97,4.3,.17,3.1-1.81-1.04-.11-1.54,.19-1.5,.92-.02,.16-.04,.31-.06,.47-.06,.47-.11,.94-.18,1.41-.02,.16-.21,.84-.19,1.03-.26,.33-.05,.4,.63,.21,.68,.25,.89,.14,.62-.34,.06-.69-.18-1.3,.02-2.02,.19-.69,.55-1.26,1.06-1.76,1.63-1.64-.91-4.18-2.54-2.54h0Z"/><path class="cls-10" d="M634.93,255.21c-2.21,2.38-2.65,5.96-.9,8.74,.62,.99,1.96,1.18,2.82,.36,2.18-2.07,2.61-5.32,1.18-7.94-1.11-2.03-4.21-.22-3.1,1.81,.67,1.23,.38,2.64-.62,3.59,.94,.12,1.88,.24,2.82,.36-.88-1.4-.81-3.16,.34-4.4,1.57-1.69-.96-4.23-2.54-2.54h0Z"/><path class="cls-11" d="M530.29,264.1c-3.86,5.3-.53,13.5,6.55,12.41,2.27-.35,1.31-3.81-.95-3.46-1.51,.23-2.94-.84-3.47-2.19-.67-1.73-.07-3.51,.97-4.94,1.36-1.87-1.75-3.66-3.1-1.81h0Z"/><path class="cls-11" d="M520.3,273.19c-1.48,5.27,2.43,10.41,7.93,10.28,2.3-.06,2.31-3.64,0-3.59-3.17,.08-5.33-2.66-4.47-5.74,.63-2.23-2.83-3.18-3.46-.95h0Z"/><path class="cls-11" d="M653.37,267.16c1.23,1.39,.78,3.5-.37,4.78-1.28,1.42-3.18,1.99-5.01,2.31-2.27,.4-1.31,3.86,.95,3.46,3.04-.53,6.21-2,7.76-4.81,1.49-2.7,1.25-5.96-.81-8.27-1.54-1.73-4.07,.82-2.54,2.54h0Z"/><path class="cls-11" d="M660.99,274.47c.32,3.29-3.57,4.22-6.04,4.84-2.24,.56-1.29,4.02,.95,3.46,4.05-1.01,9.17-3.23,8.68-8.3-.22-2.28-3.81-2.3-3.59,0h0Z"/><path class="cls-10" d="M529.03,208.43c9.77-.91,19.59-.98,29.38-.22,2.3,.18,2.29-3.41,0-3.59-9.79-.76-19.61-.68-29.38,.22-2.28,.21-2.3,3.8,0,3.59h0Z"/><path class="cls-10" d="M628.56,207.09c8.96-.62,17.94-.73,26.92-.33,2.31,.1,2.3-3.49,0-3.59-8.97-.4-17.96-.29-26.92,.33-2.29,.16-2.31,3.75,0,3.59h0Z"/><path class="cls-10" d="M591.03,278.05c-.62,1.23-.79,2.53-.46,3.87,.22,.91,1.31,1.54,2.21,1.25,.95-.31,1.49-1.23,1.25-2.21-.02-.1-.03-.51-.04-.2,0-.17,0-.34,0-.51-.03,.32,.05-.1,.06-.19,.07-.34-.09,.13,.08-.2,.42-.84,.25-1.98-.64-2.45-.81-.43-2.01-.25-2.45,.64h0Z"/><path class="cls-10" d="M557.85,333.09c.47-5.57,2.9-10.92,6.72-14.99,4.22-4.49,9.82-6.87,15.8-8.01,6.57-1.25,13.41-1.2,20.08-1.27,6.31-.06,13.35-.64,19.4,1.52,5.54,1.98,8.52,6.91,10.18,12.29,.82,2.66,1.39,5.4,1.91,8.14,.54,2.89,1,6.14-1.52,8.23-1.88,1.57-4.5,2.14-6.85,2.55-3.32,.58-6.7,.93-10.05,1.34-7.02,.86-14.07,1.56-21.15,1.7-7.5,.15-15.38-.09-22.65-2.13-5.24-1.46-10.92-4.33-12.26-10.07-.52-2.25-3.98-1.3-3.46,.95,3.06,13.15,21.38,14.46,32.13,14.8,8.11,.26,16.21-.38,24.26-1.3,4.08-.47,8.15-.99,12.22-1.55,2.84-.39,5.74-.94,8.29-2.33,2.47-1.34,4.36-3.58,4.88-6.38,.6-3.27-.33-6.74-1.02-9.93-1.28-5.94-3.26-12.35-8.06-16.42-5.35-4.55-12.51-4.92-19.22-4.99-7.76-.08-15.64-.16-23.36,.7-7.68,.86-15.23,3.07-20.97,8.49-5.18,4.88-8.3,11.59-8.9,18.66-.19,2.3,3.39,2.29,3.59,0h0Z"/><path class="cls-5" d="M473.4,224.22c-1.01,16.66-1.06,33.37-.16,50.04,.12,2.3,3.71,2.31,3.59,0-.9-16.67-.84-33.37,.16-50.04,.14-2.31-3.45-2.3-3.59,0h0Z"/><path class="cls-5" d="M484.63,223.14c-.2,14.14,.07,28.28,.78,42.41,.12,2.3,3.7,2.31,3.59,0-.72-14.12-.98-28.27-.78-42.41,.03-2.31-3.56-2.31-3.59,0h0Z"/><path class="cls-5" d="M496.96,225.31c-.21,5.21-.42,10.42-.63,15.63-.11,2.6-.21,5.21-.32,7.81-.08,2-.76,4.65,.65,6.27,.56,.64,1.48,.6,2.17,.28,.59-.27,.96-.77,1.07-1.4,.13-.72-.07-1.69-.82-2.03-.05-.02-.1-.04-.15-.07-2.09-.93-3.92,2.16-1.81,3.1,.05,.02,.1,.04,.15,.07-.27-.68-.55-1.35-.82-2.03-.01,.08-.03,.16-.04,.24,.27-.36,.55-.71,.82-1.07-.07,.03-.14,.06-.2,.09,.72,.09,1.45,.19,2.17,.28-.09-.1-.17-.2-.26-.29,.18,.42,.35,.85,.53,1.27-.22-2.22,.12-4.61,.21-6.84,.1-2.37,.19-4.74,.29-7.1,.19-4.74,.38-9.47,.57-14.21,.09-2.31-3.49-2.3-3.59,0h0Z"/></g></g><g><path class="cls-3" d="M1085.72,208.22c-1.15-.7-2.21-.48-3.27,.25-3.02,2.11-6.08,4.16-9.08,6.31-1.22,.88-1.73,2.2-.84,3.52,.92,1.36,2.44,1.27,3.57,.38,3.04-2.38,6.18-4.59,9.47-6.62,1.46-.9,1.37-2.95,.15-3.84Z"/><path class="cls-3" d="M1091.06,225c-.92-1-2.13-.95-3.25-.67-3.08,.76-6.18,1.27-9.34,1.46-1.64,.1-3.08,.78-2.87,2.69,.25,2.23,1.93,2.49,3.73,1.99,3.23-.88,6.55-1.08,9.83-1.6,2.39-.38,3.27-2.46,1.9-3.87Z"/><path class="cls-3" d="M1070.45,202.34c1.2-1.39,2.41-2.76,3.58-4.17,.95-1.14,1.27-2.43,.11-3.58-1.19-1.18-2.58-.85-3.5,.28-2.52,3.1-4.95,6.27-7.3,9.51-.78,1.07-.45,2.26,.68,3.04,.98,.67,1.99,.42,2.69-.41,1.28-1.53,2.43-3.17,3.64-4.76,.03,.03,.07,.06,.1,.09Z"/></g><g><path class="cls-3" d="M944.63,139.24c1.58-2.64,2.86-4.86,4.22-7.01,.88-1.4,1.75-2.86,2.89-4.04,2.43-2.54,4.33-2.31,6.13,.76,1.4,2.38,2.52,4.92,3.8,7.37,.69,1.31,1.43,2.61,3.02,3.2,2.13-2.54,3.3-5.66,4.86-8.57,.69-1.29,1.43-2.59,2.34-3.73,.9-1.13,2.23-1.35,3.48-.57,1.35,.84,1.36,2.23,.7,3.42-1.17,2.09-2.61,4.02-3.86,6.07-1.05,1.73-1.94,3.57-3,5.3-2.76,4.52-4.75,4.75-8.72,1.1-2.79-2.57-3.8-6.27-6.01-9.54-3.03,2.71-4.18,6.53-6.42,9.59-1.24,1.7-1.82,4.49-4.65,4.06-2.76-.41-2.86-3.19-3.44-5.19-1.19-4.07-1.99-8.25-3.03-12.36-.47-1.88-.19-3.49,1.84-3.89,2.09-.42,2.96,1.16,3.18,2.96,.43,3.58,.55,7.22,2.66,11.08Z"/><path class="cls-3" d="M994.48,124.61c.36,.32,.49,.54,.64,.55,12.07,.82,13.7,10.01,12.5,18.66-.1,.72-.27,1.48-.59,2.12-.73,1.45-1.84,2.38-3.57,1.68-1.48-.6-1.8-1.94-1.31-3.23,1-2.67,1.37-5.38,.91-8.17-.59-3.57-2.91-5.85-6.13-6.2-2.49-.27-4.36,.3-4.81,3.19-.43,2.74-.98,5.46-1.5,8.19-.31,1.63-.51,3.3-1.01,4.88-.45,1.42-1.68,1.96-3.11,1.56-1.2-.34-1.78-1.34-1.71-2.53,.06-1.1,.26-2.22,.59-3.27,2.3-7.44,3.73-15.08,5.22-22.7,.11-.54,.05-1.12,.21-1.64,.36-1.15,1.15-1.95,2.4-1.89,1.55,.07,2.25,1.15,2.4,2.57,.25,2.21-.79,4.26-1.12,6.24Z"/><path class="cls-3" d="M1053.62,140.69c-.85,3.81-2.02,7.72,1.89,10.94,.92,.76,1.1,1.93,.36,2.99-.71,1.02-1.8,1.18-2.96,1.03-1.41-.18-2.31-1.12-3.05-2.18-1.67-2.36-2.28-5.07-1.89-7.88,.42-3.01,1.82-6.25-3.31-6.42-.73-.02-1.44-1.13-1.29-2.19,.18-1.31,1.28-2.16,2.27-2.04,3.03,.36,4.48-.9,5.69-3.63,.87-1.96,3.4-1.33,3.81,1.17,.35,2.13,1.1,3.13,3.08,3.65,1.71,.46,3.2,1.47,2.5,3.55-.73,2.16-2.58,1.58-4.21,1.27-.87-.16-1.68-.81-2.88-.26Z"/><path class="cls-3" d="M1093.06,120c.18,2.21-.85,3.92-2.21,5.51-3.42,4.01-8.89,6.26-10.27,12.06-.12,.51-1.1,.96-1.93,.66-.93-.33-1.64-.95-1.87-1.89-.6-2.49,.66-4.31,2.37-5.86,2.33-2.11,4.84-4.04,7.11-6.22,2.87-2.75,3.2-4.45,1.65-6.7-1.35-1.95-4.34-2.76-7.03-1.89-.34,.11-.63,.38-.96,.53-3.23,1.46-4.95,1.28-5.52-.55-.55-1.78,1-3.29,4.24-4.12,5.9-1.51,10.92,.07,13.24,4.22,.73,1.3,1.25,2.69,1.19,4.23Z"/><path class="cls-3" d="M1081.51,148.52c-.05,1.81-1.23,2.93-3,3.27-1.81,.35-2.94-.82-2.91-2.47,.03-1.86,1.38-3,3.24-3.19,1.54-.16,2.38,.76,2.67,2.39Z"/><path class="cls-3" d="M1029.01,134.95c-1.11-2.83-3.55-3.99-6.26-4.8-.88-.26-1.84-.31-2.65-.68-.88-.4-1.42-1.24-1.24-2.25,.18-.97,.85-1.67,1.82-1.85,1.67-.32,3.28-.11,4.88,.58,5.57,2.41,8.77,6.57,9.65,12.58,.82,5.61-.33,11.07-1.32,16.51-.38,2.09-1.64,3.1-4.07,2.03-3.04-1.33-6.27-2.17-8.83-4.48-3.09-2.8-4.95-6.03-3.83-10.3,1.16-4.4,4.51-6.05,8.69-6.51,1.04-.11,2.23,.33,3.16-.83Zm-3.18,5.05c-2.86,.33-4.52,2.09-4.41,4.68,.11,2.83,3.72,6.51,6.69,6.44,3.1-.08,1.89-3,2.61-4.63,.21-.48,.09-1.1,.1-1.21,.17-4.9-.73-5.77-4.99-5.28Z"/></g><g><g><path class="cls-3" d="M154.78,230.86c-.34-2.07-.71-3.78-.9-5.51-1.95-17.66,7.25-28.19,24.83-33.68,6.63-2.07,13.54-2.02,20.18,.16,2.45,.8,3.46,.26,4.45-1.83,1.44-3.02,3.52-5.59,5.82-8.04,9.74-10.34,29.63-11.82,39.97,1.38,.43,.55,.8,1.16,1.27,1.84,4.82-2.57,8.72-5.77,13.59-7.33,11.4-3.64,25.52-.94,33.15,11.24,2.07,3.31,4.1,4.52,8.28,4.39,14.7-.45,30.86,15.9,23.97,32.31-1.95,4.65-1.63,7.28,2.31,10.87,9.73,8.87,12.11,25.6,6.13,37.32-2.87,5.62-6.23,10.94-10.83,15.86,5.17,5.9,7.44,12.81,7.08,20.67-.17,3.63-1.02,6.9-3.12,9.83-4.4,6.14-9.77,10.85-17.46,12.53-5.44,1.19-5.34,1.39-6.17,7.1-1.65,11.31-4.51,22.37-9.47,32.64-6.68,13.83-16.85,23.97-32.66,26.91-2.08,.39-2.95,1.42-3.4,3.34-.72,3.07-1.43,6.15-1.5,9.3-.17,7-.22,14-.25,21-.01,2.62,.38,5.21,.96,7.79,1.05,4.73,3.18,7.83,8.23,9.66,8.15,2.97,16.54,4.15,24.95,5.73,11.79,2.22,23.81,4.15,33.91,11.57,14.64,10.75,23.1,24.97,24.58,43.18,.46,5.6,.23,11.19,.22,16.79,0,3.89-1.85,6.26-5.17,7.7-21.85,9.47-44.21,17.34-67.73,21.63-7.04,1.29-13.95,3.24-20.93,4.86-7.52,1.75-15.2,2.37-22.87,2.85-3.33,.21-6.53-1.2-9.64-2.28-19.13-6.67-38.89-11.55-57.61-19.33-13.85-5.75-28.31-10.1-41.43-17.59-6.88-1.18-7.21-5.97-7.07-11.69,.34-14.26,6.32-25.55,16.94-34.7,9.13-7.86,20.1-11.8,31.5-14.82,10.13-2.69,20.24-5.4,29.59-10.34,2.52-1.33,3.94-3.1,4.74-5.83,4-13.57,3.5-27.32,2.01-41.13-.11-1.03-.6-2.03-.72-3.06-.3-2.64-1.89-3.44-4.33-3.5-5.32-.13-10.3-1.58-15.14-3.79-8.26-3.77-13.45-10.2-15.39-18.79-2.76-12.26-6.02-24.48-6.13-37.19,0-1.04-.32-2.09-.33-3.13-.03-4.86-1.25-8.81-6.93-9.55-11.54-7.14-16.19-14.19-15.27-26.95,.22-3.07,1.49-5.74,2.7-8.44,.75-1.69,1.34-3.09-.51-4.6-6.19-5.03-7.14-11.74-5.44-19,.55-2.37,.67-4.36-.65-6.46-5.91-9.42,.7-26.71,11.99-29.87,1.83-.51,3.59-1.27,5.72-2.04Zm-6.88,80.82c3.06,7.2,9.04,11.56,16.32,13.65,3.28,.94,4.08,2.38,4.17,5.36,.45,15.09,2.97,29.89,6.35,44.56,.76,3.28,1.95,6.32,3.89,9.08,5.58,7.93,13.92,10.09,22.86,10.8,5.16,.41,6.71,1.33,8.14,6.21,.54,1.84,.93,3.73,1.23,5.62,1.17,7.46,1.1,15,.96,22.51-.04,2.34,.68,3.63,2.96,4.08,1.02,.2,2.01,.57,3.03,.82,6.72,1.68,13.57,1.09,20.38,1,4.19-.06,8.36-.13,12.48-1.27,2.54-.7,3.78-1.61,3.71-4.53-.14-5.94,.16-11.89,.28-17.84,.08-4.23,.9-8.35,2.21-12.35,.9-2.75,2.46-4.84,5.79-5.3,14.8-2.04,24.07-11.41,30.1-24.14,5.26-11.1,8.22-23.02,9.47-35.29,.56-5.49,.55-5.46,5.73-6.43,2.06-.38,4.17-.71,6.1-1.46,12.3-4.77,18.32-15.48,11.85-28.57-2.14-4.33-5.15-6.85-10.27-5.63-3.25,.78-6.21-.06-9.09-1.57-1.54-.81-3.15-1.5-4.76-2.17-4.5-1.85-8.04-4.84-10.86-8.78-2.97-4.14-5.47-8.52-7.22-13.32-.45-1.24-.81-2.53-2.87-2.29-8.09,.95-15.54-1.03-22.49-5.8-4.92,7.12-12.57,8.97-20.14,10.17-6.31,1-12.93,1.57-19.08-1.39-1.72-.83-2.95-.37-4.24,.79-7.74,6.98-17.57,8.26-27.26,9.37-3.25,.37-4.58,1.33-5.21,4.24-.59,2.76-1.97,5.26-3.47,7.6-2.99,4.71-10.75,11.09-19.18,9.25-3.59-.78-6.88-2.43-10.41-4.05-3.52,5.77-3.83,11.46-1.46,17.04Zm91.03-11.11c0-1.57-.03-3.14,0-4.71,.04-2.13,.28-4.57-2.72-4.67-2.99-.1-2.93,2.49-3.13,4.52-.21,2.08-.32,4.19-.19,6.27,.13,2.08-.5,3.19-2.64,3.6-2.49,.48-4.53,1.86-5.78,4.13-2.17,3.95-3.06,8.18-2.19,12.62,1.16,5.91,9.59,11.04,15.46,9.52,1.44-.37,2.61-1.05,2.61-2.78,0-1.71-1.11-2.52-2.58-2.8-1.36-.26-2.81-.11-4.15-.42-4.27-.99-6.14-3.37-5.95-7.33,.25-5.01,1.88-6.9,6.57-7.59,3.44-.51,4.15-1.17,4.42-4.61,.15-1.91,.03-3.83,.03-5.75h.23Zm12.85,60.82c1.75-1.17,3.36-2.52,4.6-4.22,.88-1.2,1.09-2.61-.07-3.82-1.17-1.21-2.49-1.08-3.76-.13-.69,.52-1.29,1.17-1.94,1.75-2.51,2.24-5.37,3.97-8.65,4.65-9.91,2.07-19.42,2.15-26.85-6.33-1.08-1.23-2.35-1.65-3.69-.85-1.62,.97-1.7,2.6-.84,4.1,.68,1.19,1.59,2.29,2.58,3.25,5.67,5.48,13.02,6.1,19.23,6.91,7.64-.19,13.84-1.61,19.39-5.32Zm11.97-71.34c-.12-2.56-2.21-4.49-4.82-4.45-2.85,.04-5.31,2.69-5.08,5.48,.2,2.4,2.5,4.25,5.15,4.14,2.78-.11,4.88-2.4,4.75-5.17Zm-49.32-4.45c-2.74-.13-5.02,2.37-5.01,5.49,0,2.74,1.89,4.6,4.58,4.53,2.64-.07,4.86-2.41,4.88-5.12,.01-2.55-2.02-4.78-4.44-4.9Z"/><path class="cls-1" d="M211.23,438.85c6.55,1.27,6.57,1.28,5.76,7.29-.33,2.43-.76,4.84-1.15,7.25-.29,1.82-.46,3.69,1.95,4.1,2.18,.36,3.13-1.13,3.6-2.99,.3-1.18,.55-2.38,.75-3.59,.34-2.07,.85-4.14,.89-6.22,.06-2.68,1.09-3.56,3.8-3.47,2.56,.08,3.91,.53,3.73,3.49-.21,3.49-.02,7,.06,10.5,.04,2.03,.94,3.42,3.18,3.24,2.07-.16,2.41-1.77,2.42-3.43,.01-3.68-.02-7.35-.12-11.03-.04-1.59,.21-2.77,2.18-2.75,1.73,.01,3.61-.47,3.97,2.14,.24,1.73,.65,3.43,1,5.15,.31,1.54,.63,3.08,.95,4.62,.38,1.87,1.17,3.44,3.4,3.18,2.44-.29,2.35-2.2,2.14-4-.14-1.21-.38-2.42-.61-3.62-.47-2.55-.95-5.09-1.41-7.52,.5-.33,.76-.59,1.07-.7q5.47-1.81,7.15,3.87c.8,2.7,2.19,5.13,3.63,7.54,.74,1.23,1.74,2.02,3.18,2.53,9.73,3.44,19.58,5.95,29.88,7.47,11.66,1.73,23.56,3.86,33.32,11.5,11.02,8.61,18.34,19.42,20.42,33.59,.89,6.11,.74,12.2,.98,18.31,.12,2.95-1.06,4.5-3.6,5.57-3.22,1.35-6.29,3.06-9.55,4.3-18.15,6.87-36.47,13.13-55.66,16.6-7.21,1.3-14.3,3.28-21.46,4.9-12.32,2.79-24.43,3.38-36.46-1.82-12.04-5.2-25.1-7.47-37.29-12.35-6.64-2.66-13.56-4.57-20.02-7.72-2.19-1.07-4.46-2.04-6.79-2.75-9.74-2.97-18.75-7.61-27.87-12-1.62-.78-2.19-1.7-2.3-3.54-.75-13.47,4.67-24.11,14.66-32.72,8.58-7.39,18.92-11.13,29.67-13.77,8.33-2.05,16.43-4.78,24.5-7.6,3.08-1.08,5.92-2.93,8.92-4.34,2.6-1.22,3.5-4.29,4.24-6.99,1.11-4.03,1.95-8.13,2.9-12.2Z"/></g><g><path class="cls-3" d="M134.81,127.55c-.43,8.9-2.33,15.9-8.92,20.24-6.85,4.52-8.83,11.02-9.12,18.53-.09,2.4,.17,4.82,.03,7.22-.28,4.97-3.2,7.29-8.13,6.64-6.35-.84-9.91-4.9-9.47-11.45,.41-6.08,.97-12.18,2.04-18.17,.93-5.19,3.55-9.7,7.96-12.92,2.61-1.9,4.57-4.28,5.72-7.34,.59-1.56,.4-3.01-.7-4.13-1.19-1.21-2.76-.98-4.13-.24-2.63,1.42-4.84,3.4-6.99,5.46-2.46,2.35-5.21,3.34-8.62,2.38-3.65-1.03-5.56-3.25-5.84-7.08-.31-4.25,.66-8.15,3.49-11.38,10.13-11.52,28.18-12.22,37.93,1.05,2.78,3.78,5.81,7.36,4.75,11.18Zm-34.82-13.4c-3.86,2.08-5.91,5.54-6.57,9.75-.27,1.74-.68,3.86,1.43,4.95,2.04,1.05,3.9,.64,5.53-1.05,2.08-2.14,4.55-3.78,7.14-5.24,3.6-2.02,6.78-1.98,9.31,.08,2.53,2.05,3.31,5.95,1.79,9.69-1.36,3.32-3.53,6.11-6.4,8.24-3.63,2.69-5.8,6.36-6.45,10.65-.92,6.03-1.35,12.13-1.82,18.22-.19,2.51,.53,4.77,3.2,5.89,3.07,1.29,4.35,.57,4.62-2.8,.37-4.61,.64-9.21,1.31-13.8,.74-5.12,3.25-8.95,7.02-12.17,1.41-1.2,2.98-2.22,4.34-3.46,4.44-4.05,7.19-14.01,5.32-18.98-2.68-7.14-11.26-12.85-19.15-12.76-3.78,.03-7.33,1.03-10.62,2.81Z"/><path class="cls-3" d="M116.95,196.04c-.16,1.54-.5,3.93-1.46,6.17-1.8,4.21-6.08,5.63-10.1,3.4-5.8-3.22-6.69-13.7-1.43-17.79,2.79-2.18,6.03-1.86,8.95-.51,3.18,1.48,4.28,4.43,4.04,8.72Zm-11.34,3.1c.65,1.81,1.73,3.39,3.89,3.32,2.16-.07,2.43-1.94,2.73-3.56,.3-1.61,.74-3.22,.22-4.9-.62-2.02-2.13-3.1-4.04-3.17-2.06-.07-2.57,1.71-2.87,3.41-.13,.72-.2,1.45-.32,2.36,.11,.75,.1,1.7,.4,2.55Z"/></g></g><g><g><path class="cls-3" d="M1004.64,392.46c-.18,9.12-4.75,16.66-9,24.23-1.72,3.06-5.05,3.04-8.54,.52-.97-.7-1.77-1.67-2.55-2.6-.79-.93-1.45-1.96-2.34-3.18-2.44,1.43-2.93,3.39-2.36,5.99,3.21,14.55,3.07,29.54,5.89,44.16,1.5,7.78,1.15,15.43-5.27,21.54-2.04,1.94-3.02,4.79-5.11,6.82-2.81,2.73-3.97,3.06-6.66,.61-6.42-5.87-11.49-12.77-13.55-21.33-1.07-4.42,.77-8.83,1.42-13.24,1.76-11.88,5.78-23.32,6.77-35.34,.26-3.21,.23-3.21-2.13-6.49-1.99,.02-2.44,1.84-3.46,2.99-2.93,3.33-5.07,3.44-8.04,.21-1.09-1.19-2.13-2.54-2.78-4-2.48-5.58-6.92-10.07-8.71-16.03-.88-2.93-3.85-2.9-6.08-3.31-4.16-.76-8.4-.55-12.55-2.19-2.24-.88-5.14,.55-7.51,1.81-16.87,9-32.43,19.72-43.83,35.39-4.54,6.24-8.09,13.17-9.69,20.91-.7,3.39-1.48,6.76-2.42,10.09-1.22,4.34-2.09,8.7-1.85,13.24,.07,1.41,.05,2.9-.33,4.23-.48,1.68-1.79,2.88-3.64,2.58-2.09-.34-3.47-2.03-2.87-3.96,1.17-3.76,.76-7.68,1.76-11.43,2.67-9.99,3.99-20.32,8.86-29.74,5.15-9.97,12-18.43,20.52-25.53,8.76-7.31,17.87-14.19,28.11-19.41,1.23-.63,2.36-1.45,4.47-2.76-5.87-2.26-10.07-5.66-14.67-8.44-7.8-4.71-12.88-11.9-16.57-19.9-4.59-9.97-8.82-20.18-8.72-31.53,.03-3.06-1.49-4.82-4.33-6.59-6.72-4.18-13.4-8.77-14.78-17.65-.61-3.9-.77-7.66,.77-11.4,1.01-2.44,1.8-4.97,2.65-7.48,1.19-3.54,2.7-7.23,5.75-9.19,5.63-3.61,5.77-8.92,5.19-14.31-.94-8.81-.48-17.51,1.14-26.14,2.1-11.19,8.64-19.11,18.92-23.83,1.72-.79,3.16-1.35,4.09-3.15,2.31-4.45,6.1-7.68,10.02-10.57,13.46-9.89,28.32-17,44.88-19.59,9.4-1.47,18.89-1.74,28.52,.27,10.54,2.2,21.17,4.04,31.7,6.37,10.94,2.42,19.15,8.58,26.37,16.59,1.33,1.48,2.24,3.12,4.56,3.7,13.55,3.39,19.6,13.49,22.86,26.02,2.23,8.59,2.89,17.24,1.48,26.03,2.16,1.57,2.21,3.69,1.57,5.99-1.93,9.58-5.24,18.85-6.45,28.61-.35,2.84-1.92,5.05-4.92,5.52-3.05,.48-4.94-1.5-6.43-3.82-1.36-2.11-1.69-4.6-2.05-7-1.28-8.59-4.18-16.61-8.63-24.02-5.73-9.54-9.46-19.88-12.1-30.59-1.6-6.5-5.38-10.51-11.18-13.55-15.62-8.19-32.48-11.77-49.73-13.66-8.12-.89-15.49,3.22-22.84,6.05-7.21,2.77-13.94,6.65-20.62,10.63-10.33,6.14-15.16,15.75-19.56,26.37-5.47,13.21-5.22,27.07-6.84,40.75-.34,2.84-.7,5.67-1.45,8.43-1.72,6.36-6.55,7.82-11.41,3.25-4.54-4.26-6.77-10.1-9.64-15.47-.71-1.32-.42-3.67-2.68-3.5-1.79,.13-2.63,1.91-3.19,3.4-1.56,4.2-3.53,8.37-4.15,12.76-1.11,7.9,3.38,13.74,9.79,16.85,7.14,3.47,8.64,9.01,9.22,15.78,1.15,13.48,5.27,26.07,13.94,36.5,9.53,11.46,22.35,18.07,36.79,21.38,4.76,1.09,9.7,1.39,13.9,4.23,2,1.57,2.22,4.15,3.52,6.12,2.25,3.11,3.7,6.68,5.65,9.98,1.72,2.9,3.17,3.5,4.87,.02,1.5-3.07,3.04-6.13,4.72-9.12,3.89-7.73,13.38-9.58,18.51-3.65,2.21,4.56,5.4,8.49,8.16,12.71,2.52,3.86,3.98,2.79,5.7-.66,1.82-3.65,2.59-7.64,4.11-11.38,.54-1.25,.65-2.7,1.47-3.8,2.37-3.16,4.29-3.03,5.56,.89Z"/><path class="cls-3" d="M979.15,396.18c-1.61-2.76-3.5-4.81-7.03-2.86-.33,.18-.79,.32-1.15,.25-5.16-1.01-7.46,2.07-9,6.24-5.67-1.18-11.48-.53-17.18-1.28-2.12-1.46-.9-4.34-2.55-6,2.52-2.49,5.75-1.68,8.7-1.67,14.9,.08,29.79-.53,44.35-3.75,16.13-3.57,30.18-11.53,43.34-21.56,16.76-12.77,20.68-30.32,20.43-49.76-.05-4.25,1.09-7.53,4.82-9.81,10.08-6.15,12.05-15.78,11.14-26.55-.3-3.61-2.29-6.44-4.6-9.11-2.82-3.26-6.51-5.55-9.42-8.69,1.11-1.72,.82-3.44,.01-5.16,7.8,1.64,12.64,7.33,16.71,13.33,7.42,10.94,4.32,29.55-6.39,38.18-4.2,3.38-5.98,6.83-5.86,12.15,.29,12.02-3.74,23.18-7.98,34.19-1.73,4.48-5.77,7.27-9.04,10.57-6.76,6.83-14.34,12.55-22.99,16.83-1.61,.79-3.38,1.49-4.39,3.16-2.42,1.62-6.07-.14-7.96,2.91-2.73,1.72-6.42,1.69-8.46,4.67-3.47-2.74-3.65-2.72-4.71,1.14-.26,.96-.37,1.91-1.22,2.55-3.54-1.86-7.06-.32-10.6,.04-2.97,.3-5.97,.86-8.96,0Z"/><path class="cls-3" d="M1013.1,387.79c-.72-2.04-.49-3.49,2.07-3.88,2.11-.32,3.92,.73,5.9,.97,3.72,.21,7.18,1.33,10.44,3.09,7.32,3.95,15.34,6.48,21.99,11.79,19.52,15.6,30.69,35.99,35.3,60.27,.61,3.2,1.2,6.4,1.69,9.61,.34,2.24,.76,4.91-2.42,5.24-2.9,.3-3.63-1.98-3.76-4.45-.36-6.74-1.6-13.34-3.52-19.79-5.53-18.61-14.83-34.94-30.7-46.56-9.68-7.08-20.3-12.76-32.46-14.74-1.55-.25-3.3-.24-4.53-1.55Z"/><path class="cls-3" d="M939.57,342.19c11.54,3.25,22.38,3.24,33.23,.57,3.54-.87,6.99-2.14,10.45-3.31,1.26-.42,2.06-1.08,.91-2.6-.98-1.31-.68-2.81,.66-3.76,1.36-.96,2.74-.33,3.95,.53,2.84,2.02,5.17,4.58,7.45,7.18,1.01,1.16,1.4,2.53,.26,3.86-1.11,1.29-2.61,1.49-3.75,.31-2.14-2.21-4.3-1.32-6.71-.7-10.02,2.56-19.89,5.95-30.5,5.34-4.27-.25-8.52-.49-12.75-1.2-3.23-.54-6.64-2.58-9.37,1.37-.72,1.05-2.28,.63-3.24-.35-1-1.02-.91-2.27-.22-3.36,2.06-3.26,4.17-6.49,6.33-9.68,.98-1.44,2.36-2.41,4.15-1.48,2.19,1.14,1.82,2.88,.75,4.65-.41,.68-.82,1.37-1.58,2.65Z"/><path class="cls-3" d="M963.56,308.11c4.22-.03,8.04,2.57,9.28,6.13,.58,1.67,.61,3.27-1.15,4.26-1.55,.87-2.73,.03-3.7-1.14-.52-.62-.85-1.41-1.42-1.98-2.65-2.69-4.71-2.49-6.85,.78-1.17,1.79-1.6,4.65-4.72,3.23-2.14-.98-1.84-3.62,.58-6.85,2.06-2.76,4.65-4.53,7.97-4.41Z"/><path class="cls-3" d="M962.53,364.85c-2.81-.27-5.7-.15-8.36-1.32-1.41-.62-2.42-1.67-1.86-3.34,.53-1.58,1.96-2.38,3.39-1.68,6.27,3.07,12.27,1.34,18.28-.73,1.99-.69,3.87-.5,4.4,1.74,.53,2.28-1.31,3.21-3.22,3.56-4.18,.78-8.29,2.09-12.64,1.76Z"/><path class="cls-3" d="M929.44,275.11c-3.92-.42-7.11,.18-10.18,1.31-1.85,.68-3.82,1.21-4.63-1.07-.92-2.59,1.17-3.48,3.18-4.22,3.71-1.36,7.64-.74,11.45-1.31,1.98-.29,4.05-.21,6.06-.05,1.26,.09,2.29,.85,2.28,2.34-.01,1.4-.83,2.4-2.12,2.58-2.19,.31-4.43,.32-6.03,.41Z"/><path class="cls-3" d="M997.77,270.25c-3.25-.2-6.49-.27-9.72,.31-1.71,.31-3.55-.16-3.84-2.07-.35-2.3,1.36-3.17,3.44-3.22,5.68-.13,11.37-.27,17.06-.29,1.96,0,3.82,.71,3.55,3.13-.24,2.13-2.14,2.11-3.79,2.12-2.23,.02-4.47,0-6.7,0Z"/><path class="cls-3" d="M989.4,287.94c2.71,.33,5.16,.35,7.46,1.35,1.63,.71,2.9,1.74,2.56,3.63-.38,2.16-2.07,3.19-4.06,2.67-2.99-.79-5.98-1.01-9.03-.99-1.82,0-3.27-.81-3.48-2.7-.24-2.2,1.23-3.31,3.22-3.68,1.19-.22,2.42-.21,3.33-.28Z"/><path class="cls-3" d="M933.66,292.12c1.48,.09,2.73-.17,3.79,.6,1.17,.84,2.3,1.82,2.04,3.41-.21,1.24-1.17,2.06-2.41,2.44-3.07,.94-6.38,.33-9.44,1.59-1.13,.47-2.29-.44-2.94-1.59-.85-1.49-.29-2.76,.81-3.76,2.39-2.16,5.52-2.15,8.16-2.68Z"/><path class="cls-3" d="M1023.2,291.17c2.39,.7,6.46-1.14,6.34,2.7-.09,3.09-3.9,1.84-6.15,1.96-2.08,.11-5.21,.85-5.27-2.33-.06-3.67,3.36-1.57,5.08-2.33Z"/><path class="cls-3" d="M1018.25,289.8c-.81-.64-1.36-.92-1.69-1.37-.5-.69-.67-1.62,.02-2.2,2.46-2.09,5.12-3.9,8.28-4.78,.8-.22,1.6,.36,1.87,1.19,.17,.51,.24,1.46-.03,1.65-2.78,1.91-5.64,3.71-8.44,5.51Z"/><path class="cls-3" d="M902.79,292.07c3.88,.14,6.24,.65,8.19,2.29,.83,.7,1.09,1.7,.54,2.73-.42,.78-1.15,1.18-2.01,1.04-1.99-.32-3.97-.7-5.95-1.11-1.55-.32-2.72-1.27-2.57-2.88,.16-1.77,1.65-2.09,1.81-2.07Z"/><path class="cls-3" d="M911.29,304.15c-.23,1.5-1.43,2.21-2.72,2.84-1.44,.7-2.8,1.66-4.32,2.07-1.73,.47-3.14-1.36-2.55-2.99,.61-1.68,6.63-4.51,8.27-3.85,.78,.31,1.24,.95,1.32,1.93Z"/></g><line class="cls-9" x1="851.29" y1="478.14" x2="851.29" y2="507.71"/><line class="cls-9" x1="1087.57" y1="473.3" x2="1087.57" y2="502.87"/></g><path class="cls-8" d="M213.01,327.28s-21.67,9.53-18.2,19.94"/></g></g></svg>