<?xml version="1.0" encoding="UTF-8"?><svg id="_レイヤー_2" xmlns="http://www.w3.org/2000/svg" xmlns:xlink="http://www.w3.org/1999/xlink" viewBox="0 0 1200 500"><defs><style>.cls-1{fill:#e35f0e;}.cls-2{fill:#fff;}.cls-3{fill:#040000;}.cls-4{fill:#f49c00;}.cls-5{fill:#7d7d7d;}.cls-6{clip-path:url(#clippath);}.cls-7,.cls-8,.cls-9{fill:none;}.cls-8{stroke:#231815;stroke-width:4px;}.cls-8,.cls-9{stroke-linecap:round;stroke-linejoin:round;}.cls-10{fill:#231815;}.cls-9{stroke:#040000;stroke-width:5px;}</style><clipPath id="clippath"><rect class="cls-7" width="1200" height="500"/></clipPath></defs><g id="_レイヤー_1-2"><g class="cls-6"><rect class="cls-2" width="1200" height="500"/><g><path class="cls-4" d="M720.54,113.32c-8.97-12.33-20.53-22.37-35.08-27.51-13.32-4.7-28.48-1.55-41.31,3.46-9.27,3.62-16.57,7.53-24.18,14.03-5.24,4.48-9.61,10.19-13.18,16.06-1.17,1.93-2.26,3.91-3.26,5.94-2.63-4.07-5.78-7.79-9.4-10.98-5.69-5.01-12.31-10.02-19.01-13.73-1.75-.97-3.57-1.83-5.43-2.57-3.32-1.99-6.96-3.5-10.97-4.45-7.29-1.72-15.09-2.1-22.54-2.95-8.28-.94-16.06-1.77-24.34,.38-9.18,2.39-16.43,7.75-23.58,13.7-9.2,7.65-17.01,17.71-22.77,28.15-5.83,10.59-10.39,22.37-12.48,34.31-1.2,6.88-2.17,13.89-2.33,20.88-.18,7.55,.79,14.97,1.85,22.43,1.85,13.02,6.25,25.11,11.67,37.06,9.97,22.02,26.53,41.08,45.08,56.35,11.39,9.38,23.39,18.06,35.71,26.17,12.49,8.23,25.91,15.41,40.38,19.48,11.72,3.3,23.62-1.83,30.17-11.02,7.35-1.92,14.36-4.84,21.09-9.04,6.22-3.89,12.05-8.47,17.62-13.32,4.83-1.25,9.09-3.67,13.17-7.2,10.48-9.07,18.98-20.21,26.18-32.12,3.01-3.35,5.99-6.74,8.93-10.16,4.89-5.71,8.17-11.99,8.17-19.72,0-1.04-.08-2.1-.21-3.19,3.25-7.16,6.32-14.42,8.95-21.81,3.66-10.28,5.91-20.98,7.5-31.76,3.72-25.34,9.91-54.49-6.39-76.89Z"/><path class="cls-10" d="M596.86,133.76c.03,.17,.06,.35,.09,.52,.26,1.61,2.11,2.77,3.63,2.77,1.67,0,3.17-1.18,3.63-2.77,3.76-12.8,10.08-25.07,20.6-33.65,5.25-4.28,12.11-7.38,18.85-9.31,7.38-2.11,15.1-3.32,22.77-3.65,7.49-.33,14.91,.41,21.97,3.03,4.88,1.81,10.64,5.3,14.66,8.7,9.52,8.07,16.4,18.9,20.33,30.43,5.09,14.94,5.46,31.03,3.85,46.59-1.62,15.69-5.13,31.33-9.42,46.49-4.17,14.77-9.66,29.22-17.66,42.37-7.4,12.17-16.84,22.76-27.47,32.32-10.53,9.47-21.89,17.64-33.73,25.47-6.03,3.99-12.15,7.86-18.28,11.7-6.37,3.99-12.75,8.23-19.71,11.14-3.46,1.45-7.09,2.49-10.81,3.02h2c-29.02-9.37-57.08-23.29-80.54-42.95-22.65-18.99-40.99-43.43-50.78-71.26-9.61-27.32-10.42-56.67-.84-84.04,4.51-12.89,11.65-25.49,20.76-35.73,9.59-10.78,21.58-19.93,35.76-23.13,8.09-1.83,16.58-1.32,24.72-.04,8.29,1.3,16.74,2.9,24.68,5.67,6.74,2.36,12.63,5.94,17.53,10.74,2.42,2.37,4.3,4.64,6.06,7.26,.93,1.39,1.79,2.82,2.58,4.29,.81,1.5,1.6,3.18,2.08,4.39,1.23,3.11,2.12,6.33,2.7,9.62,.35,2.01,2.81,3.14,4.64,2.63,2.12-.58,2.98-2.62,2.63-4.64-2.5-14.29-11.2-27.21-23.21-35.27-6.69-4.49-14.45-7.1-22.24-8.94-8.7-2.06-17.66-3.79-26.61-4.3-8.3-.48-16.67,.47-24.48,3.38-7.48,2.78-14.25,6.9-20.48,11.87-11.45,9.13-20.74,21.12-27.46,34.09-13.68,26.43-17.2,57.29-11.09,86.31,6.26,29.69,22.11,57,43.05,78.75,21.93,22.78,49.42,39.5,78.59,51.33,3.5,1.42,7.03,2.77,10.58,4.04,1.77,.64,3.56,1.26,5.34,1.86,.89,.3,1.79,.6,2.68,.89,.44,.14,.89,.33,1.34,.44,1.01,.23,1.97,.02,2.97-.14,8.32-1.35,16.03-5.42,23.18-9.71,13.16-7.9,26.17-16.22,38.67-25.13,12.42-8.86,24.36-18.53,34.72-29.77,10.75-11.67,19.45-24.92,25.81-39.46,6.65-15.2,11.09-31.2,14.6-47.39,3.71-17.13,6.48-34.79,5.22-52.36-1.1-15.32-5.27-30.36-13.83-43.23-7.65-11.5-18.35-20.99-31.45-25.72-7.68-2.78-16.01-3.54-24.13-3.13-8.45,.42-17.06,1.73-25.17,4.17-7.74,2.32-14.98,5.87-21.25,10.98-5.75,4.69-10.46,10.66-14.16,17.05-3.62,6.24-6.34,13.01-8.37,19.93h7.27c-.03-.17-.06-.35-.09-.52-.33-2.01-2.82-3.13-4.64-2.63-2.14,.59-2.96,2.62-2.63,4.64Z"/><path class="cls-10" d="M559.28,196.09c-.01-.72-.03-1.44-.04-2.16-2.47,.33-4.94,.67-7.4,1,.05,.2,.08,.41,.11,.61-.04-.33-.09-.67-.13-1,.07,.57,.07,1.14,0,1.71,.04-.33,.09-.67,.13-1-.08,.57-.23,1.12-.45,1.65,.13-.3,.25-.6,.38-.9-.08,.19-.17,.38-.27,.56,1.72-.45,3.44-.9,5.16-1.35-.19-.1-.37-.21-.55-.34,.25,.2,.51,.39,.76,.59-.12-.09-.22-.19-.32-.3,.2,.25,.39,.51,.59,.76-.06-.08-.11-.16-.15-.26,.13,.3,.25,.6,.38,.9-.03-.08-.05-.15-.06-.23,.04,.33,.09,.67,.13,1,0-.05,0-.09,0-.14-.04,.33-.09,.67-.13,1,.01-.05,.02-.09,.04-.13-.13,.3-.25,.6-.38,.9,.02-.04,.04-.08,.07-.12-.2,.25-.39,.51-.59,.76,.05-.06,.1-.12,.17-.17-.25,.2-.51,.39-.76,.59,.05-.04,.1-.07,.16-.09-.3,.13-.6,.25-.9,.38,.06-.02,.11-.04,.17-.05-.33,.04-.67,.09-1,.13,.04,0,.08,0,.12,0-.33-.04-.67-.09-1-.13,.03,0,.05,0,.08,.02-.3-.13-.6-.25-.9-.38,.04,.02,.07,.03,.1,.06-.25-.2-.51-.39-.76-.59,.02,.02,.04,.04,.06,.06-.2-.25-.39-.51-.59-.76,.02,.02,.03,.05,.04,.08,.24,.44,.56,.79,.97,1.06,.36,.33,.79,.56,1.28,.67,.5,.16,1,.18,1.5,.07,.5-.02,.97-.17,1.4-.45,.8-.52,1.51-1.29,1.73-2.25,.04-.33,.09-.67,.13-1,0-.68-.17-1.31-.51-1.9-.08-.17-.22-.31-.34-.46-.1-.13-.21-.3-.34-.43-.26-.28-.56-.48-.88-.66-.11-.06-.63-.32-.96-.39-.24-.05-.82-.14-1.06-.14-.03,0-.06,0-.08,0-.33,.04-.67,.09-1,.13-.02,0-.04,0-.06,.01-.04,.01-.07,.02-.11,.03-.27,.09-.69,.27-.94,.4-.32,.17-.63,.44-.9,.68-.6,.51-.94,1.21-1.19,1.94-.26,.75-.21,1.58-.03,2.34,0,.04,.02,.08,.03,.12,.09,.29,.27,.71,.41,.98,.04,.08,.09,.16,.14,.23,.58,.81,.88,1.09,1.69,1.67,.17,.12,.34,.22,.52,.32,.43,.28,.9,.42,1.4,.45,.5,.11,1,.09,1.5-.07,.91-.3,1.79-.86,2.25-1.73,.33-.63,.62-1.3,.84-1.98,.17-.54,.25-1.08,.32-1.64,.08-.56,.14-1.1,.12-1.67-.03-.72-.13-1.45-.29-2.16-.12-.49-.34-.92-.67-1.28-.27-.41-.62-.73-1.06-.97-.3-.13-.6-.25-.9-.38-.5-.16-1-.18-1.5-.07-.34,0-.66,.09-.95,.26-.47,.15-.87,.41-1.21,.78-.67,.73-1.12,1.65-1.1,2.67,.01,.72,.03,1.44,.04,2.16,.02,.98,.41,1.97,1.1,2.67,.34,.37,.75,.63,1.21,.78,.45,.24,.93,.34,1.45,.32,.97-.04,1.99-.36,2.67-1.1,.67-.73,1.12-1.65,1.1-2.67h0Z"/><path class="cls-10" d="M618.19,195.67s-.09,.06-.14,.08c.3-.13,.6-.25,.9-.38-.05,.02-.1,.04-.16,.05,.33-.04,.67-.09,1-.13-.05,0-.1,0-.15,0,.33,.04,.67,.09,1,.13-.04,0-.07-.02-.11-.03,.3,.13,.6,.25,.9,.38-.04-.02-.07-.04-.1-.06,.25,.2,.51,.39,.76,.59-.05-.04-.1-.09-.14-.14,.2,.25,.39,.51,.59,.76-.06-.08-.1-.16-.14-.25,.13,.3,.25,.6,.38,.9-.07-.18-.12-.37-.14-.56,.04,.33,.09,.67,.13,1-.03-.27-.03-.53,0-.8-.04,.33-.09,.67-.13,1,.03-.21,.08-.42,.16-.61-.13,.3-.25,.6-.38,.9,.02-.05,.05-.11,.08-.16h-6.51c.1,.14,.18,.29,.24,.45-.13-.3-.25-.6-.38-.9,.06,.16,.11,.32,.14,.49-.04-.33-.09-.67-.13-1,.02,.13,.02,.26,0,.4,.04-.33,.09-.67,.13-1-.01,.08-.03,.16-.07,.24,.13-.3,.25-.6,.38-.9-.03,.06-.06,.12-.1,.18,.2-.25,.39-.51,.59-.76-.04,.05-.09,.1-.14,.15,.25-.2,.51-.39,.76-.59-.03,.02-.07,.04-.1,.06,.3-.13,.6-.25,.9-.38-.04,.01-.07,.02-.11,.03,.33-.04,.67-.09,1-.13-.05,0-.09,0-.14,0,.33,.04,.67,.09,1,.13-.05,0-.09-.02-.14-.04,.3,.13,.6,.25,.9,.38-.08-.03-.14-.07-.21-.12,.25,.2,.51,.39,.76,.59-.06-.05-.1-.09-.15-.15,.2,.25,.39,.51,.59,.76-.04-.05-.08-.11-.1-.17,.13,.3,.25,.6,.38,.9-.02-.04-.03-.08-.04-.12,.04,.33,.09,.67,.13,1,0-.03,0-.06,0-.09-.04,.33-.09,.67-.13,1,0-.03,.01-.06,.02-.09-.13,.3-.25,.6-.38,.9,.01-.02,.02-.04,.04-.06-.2,.25-.39,.51-.59,.76,.02-.02,.03-.03,.06-.05-.25,.2-.51,.39-.76,.59,.02-.02,.05-.03,.07-.04-.3,.13-.6,.25-.9,.38,0,0,.02,0,.03-.01-1.22-.32-2.45-.65-3.67-.97,.07,.05,.12,.11,.18,.18-.2-.25-.39-.51-.59-.76,.04,.06,.08,.12,.11,.18-.13-.3-.25-.6-.38-.9,.04,.1,.07,.2,.08,.31-.04-.33-.09-.67-.13-1,.01,.11,.01,.22,0,.32,.04-.33,.09-.67,.13-1-.02,.12-.05,.24-.1,.35,.13-.3,.25-.6,.38-.9-.04,.09-.09,.17-.14,.25,.2-.25,.39-.51,.59-.76-.06,.08-.12,.14-.2,.2,.25-.2,.51-.39,.76-.59-.06,.04-.12,.08-.18,.11,.3-.13,.6-.25,.9-.38-.05,.02-.09,.03-.14,.05,1.55,1.55,3.09,3.09,4.64,4.64,.24-1.11,.47-2.23,.71-3.34,.16-.5,.18-1,.07-1.5-.02-.5-.17-.97-.45-1.4-.24-.44-.56-.79-.97-1.06-.36-.33-.79-.56-1.28-.67-.33-.04-.67-.09-1-.13-.68,0-1.31,.17-1.9,.51-.25,.2-.51,.39-.76,.59-.47,.47-.79,1.02-.97,1.66-.24,1.11-.47,2.23-.71,3.34-.18,.67-.18,1.34,0,2,.18,.64,.5,1.19,.97,1.66,.95,.95,2.37,1.33,3.67,.97,.77-.21,1.62-.67,2.15-1.28,.21-.24,.44-.54,.62-.8,.02-.02,.03-.05,.05-.07,.03-.05,.05-.09,.08-.14,.15-.31,.39-.79,.48-1.19,.09-.42,.17-.86,.16-1.29,0-.38-.09-.76-.14-1.13,0-.06-.02-.12-.04-.17-.06-.2-.17-.42-.24-.58-.07-.17-.15-.4-.26-.57-.1-.15-.25-.33-.33-.44-.09-.11-.22-.3-.34-.44-.04-.05-.08-.09-.13-.12-.47-.47-1.02-.79-1.66-.97-.67-.18-1.34-.18-2,0-.28,.11-.7,.26-.96,.4-.01,0-.02,.01-.04,.02-.05,.03-.73,.55-.77,.6-.02,.02-.04,.03-.06,.05-.03,.02-.58,.75-.6,.77,0,.01-.02,.03-.02,.04-.03,.04-.37,.86-.39,.91,0,.01,0,.02-.01,.03-.05,.17-.07,.46-.08,.56-.03,.21-.07,.37-.07,.56,0,.01,0,.02,0,.04,.01,.17,.09,.86,.14,1.03,0,.02,.01,.05,.02,.07,.05,.15,.28,.66,.2,.47-.03-.07,.13,.33,.2,.47,.1,.19,.26,.36,.39,.53,.13,.17,.25,.36,.41,.5,.23,.21,.55,.44,.81,.63,.03,.02,.06,.04,.09,.06,.03,.02,.05,.03,.08,.04,.15,.07,.48,.2,.48,.2-.08-.03,.33,.15,.48,.2,.03,0,.06,.02,.08,.02,.16,.04,.69,.09,.53,.07-.03,0,.38,.07,.54,.07,.03,0,.07,0,.1,0,.09,0,.94-.12,1.02-.14,.01,0,.03,0,.04,0,.01,0,.03,0,.04-.01,.08-.02,.83-.34,.91-.38,.03-.02,.06-.03,.09-.05,.1-.06,.68-.52,.78-.6,.01-.01,.03-.02,.04-.04,.03-.03,.06-.06,.09-.1,.15-.17,.48-.59,.6-.78,.01-.02,.02-.03,.04-.05,.03-.04,.05-.08,.07-.13,.15-.31,.3-.65,.41-.98,.01-.04,.02-.08,.03-.12,.07-.33,.12-.75,.15-1.09,0-.05,0-.1,0-.15,0-.05,0-.1-.01-.16-.04-.37-.08-.75-.15-1.11-.02-.11-.05-.21-.09-.32-.14-.39-.31-.79-.49-1.16-.05-.1-.11-.2-.18-.3-.34-.57-.79-1.02-1.35-1.35-.59-.34-1.22-.51-1.9-.51-1.28,0-2.64,.71-3.25,1.87-.51,.97-.69,1.78-.77,2.87-.01,.18-.01,.36,0,.53,.05,.46,.08,1.01,.23,1.47,.35,1.15,1.04,2.24,2.12,2.84,.16,.09,.35,.15,.51,.22,.16,.07,.34,.16,.52,.21,.36,.11,.76,.15,1.14,.15,.76,0,1.61-.23,2.25-.65,.44-.24,.79-.56,1.06-.97,.33-.36,.56-.79,.67-1.28,.16-.5,.18-1,.07-1.5-.02-.5-.17-.97-.45-1.4-.2-.25-.39-.51-.59-.76-.47-.47-1.02-.79-1.66-.97-.33-.04-.67-.09-1-.13-.68,0-1.31,.17-1.9,.51h0Z"/><path class="cls-10" d="M552.74,191.62c-.56,.58-1.12,1.16-1.68,1.74-.37,.34-.63,.75-.78,1.21-.24,.45-.34,.93-.32,1.45-.02,.52,.09,1,.32,1.45,.15,.47,.41,.87,.78,1.21,.25,.2,.51,.39,.76,.59,.59,.34,1.22,.51,1.9,.51,.33-.04,.67-.09,1-.13,.64-.18,1.19-.5,1.66-.97,.56-.58,1.12-1.16,1.68-1.74,.37-.34,.63-.75,.78-1.21,.24-.45,.34-.93,.32-1.45,.02-.52-.09-1-.32-1.45-.15-.47-.41-.87-.78-1.21l-.76-.59c-.59-.34-1.22-.51-1.9-.51-.33,.04-.67,.09-1,.13-.64,.18-1.19,.5-1.66,.97h0Z"/><path class="cls-10" d="M539.24,164.01c4.09-.4,8.21-.51,12.32-.31,1.99,.1,3.98,.26,5.96,.5,.3,.04,.6,.07,.9,.11-.4-.05-.21-.03,.08,.01,.48,.07,.96,.14,1.43,.22,1.07,.17,2.14,.37,3.21,.59,1.93,.39,4.16-.55,4.64-2.63,.43-1.87-.57-4.22-2.63-4.64-8.52-1.71-17.25-2.23-25.91-1.39-1.96,.19-3.87,1.6-3.77,3.77,.08,1.88,1.67,3.97,3.77,3.77h0Z"/><path class="cls-10" d="M615.5,166.43c8.28,.63,16.56,1.26,24.84,1.89,1.97,.15,3.86-1.84,3.77-3.77-.1-2.17-1.66-3.61-3.77-3.77-8.28-.63-16.56-1.26-24.84-1.89-1.97-.15-3.86,1.84-3.77,3.77,.1,2.17,1.66,3.61,3.77,3.77h0Z"/><path class="cls-10" d="M581.06,216.52c-.36,2.56-.72,5.12-1.08,7.68-.16,.5-.18,1-.07,1.5,.02,.5,.17,.97,.45,1.4,.46,.78,1.35,1.53,2.25,1.73,.97,.22,2.05,.17,2.9-.38,.76-.49,1.6-1.31,1.73-2.25,.36-2.56,.72-5.12,1.08-7.68,.16-.5,.18-1,.07-1.5-.02-.5-.17-.97-.45-1.4-.46-.78-1.35-1.53-2.25-1.73-.97-.22-2.05-.17-2.9,.38-.76,.49-1.6,1.31-1.73,2.25h0Z"/><path class="cls-10" d="M577.67,265.61c6.83,1.25,13.74,2.08,20.67,2.43,1.97,.1,3.86-1.81,3.77-3.77-.1-2.13-1.66-3.66-3.77-3.77-3.24-.16-6.47-.43-9.69-.8-.79-.09-1.58-.19-2.37-.29,.76,.1-.41-.06-.45-.06-.42-.06-.85-.12-1.27-.19-1.63-.25-3.26-.52-4.89-.82-1.93-.35-4.16,.53-4.64,2.63-.42,1.85,.56,4.26,2.63,4.64h0Z"/><path class="cls-10" d="M684.07,105.66c8.01-.37,16.03-.26,24.03,.33,1.97,.15,3.86-1.84,3.77-3.77-.1-2.17-1.66-3.61-3.77-3.77-8-.59-16.02-.7-24.03-.33-1.97,.09-3.86,1.67-3.77,3.77,.09,1.96,1.66,3.87,3.77,3.77h0Z"/><path class="cls-10" d="M692.65,130.17c10.57,.35,21.14,.71,31.71,1.06,1.97,.07,3.86-1.78,3.77-3.77-.09-2.1-1.66-3.7-3.77-3.77-10.57-.35-21.14-.71-31.71-1.06-1.97-.07-3.86,1.78-3.77,3.77,.09,2.1,1.66,3.7,3.77,3.77h0Z"/><path class="cls-10" d="M699.53,162.7c9.95,1.13,19.95,1.87,29.96,2.21,1.97,.07,3.86-1.78,3.77-3.77-.09-2.1-1.66-3.7-3.77-3.77-10.01-.34-20-1.08-29.96-2.21-1.97-.22-3.85,1.89-3.77,3.77,.1,2.23,1.66,3.53,3.77,3.77h0Z"/><path class="cls-10" d="M698.63,194.85c9.41,.84,18.82,1.68,28.23,2.51,1.97,.18,3.86-1.86,3.77-3.77-.1-2.19-1.66-3.58-3.77-3.77-9.41-.84-18.82-1.68-28.23-2.51-1.97-.18-3.86,1.86-3.77,3.77,.1,2.19,1.66,3.58,3.77,3.77h0Z"/><path class="cls-10" d="M696.07,221.14c4.24,.15,8.48,.47,12.7,.96,.49,.06,.98,.12,1.47,.18,.24,.03,.49,.06,.73,.09,.27,.04,.24,.03-.09-.01,.12,.02,.24,.03,.37,.05,1.04,.15,2.07,.3,3.1,.46,2.13,.34,4.25,.72,6.36,1.15,1.93,.39,4.16-.55,4.64-2.63,.43-1.88-.57-4.22-2.63-4.64-8.78-1.76-17.7-2.83-26.65-3.15-1.97-.07-3.86,1.78-3.77,3.77,.09,2.1,1.66,3.69,3.77,3.77h0Z"/><path class="cls-10" d="M687.5,247.02c4.4,0,8.79,.16,13.18,.5,2.16,.16,4.32,.37,6.47,.61,.55,.06,1.11,.13,1.66,.2,.25,.03,.49,.06,.74,.09,.07,0,.79,.1,.42,.05-.44-.06,.52,.07,.6,.08,.25,.03,.49,.07,.74,.1,.61,.09,1.23,.18,1.84,.28,1.94,.3,4.15-.49,4.64-2.63,.41-1.8-.55-4.31-2.63-4.64-9.15-1.41-18.38-2.18-27.65-2.19-1.97,0-3.86,1.73-3.77,3.77,.09,2.04,1.66,3.77,3.77,3.77h0Z"/><path class="cls-10" d="M672.06,275.43c8.27,.62,16.59,.48,24.84-.42,1.95-.21,3.87-1.58,3.77-3.77-.08-1.86-1.67-4-3.77-3.77-8.25,.9-16.56,1.04-24.84,.42-1.97-.15-3.86,1.84-3.77,3.77,.1,2.17,1.66,3.61,3.77,3.77h0Z"/><path class="cls-10" d="M648.89,299.68c8.86,.81,17.72,1.61,26.58,2.42,1.97,.18,3.86-1.86,3.77-3.77-.1-2.2-1.66-3.58-3.77-3.77-8.86-.81-17.72-1.61-26.58-2.42-1.97-.18-3.86,1.86-3.77,3.77,.1,2.2,1.66,3.58,3.77,3.77h0Z"/><path class="cls-10" d="M627.49,319.94c7.73,1.03,15.46,2.06,23.19,3.09,1.96,.26,3.85-1.92,3.77-3.77-.1-2.27-1.67-3.49-3.77-3.77-7.73-1.03-15.46-2.06-23.19-3.09-1.96-.26-3.85,1.92-3.77,3.77,.1,2.27,1.67,3.49,3.77,3.77h0Z"/><path class="cls-10" d="M598.25,339.23c7.12,1.19,14.32,1.8,21.55,1.68,1.97-.03,3.86-1.71,3.77-3.77-.09-2.02-1.66-3.8-3.77-3.77-3.38,.05-6.76-.04-10.12-.29-1.65-.12-3.3-.28-4.95-.48-.37-.04-.73-.09-1.1-.14-.46-.06-.49-.06-.09-.01-.24-.03-.49-.07-.73-.1-.85-.12-1.7-.26-2.55-.4-1.94-.32-4.15,.51-4.64,2.63-.41,1.82,.55,4.29,2.63,4.64h0Z"/><path class="cls-10" d="M614.64,196.48v1.71c-.02,.52,.09,1,.32,1.45,.15,.47,.41,.87,.78,1.21,.34,.37,.75,.63,1.21,.78,.45,.24,.93,.34,1.45,.32,.33-.04,.67-.09,1-.13,.64-.18,1.19-.5,1.66-.97,.2-.25,.39-.51,.59-.76,.34-.59,.51-1.22,.51-1.9v-1.71c.02-.52-.09-1-.32-1.45-.15-.47-.41-.87-.78-1.21-.34-.37-.75-.63-1.21-.78-.45-.24-.93-.34-1.45-.32-.33,.04-.67,.09-1,.13-.64,.18-1.19,.5-1.66,.97-.2,.25-.39,.51-.59,.76-.34,.59-.51,1.22-.51,1.9h0Z"/><path class="cls-10" d="M616.35,196.48v2.57c-.02,.52,.09,1,.32,1.45,.15,.47,.41,.87,.78,1.21,.34,.37,.75,.63,1.21,.78,.45,.24,.93,.34,1.45,.32,.33-.04,.67-.09,1-.13,.64-.18,1.19-.5,1.66-.97,.2-.25,.39-.51,.59-.76,.34-.59,.51-1.22,.51-1.9v-2.57c.02-.52-.09-1-.32-1.45-.15-.47-.41-.87-.78-1.21-.34-.37-.75-.63-1.21-.78-.45-.24-.93-.34-1.45-.32-.33,.04-.67,.09-1,.13-.64,.18-1.19,.5-1.66,.97-.2,.25-.39,.51-.59,.76-.34,.59-.51,1.22-.51,1.9h0Z"/><path class="cls-10" d="M552.14,194.93c.07,.25,.12,.49,.16,.75-.04-.33-.09-.67-.13-1,.05,.44,.05,.88,0,1.32,.04-.33,.09-.67,.13-1-.06,.44-.18,.86-.34,1.27,.13-.3,.25-.6,.38-.9-.15,.34-.33,.67-.54,.97-.28,.43-.42,.9-.45,1.4-.11,.5-.09,1,.07,1.5,.12,.49,.34,.92,.67,1.28,.27,.41,.62,.73,1.06,.97,.87,.46,1.93,.69,2.9,.38,.3-.13,.6-.25,.9-.38,.57-.34,1.02-.79,1.35-1.35,.41-.57,.66-1.22,.92-1.87,.15-.37,.26-.74,.32-1.13,.11-.68,.23-1.38,.2-2.08-.03-.51-.11-1.02-.19-1.52-.03-.21-.08-.41-.14-.61-.26-.92-.91-1.77-1.73-2.25-.43-.28-.9-.42-1.4-.45-.5-.11-1-.09-1.5,.07-.91,.3-1.79,.86-2.25,1.73-.47,.89-.66,1.91-.38,2.9h0Z"/><path class="cls-10" d="M553.17,193.79c-.3,1.14-.61,2.28-.91,3.41-.16,.5-.18,1-.07,1.5,.02,.5,.17,.97,.45,1.4,.24,.44,.56,.79,.97,1.06,.36,.33,.79,.56,1.28,.67,.33,.04,.67,.09,1,.13,.68,0,1.31-.17,1.9-.51,.25-.2,.51-.39,.76-.59,.47-.47,.79-1.02,.97-1.66,.3-1.14,.61-2.28,.91-3.41,.16-.5,.18-1,.07-1.5-.02-.5-.17-.97-.45-1.4-.24-.44-.56-.79-.97-1.06-.36-.33-.79-.56-1.28-.67-.33-.04-.67-.09-1-.13-.68,0-1.31,.17-1.9,.51-.25,.2-.51,.39-.76,.59-.47,.47-.79,1.02-.97,1.66h0Z"/><path class="cls-10" d="M617.38,197.34c0,.57-.01,1.14-.02,1.71-.02,.52,.09,1,.32,1.45,.15,.47,.41,.87,.78,1.21,.34,.37,.75,.63,1.21,.78,.45,.24,.93,.34,1.45,.32,.33-.04,.67-.09,1-.13,.64-.18,1.19-.5,1.66-.97,.2-.25,.39-.51,.59-.76,.34-.59,.51-1.22,.51-1.9,0-.57,.01-1.14,.02-1.71,.02-.52-.09-1-.32-1.45-.15-.47-.41-.87-.78-1.21-.34-.37-.75-.63-1.21-.78-.45-.24-.93-.34-1.45-.32-.33,.04-.67,.09-1,.13-.64,.18-1.19,.5-1.66,.97-.2,.25-.39,.51-.59,.76-.34,.59-.51,1.22-.51,1.9h0Z"/></g><g><path class="cls-3" d="M316.06,312.21c2.04,1.43,6.48,.99,5.14,4.59-1.08,2.89-4.29,.49-6.46-.12-2-.57-5.21-.87-4.24-3.89,1.12-3.5,3.68-.41,5.56-.58Z"/><path class="cls-3" d="M311.81,309.33c-.56-.86-.99-1.31-1.16-1.83-.26-.81-.12-1.75,.72-2.08,3-1.19,6.11-2.05,9.37-1.87,.83,.05,1.4,.85,1.39,1.72,0,.54-.24,1.46-.56,1.55-3.25,.92-6.53,1.7-9.76,2.51Z"/><path class="cls-3" d="M202.44,307.14c3.88,.14,6.24,.65,8.19,2.29,.83,.7,1.09,1.7,.54,2.73-.42,.78-1.15,1.18-2.01,1.04-1.99-.32-3.97-.7-5.95-1.11-1.55-.32-2.72-1.27-2.57-2.88,.16-1.77,1.65-2.09,1.81-2.07Z"/><path class="cls-3" d="M210.94,319.23c-.23,1.5-1.43,2.21-2.72,2.84-1.44,.7-2.8,1.66-4.32,2.07-1.73,.47-3.14-1.36-2.55-2.99,.61-1.68,6.63-4.51,8.27-3.85,.78,.31,1.24,.95,1.32,1.93Z"/></g><g><path class="cls-3" d="M90.7,241.06c-.17,2.56-1.69,5.6-3.52,8.52-1.5,2.39-3.79,4.26-4.46,7.22-.26,1.14-1.28,1.88-2.63,1.67-1.6-.26-2.23-1.49-2.35-2.85-.2-2.3,1.16-3.94,2.77-5.37,2.46-2.19,4.44-4.77,5.45-7.9,1.48-4.57-1.03-7.5-5.73-6.93-2.95,.36-5.43,1.61-7.54,3.69-1.36,1.34-3.06,2.04-4.42,.27-1.32-1.72-.22-3.28,1.25-4.38,4.27-3.22,9.14-4.74,14.44-4.19,4.01,.41,6.86,4.61,6.73,10.25Z"/><path class="cls-3" d="M115.07,257.56c.03,4.76-1.68,8.25-4.81,11.07-2.12,1.91-4.35,3.7-6.47,5.61-1.13,1.01-2.26,1.52-3.51,.38-1.46-1.34-1.05-2.93,.19-3.99,1.72-1.48,3.7-2.65,5.63-3.88,3.13-2,4.82-4.86,4.92-8.54,.09-3.42-1.42-5.04-4.86-4.81-2.28,.15-4.96-.38-6.45,2.52-.84,1.63-2.58,1.55-3.89,.3-1.53-1.46-1.25-3.03,.15-4.49,3.06-3.19,12.56-3.94,16.17-1.3,2.62,1.92,3.15,4.62,2.94,7.13Z"/><path class="cls-3" d="M105.75,287.86c.11,2.16-1.94,4.47-4.27,4.58-1.9,.09-3.43-.61-3.6-2.78-.18-2.26,1.79-4.67,3.9-4.9,2.2-.25,3.86,1.05,3.97,3.1Z"/><path class="cls-3" d="M83.07,269.18c.09,2.26-2.08,4.69-4.05,4.6-1.61-.07-2.91-.67-3.14-2.52-.26-2.07,1.73-4.21,4.13-4.4,1.76-.14,2.83,.66,3.06,2.32Z"/></g><path class="cls-5" d="M171,286.15c-.84-1.7-1.8-3.36-2.5-5.12-2.91-7.24-2.11-13.83,3.87-19.23-1.2-1.68-2.22-3.05-3.18-4.46-2.62-3.87-3.3-8.06-1.93-12.55,2.89-9.44,8.05-16.78,18.05-19.76,2.64-.78,5.29-.55,7.95-.63,1.61-.05,2.41-.67,2.51-2.36,.15-2.47,.24-4.99,.78-7.39,3.9-17.26,17.05-24.19,33.31-22.19,3.06,.38,5.7,2.08,8.42,4.04,2.57-3.05,5.14-6.07,7.66-9.12,3.76-4.56,8.67-7.37,14.1-9.42,7.53-2.84,14.36-.82,19.13,5.77,1.11,1.53,2.03,3.19,3.06,4.83,1.83,.18,2.79-1.23,3.99-1.99,10.34-6.54,24.02-1.62,27.75,10.05,.54,1.7,.32,3.55,3.09,4,10.33,1.66,14.18,5.67,15.79,15.94,6.33-.51,12.9-1.75,18.13,3.58,5.1,5.21,5.01,11.64,4.23,18.66,4.3,.58,7.82,2.5,11.35,4.75,5.24,3.34,7.01,8.19,5.01,13.25-2.57,6.5-2.42,12.69-1.38,19.25,.89,5.64-1.35,10.46-4.78,14.8-.47,1.73-1.38,3.19-2.65,4.44-9.59,9.16-19.5,9.84-29.67,1.92-2.04-1.59-4.21-2.39-6.71-2.89-6.2-1.24-11.83-3.38-13.62-10.47-.64-2.54-2.82-3.36-4.97-4.3-8.86-3.87-11.05-7.53-10-17.37,.33-3.1-.73-4.71-3.58-5.45-6.69-1.71-11.04-5.86-12.74-12.58-.63-2.49-1.73-3.27-3.96-1.64-.62,.45-1.25,.94-1.95,1.19-7.55,2.62-14.57,5.83-20.08,12.11-2.57,2.93-6.65,4.46-10.99,3.83-2.9-.42-3.99,1.52-4.99,3.74-3.24,7.19-7.87,12.64-16.55,12.93-1.84,.06-3.19,1.16-4.19,2.66-1.06,1.59-2.22,3.1-3.41,4.6-10.79,13.53-26.95,16.26-42.12,7.11-1.27-1.25-2.71-2.41-2.23-4.52Z"/><path class="cls-3" d="M362.39,294.39c.55-1.57,1.83-2.52,3.03-3.52,4.79,11.43,1.17,26.5-8.65,34.15-3.15,2.46-4.68,4.88-4.48,8.96,.58,11.71-3.25,22.57-7.3,33.3-1.59,4.21-5.46,6.79-8.44,9.97-11,11.73-25.3,18.17-39.72,24.28-7.26,3.07-15.22,3.65-22.97,4.43-10.41,1.05-20.85,2.35-31.39,1.63-3.83-.26-7.6-.52-11.24-1.81-1.43-.51-2.96-1.27-4.4-1.18-9.44,.57-16.7-5-24.39-8.89-8.35-4.22-16.1-9.68-20.79-18.24-5.13-9.37-9.85-18.94-10.69-29.87-.1-1.33-.32-2.65-.42-3.98-.26-3.55-1.45-5.93-5-7.99-6.84-3.96-12.78-9.21-13.44-18.05-.11-1.51-.44-3.13-.08-4.54,2.92-11.33,6.88-21.99,18.97-26.87,.93,1.17,1.86,2.35,2.79,3.52-.13,1.79-1.53,2.59-2.79,3.38-7.01,4.4-10.04,11.3-11.75,18.92-1.68,7.47,1.54,14.34,9.24,17.76,5.67,2.52,7.23,6.48,7.64,12.09,.98,13.42,5.05,26.04,13.72,36.36,8.93,10.62,20.97,16.6,34.46,20.06,11.04,2.83,22.13,3.45,33.43,3.29,23.47-.35,45.41-5.82,64.75-19.46,14.66-10.34,23.46-24.27,23.55-42.81,.01-2.86-.06-5.73,.09-8.59,.18-3.47,1.53-6.41,4.5-8.2,8.99-5.4,11.05-14.05,11.38-23.57,.05-1.52-.16-3.06,.39-4.53Z"/><path class="cls-10" d="M136.64,418.82c5.62-4.93,11.26-8.18,16.35-12.09,8.96-6.87,18.28-13.08,28.18-18.46,.83-.45,1.62-1.06,2.5-1.33,1.36-.41,2.73-.31,3.28,1.33,.44,1.29-.26,2.18-1.32,2.82-.32,.2-.67,.37-1.02,.51-13.8,5.63-24.48,16.1-36.93,23.84-3.18,1.98-5.64,5.1-8.55,7.57-1.27,1.08-1.28,2.15-.78,3.54,.64,1.79,1.25,3.6,1.7,5.45,.24,.98-.21,1.89-1.28,2.26-1.08,.37-1.95-.19-2.37-1.04-.58-1.17-.91-2.48-1.28-3.75-3.82-13.37-7.14-26.89-11.65-40.06-.25-.72-.36-1.49-.65-2.19-1.39-3.41-2.07-3.84-5.57-2.48-7.3,2.85-14.83,4.92-22.37,6.95-1.1,.3-2.12,.88-3.21,1.21-2.6,.78-3.36,2.48-3.34,5.14,.06,6.88,.57,13.77,1.73,20.49,1.67,9.73,1.61,19.78,5.25,29.15,1.44,3.72,2.51,7.6,4.06,11.28,1.1,2.62,2.65,5.11,4.94,6.94,5.93,4.76,11.57,9.92,18.32,13.57,4.11,2.22,8.67,2.77,13.25,3.01,8.55,.45,17.15,1.36,25.36-2.28,1.58-.7,3.13-.29,3.79,1.45,.68,1.78-.43,3.06-1.93,3.62-4.13,1.54-8.49,2.46-12.86,2.42-6.08-.07-12.17-.2-18.27-.6-8.58-.57-14.89-5.28-21.44-9.83-1.09-.75-1.87-1.98-2.99-2.64-9.16-5.45-13.48-14.11-16.38-23.9-4.52-15.27-5.82-30.99-6.93-46.74-.2-2.85-.35-5.71-.38-8.57-.05-4.23,.35-4.92,4.32-6.26,4.69-1.59,9.46-2.95,14.19-4.42,4.37-1.35,8.74-2.69,13.1-4.07,7.4-2.35,10.4-.86,12.65,6.8,1.55,5.3,2.64,10.73,4.07,16.07,1.28,4.75,2.74,9.46,4.46,15.32Z"/><path class="cls-10" d="M431.4,389.3c-12.55-1.58-24.51-2.13-36.49-2.6-2.52-.1-3.8,.94-4.84,3.06-2.19,4.44-3.65,9.2-6.17,13.52-4.3,7.36-8.01,15.04-11.49,22.83-.66,1.48-1.7,2.75-3.54,2.02-2.09-.83-1.35-2.7-.67-3.87,2.97-5.13,5.02-10.68,7.6-15.99,1.05-2.15,.71-3.17-1.28-4.58-11.36-8.04-23.95-13.28-37.33-16.77-1.81-.47-3.65-.83-3.18-3.07,.5-2.36,2.44-2.63,4.52-1.92,11.7,3.99,23.75,7.15,33.75,15.01,6.79,5.34,7.65,5.05,10.67-2.72,1.17-3.02,2.39-6.03,3.47-9.08,1.06-2.98,2.97-3.92,6.16-3.7,12.17,.86,24.36,1.45,36.54,2.14,1.14,.06,2.32-.07,3.42,.17,2.95,.66,5.16,3.58,4.26,6.38-2.92,9.18-2.72,18.81-4.38,28.17-2.67,15.11-6.96,29.74-13.44,43.6-3.57,7.64-9.64,13.76-16.36,18.81-7.14,5.36-15.69,3.53-23.83,3.26-7.88-.26-13.66-5.44-20.3-8.61-1.52-.73-2.54-2.07-1.46-3.71,1.14-1.72,2.68-.82,4.03-.02,2.3,1.35,4.74,2.53,6.87,4.11,4.71,3.51,10.13,4.15,15.71,4.33,1.53,.05,3.08-.13,4.58,.08,7.68,1.05,12.78-2.89,17.88-8.06,10.72-10.87,14.43-24.87,18.28-38.78,2.59-9.35,4.53-18.88,4.84-28.69,.15-4.91,1.36-9.78,2.18-15.3Z"/><path class="cls-3" d="M410.57,351.6c-5.03,.05-9.84,.86-14.13,3.78-5.71,3.89-6.94,7.62-4.53,14.24,.46,1.25,1.12,2.44,1.48,3.71,.39,1.38,.21,2.73-1.42,3.24-1.26,.4-2.16-.26-2.89-1.27-4.85-6.74-3.08-17.57,3.64-22.53,6.49-4.79,13.93-5.92,21.7-5.65,3.04,.11,5.73,1.39,6.46,4.64,.47,2.1,1.68,2.17,3.28,2.18,3.06,.02,6.1-.16,9.12-.66,3.82-.64,7.63-.4,11.31,.81,5.22,1.72,8.07,5.66,9.15,10.82,1.02,4.9-1.72,9.44-7.01,10.94-6.03,1.72-12.36,2.19-18.41,3.99-1.58,.47-3.18-.21-3.46-2.09-.28-1.83,1.04-2.83,2.63-3.15,2.99-.6,6.01-1.02,9.03-1.47,2.07-.31,4.17-.48,6.23-.82,4.43-.72,6.47-2.21,6.85-4.92,.44-3.16-2.54-7.7-6.01-8.9-2.92-1.02-6.01-1.41-9.04-.95-4.93,.75-9.89,.73-14.85,.89-3.87,.12-7.51,1.17-11.18,2.2-1.48,.42-3.28,.49-3.7-1.53-.39-1.92,1.03-2.63,2.69-2.95,2.25-.43,4.48-.93,6.73-1.36,.99-.19,2.01-.49,1.87-1.66-.13-1.05-1.13-1.46-2.13-1.52-1.14-.06-2.29-.01-3.43-.01Z"/><path class="cls-3" d="M102.79,347.85c7.49,.45,15.09,1.77,21.04,7.72,4.6,4.6,4.74,13.41,.31,18.17-.39,.42-.81,.82-1.29,1.12-1.01,.62-2.09,1.05-3.09,.01-.98-1.02-.77-2.2,.14-3.03,2.26-2.06,3.29-4.54,3.36-7.58,.05-2.27-.54-4.16-2.31-5.57-7.33-5.83-15.69-7.27-24.73-5.71-.54,.09-1.07,.42-1.55,.71-1.32,.78-2.87,1.63-2.47,3.42,.44,1.98,2.12,2.44,4.01,2.35,2.09-.1,4.18-.16,6.27-.07,1.01,.04,1.76,.77,1.82,1.85,.06,1.08-.66,1.78-1.58,2.13-.69,.26-1.49,.39-2.23,.37-6.74-.26-13.19,1.45-19.74,2.63-5.78,1.04-10.23,4.01-14.01,8.2-2.98,3.31-2.47,5.89,1.18,8.55,2.33,1.7,5.05,1.51,7.65,1.88,1.69,.24,3.42,.21,5.08,.57,1.46,.32,2.32,1.47,1.99,2.99-.27,1.21-1.3,1.91-2.58,1.75-5.48-.65-11.07-1-15.74-4.42-5.32-3.89-5.96-9.37-1.52-14.26,4.71-5.19,10.24-9.11,17.52-9.87,1.69-.18,3.35-.69,5.03-1.01,1.21-.23,1.87-.62,2.04-2.14,.72-6.42,3.57-9.39,9.81-10.45,1.68-.28,3.42-.2,5.58-.31Z"/><path class="cls-3" d="M214.28,299.25c-1.27-.03-2.32-.43-2.69-1.7-.38-1.32,.37-2.35,1.48-2.72,5.7-1.86,10.5-5.14,14.98-9.01,1.11-.96,2.4-1.24,3.52-.03,1.11,1.2,.65,2.49-.21,3.61-.45,.59-1.05,1.12-1.69,1.51-4.22,2.54-8.45,5.07-12.72,7.52-.8,.46-1.8,.56-2.68,.82Z"/><path class="cls-3" d="M252.81,332.03c-1.56-.23-2.27-1.29-2.28-2.75-.02-2.97,3.5-7.53,6.26-8.23,2.7-.69,7.86,1.8,9.2,4.56,.4,.82,.64,1.83,.59,2.73-.06,1.11-.35,2.31-1.82,2.51-1.1,.15-1.8-.35-2.2-1.34-.35-.88-.56-1.88-1.1-2.62-1.74-2.38-3.94-2.14-5.23,.55-.49,1.02-.68,2.18-1.16,3.2-.41,.89-1.12,1.54-2.27,1.39Z"/><path class="cls-3" d="M303.86,298.52c-5.97-1.09-11.36-3.89-16.46-7.29-1.32-.88-2.31-2.31-1.19-3.91,1.42-2.03,3.05-.92,4.4,.2,4.2,3.48,8.8,6.01,14.36,6.45,1.48,.12,2.67,.85,2.49,2.5-.22,2.03-1.86,2.11-3.61,2.04Z"/><path class="cls-3" d="M235.57,313.84c-2.7-.07-4.85-2.43-4.71-5.18,.11-2.2,2.62-4.41,5.04-4.43,2.69-.03,5.14,2.43,5,5.02-.15,2.76-2.36,4.67-5.34,4.59Z"/><path class="cls-3" d="M277.49,305.27c2.78,0,4.56,1.46,4.69,3.85,.16,2.97-2.34,5.53-5.31,5.43-2.28-.07-3.91-2.01-3.91-4.67,0-2.95,1.63-4.61,4.53-4.62Z"/><path class="cls-1" d="M318.12,339.92c-.41,1.6-.86,3.3-3.04,3.41-1.83,.09-3.88-2.02-3.49-3.66,.46-1.9,1.93-2.83,3.79-2.74,1.66,.08,2.82,1,2.73,3Z"/><path class="cls-1" d="M313.64,352.59c-.51,2.36-2.29,2.71-4.31,2.52-1.71-.16-2.96-1.02-2.64-2.92,.33-1.96,1.8-2.86,3.69-2.81,1.93,.06,3.18,1.04,3.26,3.21Z"/><path class="cls-1" d="M203.86,343.34c-.11,1.86-1.21,2.7-2.9,2.86-1.96,.18-3.51-.63-3.58-2.65-.05-1.58,1.06-2.84,2.84-2.91,1.88-.07,3.28,.69,3.64,2.7Z"/><path class="cls-1" d="M303.05,342.31c-.69,1.63-1.86,2.98-3.78,2.79-1.89-.19-2.39-1.8-2.04-3.43,.42-1.96,1.86-2.93,3.82-2.46,1.39,.34,2.22,1.42,2,3.09Z"/><path class="cls-1" d="M215,339.87c1.48,.29,2.49,1.01,2.49,2.59,0,1.75-2.09,3.42-3.92,3.13-1.55-.25-2.29-1.28-2.09-2.78,.27-2.01,1.81-2.64,3.52-2.93Z"/><path class="cls-1" d="M211.62,354.11c-.23,2.22-1.5,2.91-3.16,2.95-1.71,.04-3.1-.71-3.07-2.57,.03-1.8,1.36-2.61,3.08-2.67,1.78-.06,2.74,.95,3.15,2.29Z"/><path class="cls-3" d="M257.68,375.73c-1.71-.17-3.47-.14-5.11-.56-4.31-1.1-7.59-3.48-8.77-8.04-1.42-5.45,0-10.58,2.01-15.56,.71-1.75,2.27-3.02,3.99-3.98,6.19-3.48,16.2-.99,19.84,4.95,4.52,7.38,3.09,16.51-3.26,21.03-2.63,1.87-5.54,2.44-8.69,2.14Zm-9.58-13.76c-.22,5.37,4.31,10.15,9.85,10.38,5.56,.23,10.12-4.05,10.42-9.76,.34-6.52-4.36-11.35-11.2-11.53-6.31-.16-8.73,2.75-9.07,10.91Z"/><g><g><path class="cls-3" d="M1091.46,326.07c-2.09,0-5.33,.04-8.58-.02-1.59-.03-2.85-.66-2.72-2.51,.11-1.5,1.27-1.98,2.58-1.97,3.25,.01,6.5,.09,9.75,.16,4.69,.1,9.33-.3,13.95-1.09,3.04-.52,5.92-1.49,8.56-3.05,5.61-3.34,6.85-7.32,4.14-13.24-.79-1.72-1.91-3.52,.45-4.61,2.13-.98,3.33,.8,4.32,2.38,2.78,4.44,2.23,10.34-1.36,14.76-4.58,5.62-11.04,7.36-17.75,8.3-4.01,.57-8.09,.56-13.32,.89Z"/><path class="cls-3" d="M818.75,323.12c-9.02,.22-16.63-2.42-22.9-9.31-2.8-3.08-2.14-11.81,1.02-15.3,.73-.8,1.72-1.08,2.76-.59,1.25,.59,1.74,1.62,1.41,2.97-.09,.39-.37,.72-.51,1.1-2.68,6.78-.87,11.2,6.19,14.2,5.31,2.26,10.89,3.09,16.64,1.75,1.58-.37,3.16-.75,4.74-1.09,1.82-.39,3.37,.08,3.78,2.01,.44,2.1-1.27,2.97-2.85,3.22-3.4,.52-6.85,.71-10.27,1.04Z"/><path class="cls-3" d="M808.66,296.01c.04-2.9,.36-5.71,2.8-7.71,1.17-.96,2.46-1.43,3.79-.16,1.01,.96,1.18,2.05,.58,3.28-.09,.18-.26,.32-.34,.5-2.93,6.31-1.83,8.19,5.08,8.63,1.41,.09,2.85-.03,4.24,.18,1.32,.2,2.13,1.18,2.25,2.5,.1,1.1-.6,1.9-1.52,2.43-5.6,3.2-16.92-3.27-16.88-9.64Z"/></g><path class="cls-3" d="M1094.26,308.22c2.23,0,4.45,.09,6.58-.82,3.21-1.36,3.62-2.68,1.47-5.31-.38-.46-.95-.77-1.36-1.21-.76-.82-1-1.87-.42-2.78,.72-1.13,1.95-1.39,3.21-1.01,2.75,.84,4.53,2.57,4.9,5.54,.49,4.01-1.66,7.53-5.72,8.96-3.47,1.22-7.13,1.42-10.78,1.56-2.02,.08-3.93-.4-3.82-2.76,.11-2.49,2.22-2.44,4.12-2.28,.61,.05,1.21,.07,1.82,.1Z"/></g><g><path class="cls-10" d="M893.44,255.97c-9.34-.07-18.68-.14-28.03-.22-1.79-.02-3.61,.12-5.28-.76-2.03-1.06-2.44-2.59-1.04-4.37,1.73-2.19,4.17-3.38,6.7-4.37,5.69-2.23,11.29-4.65,16.8-7.31,2.43-1.17,3.71-2.76,4.4-5.54,2.9-11.67,5.49-23.43,9.45-34.83,4.1-11.82,9.02-23.09,18.01-32.15,1.51-1.52,2.52-3.52,4.04-5.04,1.97-1.98,4.6-2.86,7.35-2.97,8.97-.35,17.87-1.78,26.88-1.73,19.01,.09,37.53,3.42,55.83,8.19,6.91,1.8,14.07,2.74,20.53,6.28,10.15,5.56,16.41,13.38,17.55,25.31,.89,9.31,1.03,18.64,1.57,27.95,.29,5.02,1.86,7.9,6.58,9.59,3.53,1.26,6.8,3.24,10.14,4.99,1.22,.64,2.94,1.12,2.76,2.91-.22,2.12-2.22,2.16-3.73,2.39-4.61,.69-9.25,1.24-13.89,1.78-2.14,.25-4.29,.41-6.34,1.14-1.58,1.17-3.3,1.95-5.3,2.04-9.14,.58-18.26,1.51-27.42,1.68-17.6,.34-35.13,1.89-52.69,2.81-13.99,.73-27.91,2.42-41.92,2.57-5.76,.06-11.4,1.69-17.19,1.02-2-.08-4.08,.14-5.76-1.35Z"/><path class="cls-3" d="M893.44,255.97c1.67-.34,3.35-.3,5.02-.02,2.02,7.69,2,15.5,1.13,23.31-.35,3.12-2.86,4.4-5.71,4.88-8.57,1.46-13.4,6.71-16.05,14.81-3.62,11.05,1.72,22.25,12.71,25.7,9.49,2.98,9.14,3.05,9.79,13.22,.75,11.64,1.55,23.31,3.34,34.85,1.86,11.96,12.84,21.21,26.08,22.85,20.78,2.57,41.59,2.55,62.29-.19,8.74-1.16,17.91-2.17,24.56-9.61,4.86-5.43,6.2-12.16,7.73-18.72,3.05-13.13,5.49-26.41,6.84-39.85,.47-4.69,2.83-7.62,7.37-8.84,1.04-.28,2.09-.55,3.13-.83,8.69-2.33,12.53-6.32,13.1-13.61,.7-8.96-2.81-15.23-10.54-18.81-1.63-.76-3.41-1.15-5-2-2.05-1.1-3.62-2.74-3.3-5.12,1.19-8.92-.24-18.01,1.75-26.87,.28-1.23,.39-2.51,1.57-3.29,1.42-.75,2.92-.87,4.48-.63-1.13,8.74,.11,17.63-1.59,26.34-.53,2.74,.07,4.73,3.33,5.51,2.03,.49,3.89,1.83,5.71,2.96,6.42,3.98,10.34,9.37,9.63,17.35-.13,1.43,0,2.88-.02,4.32-.16,9.67-5.69,16.66-15.08,19.09-1.22,.31-2.45,.6-3.64,.99-4.73,1.53-4.41,1.58-5.06,6.63-2.27,17.66-4.92,35.27-11.22,52.04-2.67,7.09-8.12,11.78-15.12,14.45-9.31,3.56-19.1,4.76-28.95,5.78-18,1.87-35.98,1.25-53.77-1.46-15.72-2.39-28.03-11.01-30.34-28.11-1.61-11.94-2.29-23.95-2.94-35.97-.24-4.58-.18-4.5-4.67-5.97-2.38-.78-4.6-2.05-6.97-2.89-5.63-2-8.83-6.06-9.96-11.75-.66-3.34-2.42-6.35-2.36-9.92,.18-10.91,6.04-22.95,17.81-26.99,5.12-1.76,5-2.04,4.97-7.48-.03-5.39-.84-10.78-.04-16.17Z"/><path class="cls-10" d="M868.95,414.93c6.84-3.9,13.08-7.42,19.28-11.02,4.52-2.62,9.13-5.02,13.97-6.99,1.35-.55,2.65-1.08,4.14-.98,1.39,.09,2.53,.6,2.73,2.06,.2,1.47-.7,2.37-2.1,2.66-10.15,2.05-18.14,8.51-26.95,13.26-2.52,1.36-4.76,3.22-7.19,4.75-1.42,.9-1.78,1.88-1.36,3.57,1.1,4.35,1.79,8.8,3.3,13.05,.36,1.01,.75,2.03,.99,3.08,.31,1.37-.07,2.6-1.54,2.99-1.2,.32-2.08-.42-2.49-1.54-.43-1.18-.81-2.38-1.09-3.6-3.04-12.97-7.57-25.46-11.88-38.03-.79-2.29-1.81-3.5-4.54-3.42-9.89,.29-19.78,.24-29.67,.48-4.59,.11-4.93,.49-4.91,5.02,.03,8.26,.44,16.49,.95,24.75,.62,10.09,2.28,19.97,3.78,29.9,.95,6.26,2.39,12.36,6.01,17.7,3.81,5.62,8.82,9.14,15.78,10.12,5.18,.73,10.37,.99,15.55,1.41,6.83,.56,13.05-2.08,19.38-4.07,1.37-.43,2.65-1.13,4.02-1.56,1.16-.36,2.14,.12,2.65,1.24,.52,1.13,.21,2.21-.85,2.79-1.41,.77-2.92,1.36-4.43,1.92-13.2,4.97-26.72,5.32-40.3,2.15-9.53-2.23-15.31-9-18.91-17.71-1.71-4.15-2.59-8.56-3.39-13.01-3.56-19.68-4.86-39.55-5.23-59.5-.08-4.3-.05-4.51,4.2-5.13,6.07-.88,12.2-.64,18.31-.72,5.94-.08,11.85-.44,17.77-.86,6.01-.43,6.43,.09,8.12,6.01,1.77,6.21,3.78,12.35,5.9,19.2Z"/><path class="cls-10" d="M1051.28,413.36c2.75-7.21,5.38-14.07,7.99-20.93,2.02-5.32,2.02-5.37,7.8-5.2,9.16,.26,18.33,.21,27.48,1.07,4.69,.44,7.02,2.16,6.87,6.5-.59,16.51,.21,33.14-3.01,49.47-1.63,8.28-3.51,16.55-7.2,24.24-5.88,12.25-16.15,18.38-29.17,20.28-7.74,1.13-15.39-.63-23.05-1.53-.35-.04-.7-.17-1.05-.25-1.45-.36-3.07-.87-2.78-2.66,.36-2.16,2.24-2.21,3.83-1.59,4.1,1.6,8.44,1.59,12.69,2.23,12.67,1.92,22.87-2.73,31.62-11.46,2.36-2.35,3.48-5.41,4.63-8.44,5.75-15.13,8.23-30.86,8.5-46.97,.11-6.65,.07-13.31-.02-19.97-.07-4.83-.15-4.86-4.64-5.31-7.52-.76-15.06-.9-22.61-1.01-3.48-.05-5.24,1.31-6.36,4.35-1.74,4.72-3.8,9.33-5.47,14.07-3.82,10.85-8.61,21.3-12.79,31.99-.55,1.4-1.17,2.92-2.98,2.35-2.14-.68-1.71-2.56-1.13-4.07,1.36-3.52,2.9-6.97,4.37-10.45,.77-1.82,1.63-3.6,2.27-5.47,1.8-5.3,1.52-7.51-3.19-10.41-7.49-4.62-14.04-10.68-22.17-14.3-1.86-.83-4.48-1.41-3.62-4.4,.55-1.91,2.65-1.94,6.01,.2,8.93,5.69,17.76,11.53,27.18,17.66Z"/><path class="cls-3" d="M823.65,361.7c2.37,3.32,5.04,4.28,8.35,4.08,2.51-.15,5.03,.12,7.48,.77,1.08,.29,2.07,.75,1.88,2.16-.17,1.26-1.13,1.77-2.22,2.03-.5,.12-1.08,.09-1.59-.03-6.73-1.56-13.62-.48-20.42-1.2-6.1-.65-11.16,2.27-15.23,6.7-3.74,4.07-2.56,7.75,2.86,8.94,1.56,.34,3.23,.14,4.83,.33,1.55,.18,2.85,.92,2.84,2.66-.02,1.82-1.38,2.33-2.97,2.39-4.95,.21-9.22-1.43-12.59-5.03-2.74-2.93-2.63-7.13,.35-10.83,4.59-5.7,10.43-9.28,17.95-9.57,1.06-.04,2.13,0,3.6,0-1.38-4.95,1.29-7.15,5.1-8.77,3.74-1.59,7.48-2.2,11.55-1.59,6.66,.99,13.03,2.82,18.79,6.26,5.73,3.43,9.41,8.33,8.88,15.45-.31,4.21-2.39,7.47-5.8,9.88-1.22,.86-2.6,1.6-3.8,.07-1.15-1.47-.42-2.72,.93-3.62,2.37-1.56,4-3.54,4.22-6.51,.34-4.62-1.8-8.18-5.4-10.5-6.6-4.24-13.9-6.61-21.87-6.64-2.84,0-5.17,1.13-7.72,2.55Z"/><path class="cls-3" d="M1095.51,372.58c-4.84,.09-9.71-.34-14.5,.69-.7,.15-1.42,.18-2.14,.22-1.22,.06-2.21-.49-2.44-1.66-.29-1.52,.73-2.4,2.12-2.53,3.4-.31,6.8-.5,10.21-.68,1.45-.08,2.89-.03,3.99-1.21,.61-.65,1.4-1.27,1.25-2.25-.16-1-1.02-1.4-1.93-1.61-.52-.12-1.06-.26-1.59-.29-5.59-.27-11.15-.09-16.56,1.49-4.34,1.27-7.57,4.07-9.83,7.92-2.11,3.59-1.84,4.91,1.15,7.91,.25,.25,.58,.44,.82,.69,.95,1,1.51,2.09,.36,3.28-1.07,1.11-2.25,.78-3.42,.08-3.55-2.1-5.39-6.64-4.02-10.78,2.11-6.37,6.54-10.76,12.79-12.94,6.16-2.15,12.66-2.63,19.15-2.04,5.05,.46,6.82,2.23,7.52,7.38,.23,1.68,.75,2.2,2.25,2.07,3.97-.33,7.88,.52,11.82,.68,2.37,.1,4.62,.65,6.8,1.5,2.67,1.04,4.66,2.6,4.85,5.8,.2,3.26-.4,6.17-3.38,7.96-4.87,2.93-10.26,4.2-15.89,4.47-1.37,.07-2.68-.37-2.81-1.87-.15-1.75,1.18-2.53,2.75-2.68,2.85-.27,5.76,.03,8.53-.94,1.52-.53,3.11-.93,4.55-1.62,1.8-.86,2.49-2.44,2.31-4.46-.18-2.06-1.67-2.6-3.28-3.02-4.37-1.15-8.88-1.19-13.35-1.54-2.68-.21-5.39-.04-8.08-.04Z"/><path class="cls-2" d="M931.61,238.38c-9.35,.36-18.7,.5-28.04,0-.88-.05-1.8-.13-2.61-.45-.89-.35-1.33-1.2-1.13-2.19,.15-.74,.63-1.34,1.41-1.42,.88-.1,1.8-.15,2.67-.01,12.35,1.89,24.76,.83,37.13,.53,13.11-.32,26.21-1.03,39.3-1.81,12.91-.77,25.79-1.83,38.73-2,4.49-.06,8.91-.98,13.25-2.19,1.2-.34,2.44-.65,3.67-.75,.69-.05,1.33,.5,1.59,1.24,.27,.75,.05,1.4-.45,1.97-.9,1.03-2.21,1.3-3.41,1.44-6.95,.78-13.82,2.4-20.85,2.32-12.6-.14-25.12,1.11-37.66,1.98-12.9,.89-25.82,1.52-38.77,1.35-1.61-.02-3.23,0-4.85,0Z"/><path class="cls-3" d="M955.98,320.41c.7-6.53,1.42-13.31,2.14-20.09,.02-.18,.05-.36,.06-.54,.17-1.72,.76-3.53,2.68-3.38,2.27,.17,2.62,2.08,2.2,4.08-1.22,5.81-1.65,11.72-2.33,17.6-.12,1.07-.25,2.14-.27,3.21-.11,4.42-.1,4.42,4.17,4.77,.36,.03,.72,0,1.08,.01,1.6,.07,2.94,.65,2.89,2.45-.05,1.58-1.42,1.83-2.73,1.99-7.65,.97-10.32-1.69-9.89-10.11Z"/><path class="cls-3" d="M983.85,289.62c.11-3.57,2.43-5.9,5.69-5.72,2.98,.17,5.21,2.32,5.22,5.05,.01,3.18-3.15,5.93-6.53,5.67-2.85-.22-4.47-2.07-4.38-5Z"/><path class="cls-3" d="M940.01,295c-3.26,.07-5.02-1.55-5.15-4.74-.16-3.65,1.52-5.62,4.78-5.6,3.29,.02,5.35,2.06,5.33,5.3-.01,3.08-1.87,4.97-4.96,5.04Z"/><path class="cls-3" d="M1002.25,277.13c-3.52-.46-7.44-.89-11.33-1.51-1.5-.24-2.86-1.16-2.28-2.97,.53-1.67,2.2-1.99,3.6-1.51,3.51,1.21,7.1,.96,10.68,.98,1.7,0,3.36,.18,3.64,2.3,.21,1.59-1.41,2.64-4.31,2.72Z"/><path class="cls-3" d="M928.64,277.19c-2.53,.12-4.35-.11-4.56-2.12-.24-2.3,1.52-2.95,3.52-2.98,3.58-.06,7.16-.1,10.69-.91,1.86-.43,3.91-.06,4.07,2.29,.13,1.95-1.55,2.64-3.33,2.67-3.77,.08-7.53,.13-10.4,1.05Z"/><path class="cls-1" d="M930.35,345.52c-1.72-.05-2.97-1.82-2.13-3.4,1.27-2.38,3.15-4.33,5.67-5.41,1.71-.73,3.47,.5,3.43,2.15-.04,1.79-5.19,6.71-6.97,6.66Z"/><path class="cls-1" d="M992.59,337.66c2.32,.32,4.6,1.62,6.47,3.61,.61,.65,.89,1.54,.33,2.45-.62,1.02-1.54,1.53-2.69,1.22-2.26-.61-4.25-1.81-6.08-3.23-.91-.71-1.27-1.7-.68-2.83,.46-.89,1.27-1.17,2.65-1.22Z"/><path class="cls-1" d="M959.5,343.68c.13-.36,.58-1.9,1.3-3.3,.5-.97,1.51-1.55,2.71-1.18,1.11,.34,1.98,1.14,1.88,2.3-.18,2.11-.61,4.22-1.69,6.08-.6,1.03-1.72,1.34-2.8,.9-1.6-.64-1.78-2.07-1.4-4.79Z"/><path class="cls-1" d="M977.43,339.7c2.26,.23,5.13,5.78,4.03,7.83-.58,1.07-1.56,1.44-2.72,1.14-2.21-.58-4.42-5.53-3.44-7.7,.41-.91,1.15-1.31,2.14-1.26Z"/><path class="cls-1" d="M947.02,346.35c-1.28,.04-2.04-.68-2.33-1.81-.49-1.95,1.9-5.51,3.84-5.8,1.2-.18,2.13,.31,2.57,1.45,.69,1.81-2.1,5.99-4.08,6.16Z"/><path class="cls-3" d="M950.77,371.59c.02-8.66,4.7-14.52,11.68-14.48,8.81,.05,12.8,6.02,13.21,13.85,.37,7-5.22,13.11-11.66,12.88-7.08-.26-13.21-3.22-13.22-12.25Zm5.59-5.95c-1.65,3.2-1.04,8.68,.97,10.67,3.07,3.03,7.1,4.2,9.68,2.82,3.27-1.76,4.98-6.26,3.92-10.3-1.25-4.79-3.92-7.16-8.12-7.23-3.01-.02-5.14,1.5-6.45,4.05Z"/></g><g><path class="cls-3" d="M1010.88,296.23c1.71,1.64,5.94,1.86,4.17,5.05-1.43,2.56-4.1-.15-6.04-1.04-1.8-.82-4.77-1.56-3.42-4.26,1.55-3.12,3.52,.14,5.3,.25Z"/><path class="cls-3" d="M1007.31,292.91c-.4-.89-.75-1.37-.83-1.89-.12-.8,.14-1.66,.98-1.85,2.99-.69,6.02-1.05,9.06-.41,.78,.16,1.19,1,1.05,1.82-.08,.51-.44,1.34-.75,1.38-3.18,.4-6.37,.66-9.52,.95Z"/><path class="cls-3" d="M915.11,282.66c3.65-.45,5.95-.31,8.02,.93,.88,.53,1.27,1.43,.91,2.49-.28,.8-.91,1.28-1.73,1.28-1.91,0-3.83-.07-5.74-.16-1.5-.07-2.74-.79-2.84-2.32-.11-1.68,1.24-2.2,1.39-2.21Z"/><path class="cls-3" d="M924.87,292.73c0,1.44-1.01,2.29-2.13,3.07-1.25,.87-2.38,1.97-3.75,2.58-1.55,.69-3.15-.81-2.84-2.42,.32-1.67,5.55-5.21,7.19-4.84,.78,.18,1.31,.71,1.53,1.61Z"/></g><path class="cls-9" d="M240.99,339.27s-15.69,6.46-13.84,16.61"/><path class="cls-8" d="M171,286.15c-.84-1.7-1.8-3.36-2.5-5.12-2.91-7.24-2.11-13.83,3.87-19.23-1.2-1.68-2.22-3.05-3.18-4.46-2.62-3.87-3.3-8.06-1.93-12.55,2.89-9.44,8.05-16.78,18.05-19.76,2.64-.78,5.29-.55,7.95-.63,1.61-.05,2.41-.67,2.51-2.36,.15-2.47,.24-4.99,.78-7.39,3.9-17.26,17.05-24.19,33.31-22.19,3.06,.38,5.7,2.08,8.42,4.04,2.57-3.05,5.14-6.07,7.66-9.12,3.76-4.56,8.67-7.37,14.1-9.42,7.53-2.84,14.36-.82,19.13,5.77,1.11,1.53,2.03,3.19,3.06,4.83,1.83,.18,2.79-1.23,3.99-1.99,10.34-6.54,24.02-1.62,27.75,10.05,.54,1.7,.32,3.55,3.09,4,10.33,1.66,14.18,5.67,15.79,15.94,6.33-.51,12.9-1.75,18.13,3.58,5.1,5.21,5.01,11.64,4.23,18.66,4.3,.58,7.82,2.5,11.35,4.75,5.24,3.34,7.01,8.19,5.01,13.25-2.57,6.5-2.42,12.69-1.38,19.25,.89,5.64-1.35,10.46-4.78,14.8-.47,1.73-1.38,3.19-2.65,4.44-9.59,9.16-19.5,9.84-29.67,1.92-2.04-1.59-4.21-2.39-6.71-2.89-6.2-1.24-11.83-3.38-13.62-10.47-.64-2.54-2.82-3.36-4.97-4.3-8.86-3.87-11.05-7.53-10-17.37,.33-3.1-.73-4.71-3.58-5.45-6.69-1.71-11.04-5.86-12.74-12.58-.63-2.49-1.73-3.27-3.96-1.64-.62,.45-1.25,.94-1.95,1.19-7.55,2.62-14.57,5.83-20.08,12.11-2.57,2.93-6.65,4.46-10.99,3.83-2.9-.42-3.99,1.52-4.99,3.74-3.24,7.19-7.87,12.64-16.55,12.93-1.84,.06-3.19,1.16-4.19,2.66-1.06,1.59-2.22,3.1-3.41,4.6-10.79,13.53-26.95,16.26-42.12,7.11-1.27-1.25-2.71-2.41-2.23-4.52Z"/><line class="cls-8" x1="165.02" y1="481.65" x2="161.27" y2="507.57"/><line class="cls-8" x1="358.49" y1="475.35" x2="364.1" y2="508.87"/><line class="cls-8" x1="885.11" y1="478.56" x2="886.77" y2="506.27"/><path class="cls-8" d="M1039,487.26s-1.41,9.91,1.19,21.61"/><path class="cls-9" d="M945.27,302.14s-5.2,18.85-26.65,16.9"/><path class="cls-9" d="M982.36,302.14s5.2,18.85,26.65,16.9"/></g></g></svg>