<?xml version="1.0" encoding="UTF-8"?><svg id="_レイヤー_2" xmlns="http://www.w3.org/2000/svg" viewBox="0 0 150.43 43.75"><defs><style>.cls-1{fill:#e35f0e;}.cls-2{fill:#fefcfa;}.cls-3{fill:#e26516;}.cls-4{fill:#040000;}.cls-5{fill:#e26415;}.cls-6{fill:#e66e23;}.cls-7{fill:#fef8f2;}.cls-8{fill:#fefaf8;}.cls-9{fill:#e56b1c;}.cls-10{fill:#e46819;}.cls-11{fill:#231815;}.cls-12{fill:#fdf2e9;}.cls-13{fill:#e56c1e;}</style></defs><g id="_レイヤー_1-2"><g><g><path class="cls-4" d="M27.29,.55c.49-.37,1.11-.35,1.73-.28,.51,.06,1.01,.58,1.1,1.11,.15,.86-.02,1.63-.69,2.24-.12,.11-.23,.23-.36,.33-.23,.18-.33,.41-.32,.7,0,.23,.01,.45-.07,.67-.06,.15-.16,.24-.33,.2-.14-.03-.21-.13-.2-.27,.07-.67,.08-1.34,.74-1.79,.62-.42,.91-1.03,.8-1.81-.08-.54-.44-.85-.99-.9-.86-.08-1.48,.35-2.06,.91-.12,.12-.09,.26-.14,.39-.11,.23-.37,.33-.56,.21-.23-.15-.17-.37-.04-.53,.38-.46,.82-.86,1.39-1.18Z"/><path class="cls-4" d="M28.33,8.13c-.28,.16-.52,.06-.61-.21-.1-.33,.06-.83,.35-1.04,.16-.12,.33-.15,.52-.07,.21,.09,.23,.27,.2,.46-.06,.35-.18,.67-.45,.87Z"/></g><g><path class="cls-11" d="M7,31.88c-1.05-1.41-2.12-2.8-3.12-4.25-1.25-1.82-2.18-3.8-2.99-5.85-.31-.8-.51-1.65-.51-2.52,0-.26-.09-.52-.14-.79-.45-2.46-.33-4.86,.7-7.18,.18-.4,.4-.76,.74-1.04,.86-.69,1.66-1.46,2.6-2.06,.67-.42,1.24-1,1.95-1.38,1.48-.77,3.01-1.42,4.67-1.66,.86-.13,1.72-.13,2.58,0,.63,.1,1.25,.24,1.87,.37,1.26,.25,2.45,.67,3.48,1.48,.06,.05,.14,.1,.21,.13,1.74,.84,3.02,2.23,4.26,3.66,1.02,1.17,1.78,2.51,2.64,3.78,.96,1.41,1.92,2.81,2.8,4.27,.98,1.63,1.38,3.45,1.53,5.33,.09,1.17-.19,2.28-.43,3.4-.07,.31-.2,.58-.43,.8-.23,.32-.47,.13-.71,.02-.73-.77-1.46-1.54-2.32-2.18-1-.75-2.09-1.27-3.35-1.41-.33-.04-.83,0-.78-.47,.05-.43,.51-.29,.82-.27,.47,.03,.94,.1,1.43,.28-.41-1.53-1.09-2.9-1.7-4.3-.17-.29-.33-.59-.55-.85-.99-1.94-2.32-3.67-3.51-5.48-.05-.07-.1-.13-.16-.19-.76-.82-.78-.77-1.67-.12-1.77,1.29-3.39,2.79-5.35,3.81-1.24,.64-2.12,1.74-3.23,2.55-.33,.24-.64,.51-.96,.76-.59,.46-.62,.48-.3,1.17,.69,1.47,1.4,2.91,2.46,4.17,.48,.56,.95,1.13,1.41,1.71,.13,.4,.45,.69,.57,1.09-.22,.65-.8,.98-1.31,1.31-.8,.53-1.41,1.21-2,1.93-.08,.09-.16,.19-.26,.25-.4,.2-.69-.02-.98-.26Z"/><path class="cls-11" d="M28.81,28.31c.21,.05,.4,.23,.63,.07,.47,.89,.86,1.81,1.2,2.76,.34,.95,.66,1.89,.78,2.9,.06,.51,.12,1.02,.06,1.53-.06,.47-.11,.94-.13,1.41-.07,1.33-.57,2.51-1.24,3.63-.42,.72-1.03,1.27-1.73,1.72-.8,.52-1.66,.92-2.57,1.14-1.34,.32-2.7,.33-3.99-.2-.71-.3-1.34-.79-2-1.2-.09-.05-.16-.13-.24-.19-.58-.44-.61-.45-1.22-.02-.8,.57-1.63,1.1-2.57,1.44-.45,.16-.9,.28-1.37,.34-1.48,.19-2.98,.23-4.34-.48-1.39-.73-2.63-1.66-3.25-3.21-.08-.19-.19-.37-.29-.54-.95-1.59-1.02-3.24-.44-4.97,.22-.65,.49-1.27,.9-1.81,.22-.28,.19-.5-.02-.75,.28,.08,.53,.25,.83,.22,.18,.28-.05,.46-.17,.65-.25,.42-.52,.83-.72,1.28-.81,1.85-.63,3.57,.34,5.35,.85,1.58,1.97,2.84,3.64,3.39,2.44,.81,4.78,.39,6.85-1.21,.46-.36,.44-.41-.06-.74-1.27-.84-2.57-1.61-3.79-2.51-.36-.26-.75-.41-1.2-.39-1.21,.06-2.04-.77-2.98-1.31-.22-.13-.34-.38-.21-.64,.13-.28,.36-.3,.62-.16,.15,.11,.27,.25,.42,.35,.41,.28,.81,.56,1.24,.8,.57,.32,.99,.22,1.4-.28,.37-.46,.7-.96,1.12-1.39,.19-.19,.38-.36,.68-.35,1.95,.05,3.9-.02,5.84,.12,.4,.03,.83-.03,1.17,.29,.08,.12,.1,.23,0,.34-.24,.15-.49,.19-.77,.15-1.94-.23-3.89-.14-5.84-.1-.44,0-1.37,.95-1.43,1.4-.04,.26,.17,.35,.33,.47,1.3,.96,2.7,1.8,4.07,2.66,.99,.62,1.93,1.32,2.89,1.99,1.44,.99,2.99,.95,4.55,.59,3.36-.78,4.69-3.49,5.01-6.25,.31-2.74-.59-5.13-1.74-7.49-.12-.25-.36-.46-.27-.79Z"/><path class="cls-2" d="M28.62,27.23c-.45-.25-.55-.61-.51-1.12,.16-1.66,.2-3.34-.43-4.92-.49-1.23-1.02-2.46-1.67-3.63-.4-.72-.79-1.44-1.18-2.16-.26-.47-.63-.86-.98-1.26-.77-.88-1.52-1.77-2.27-2.66-.31-.37-.71-.62-1.07-.92-.53-.45-1.07-.88-1.62-1.31-.27-.21-.56-.42-.91-.49-.19-.03-.33-.12-.25-.33,.08-.19,.27-.2,.42-.13,.37,.18,.77,.33,1.07,.6,.96,.86,2.05,1.56,2.94,2.51,.48,.51,.86,1.09,1.31,1.63,.11,.13,.19,.27,.31,.38,.83,.73,1.38,1.66,1.94,2.6,1.11,1.88,2.07,3.82,2.74,5.89,.21,.65,.31,1.31,.27,2-.04,.96-.05,1.93-.07,2.89,0,.14,.04,.29-.05,.42Z"/><path class="cls-8" d="M26.93,25.75c-.32-.11-.44-.31-.48-.63-.13-.91-.21-1.83-.39-2.74-.17-.84-.47-1.61-.84-2.36-1.17-2.36-2.62-4.55-4.14-6.69-.92-1.3-2.12-2.33-3.42-3.24-.24-.17-.51-.27-.77-.37-.15-.06-.24-.17-.16-.34,.07-.14,.2-.11,.32-.09,.21,.04,.38,.14,.56,.25,1.64,.95,3.04,2.15,4.07,3.76,.37,.59,.83,1.12,1.25,1.68,.84,1.12,1.43,2.39,2.07,3.63,.37,.71,.81,1.38,1.09,2.14,.31,.83,.51,1.68,.61,2.56,.07,.61,.16,1.22,.22,1.83,.02,.2,.09,.4,0,.62Z"/><path class="cls-4" d="M10.95,27.71c1.13,.6,2.35,.86,3.62,.77,1.2-.09,2.42-.2,3.45-.96,.11-.08,.25-.14,.38-.21,2.35-1.3,3.62-3.3,3.89-5.96,.05-.47,.12-.94,.18-1.4,.03-.27,.05-.53-.02-.8,.3,.22,.41,.56,.57,.87-.06,.45-.15,.89-.19,1.34-.18,1.95-.86,3.62-2.3,5.02-1.05,1.02-2.27,1.74-3.59,2.18-1.6,.53-3.29,.68-4.97,.18-.18-.05-.36-.08-.54-.12-.18-.3-.45-.54-.47-.92Z"/><path class="cls-12" d="M4.53,24.75c-.58-1.06-1.18-2.11-1.67-3.21-.02-.04-.04-.07-.05-.11-.08-.19-.19-.44,.07-.53,.29-.11,.27,.18,.35,.36,.23,.53,.47,1.05,.74,1.55,1.35,2.5,2.99,4.79,4.75,7,.04,.05,.08,.09,.12,.14,.14,.17,.04,.3-.08,.42-.18,.17-.25-.01-.33-.11-.49-.63-1-1.24-1.46-1.9-.84-1.19-1.72-2.34-2.44-3.61Z"/><path class="cls-7" d="M9.18,28.51c-.8-1.36-1.8-2.58-2.72-3.85-.47-.66-.64-1.46-1.07-2.14-.03-.05-.03-.12-.04-.18-.03-.17,.04-.28,.19-.34,.13-.05,.25,.02,.31,.14,.11,.2,.23,.39,.29,.61,.33,1.13,1.05,2.02,1.73,2.94,.75,1.02,1.43,2.09,2.13,3.13,.03,.05,.03,.12,.06,.17,.1,.17,.08,.29-.11,.39-.18,.1-.26,0-.34-.14-.15-.25-.29-.49-.44-.74Z"/><path class="cls-4" d="M10.12,35.91c.41-.97,1.17-1.5,2.18-1.69,.31-.06,.61,0,.9,.15,.33,.17,.66,.34,.98,.52,.14,.08,.19,.22,.1,.37-.08,.13-.21,.14-.32,.09-.17-.07-.32-.17-.48-.27-1-.61-2.21-.26-2.75,.8-.07,.14-.1,.32-.23,.43-.18-.09-.3-.22-.37-.41Z"/><path class="cls-4" d="M14.34,21.72c-.2-.38-.4-.76-.59-1.15-.07-.14-.08-.28,.08-.37,.15-.08,.28-.02,.37,.12,.24,.38,.35,.83,.6,1.21,.26,.4,.25,.41,.73,.24,.12-.04,.25-.08,.34,.04,.1,.14,.04,.28-.08,.38-.41,.34-1.08,.33-1.26-.16-.04-.11-.12-.21-.18-.32Z"/><path class="cls-3" d="M11.16,23.19c.35-.2,.67-.13,.84,.19,.19,.36,.09,.8-.22,.97-.31,.17-.73,.05-.9-.27-.17-.32-.05-.7,.28-.89Z"/><path class="cls-5" d="M18.78,18.59c.18,.33,.05,.71-.28,.89-.3,.16-.73,.02-.91-.28-.18-.3-.06-.74,.24-.9,.33-.18,.76-.05,.94,.29Z"/><path class="cls-4" d="M15.82,17.51c.15,.21,.07,.54-.15,.69-.23,.16-.47,.12-.64-.1-.17-.24-.14-.57,.07-.7,.22-.14,.58-.08,.71,.11Z"/><path class="cls-4" d="M11.42,20.23c.25-.14,.5-.08,.63,.15,.16,.27,.08,.62-.16,.75-.22,.12-.47,.02-.62-.22-.17-.28-.11-.53,.15-.68Z"/><path class="cls-4" d="M21.95,35.4c.28-1.41,1.84-2.54,3.25-2.3,.53,.09,1.05,.18,1.55,.39,.7,.3,1.08,.98,.92,1.62-.13,.55-.5,.88-1.02,1.06-1.29,.43-2.58,.37-3.88,.06-.39-.09-.66-.32-.78-.7,0-.03,0-.06,0-.09,0-.01-.02-.02-.03-.03Zm.73-.4c-.26,.58-.17,.77,.46,.89,1.08,.21,2.15,.26,3.22-.07,.49-.15,.81-.43,.87-.84,.05-.37-.23-.8-.68-1-.45-.2-.94-.29-1.43-.36-.53-.07-1.02,.02-1.44,.3-.48,.27-.8,.63-1.01,1.08Z"/><path class="cls-4" d="M17.62,25.6c-.24,.15-.5,.28-.79,.32-.48,.07-.78-.16-.86-.64-.08-.49-.03-.98,.13-1.45,.14-.43,.47-.61,.91-.48,.29,.08,.58,.2,.85,.34,.75,.41,.8,1.17,.13,1.69-.11,.09-.24,.15-.37,.22Zm.38-1.05c-.05-.31-.3-.47-.59-.56-.04-.01-.08-.03-.11-.05-.58-.22-.74-.14-.86,.45-.07,.35-.2,.79,.12,1.03,.31,.23,.64-.13,1-.23,.15-.2,.5-.3,.45-.64Z"/></g></g><g><g><path class="cls-4" d="M70.22,5.49c.29,.5,.21,1.57-.24,1.96-.44,.38-.66,.81-.69,1.37-.01,.23-.09,.42-.37,.37-.24-.04-.24-.26-.21-.44,.1-.55,.22-1.09,.7-1.46,.29-.23,.44-.51,.44-.89,0-.8-.28-1.07-1.08-.97-.04,0-.08,.03-.12,.03-.17,0-.34-.02-.37-.23-.03-.2,.11-.29,.27-.35,.55-.19,1.37,.11,1.67,.63Z"/><path class="cls-4" d="M69.15,10.34c.12,.22-.02,.64-.27,.8-.23,.14-.5,.08-.62-.16-.15-.27-.03-.65,.24-.79,.23-.12,.54-.05,.65,.15Z"/></g><g><path class="cls-1" d="M44.14,16.35c-.28,.02-.48,.22-.7,.35-.67,.4-1.33,.81-2,1.22-.14,.09-.29,.16-.43,.24-.16,.08-.32,.1-.46-.02-.15-.13-.11-.3-.06-.46,.08-.28,.25-.52,.42-.75,.41-.54,.8-1.09,1.16-1.66,.15-.24,.17-.46,.08-.75-.43-1.37-.9-2.73-1.19-4.14-.28-1.32-.45-2.63-.13-3.97,.04-.16,.05-.33,.06-.49,.01-.45,.23-.79,.57-1.04,1.56-1.14,3.13-2.26,4.93-3.01,1.25-.52,2.51-1.01,3.82-1.37,.69-.19,1.35-.49,2.08-.52,1.32-.05,2.4,.32,3.22,1.43,.65,.87,1.23,1.79,1.85,2.68,.3,.44,.6,.6,1.11,.5,.44-.09,.9-.09,1.35-.12,.16-.01,.36-.05,.44,.13,.1,.22-.09,.35-.22,.46-.32,.28-.67,.54-1.01,.81-.27,.22-.53,.45-.8,.67-.08,.21-.2,.4-.39,.53-1.74,1.23-3.56,2.33-5.29,3.56-1.63,1.16-3.3,2.28-4.91,3.48-.9,.67-1.84,1.3-2.77,1.92-.23,.13-.45,.3-.73,.31Z"/><path class="cls-1" d="M54.77,36.37c.06,.2,.2,.32,.33,.45,1.04,.99,2.07,1.98,3.11,2.97,.12,.11,.25,.21,.38,.31,.51,.36,1.06,.66,1.51,1.11,.54,.55,1.3,.77,2,1.06,1.06,.46,2.13,.78,3.33,.52,1.08-.24,2.18-.36,3.14-1.01,.5-.34,.95-.71,1.3-1.2,.36-.5,.69-1.02,1.07-1.5,.64-.82,.94-1.77,1.11-2.77,.17-.99,.44-1.96,.47-2.98,.03-.89-.03-1.76-.21-2.63-.18-.88-.3-1.77-.63-2.62-.58-1.5-1.36-2.85-2.67-3.83-.13-.1-.26-.21-.37-.33-.84-.89-1.88-1.28-3.09-1.28-.23,0-.63,.07-.61-.22,.01-.37,.4-.21,.65-.21,.99,0,1.94,.2,2.71,.84,.71,.58,1.43,1.17,2.07,1.84,.75,.79,1.24,1.74,1.61,2.74,.73,1.98,1.16,4.02,.94,6.15-.15,1.47-.44,2.92-.9,4.33-.1,.3-.26,.56-.44,.81-.43,.62-.85,1.25-1.31,1.86-.88,1.18-2.07,1.89-3.51,2.22-.76,.17-1.54,.24-2.3,.38-.29,.05-.57,.04-.85-.06-1.39-.49-2.82-.9-3.99-1.87-.19-.16-.38-.13-.57-.04-1.57,.73-3.26,1.1-4.93,1.52-1.13,.28-2.29,.31-3.42,.18-.97-.11-1.9-.5-2.7-1.13-.52-.4-.98-.85-1.43-1.34-1.47-1.63-1.77-3.5-1.31-5.57,.37-1.65,1.23-3.01,2.4-4.22,.95-.98,2-1.82,3.16-2.54,.03-.02,.07-.05,.1-.07,.15-.08,.31-.17,.42,.04,.08,.16-.05,.27-.18,.34-.6,.32-1.17,.69-1.69,1.12-1.8,1.49-3.36,3.15-3.81,5.56-.23,1.21-.23,2.4,.25,3.56,.16,.39,.42,.7,.66,1.03,.93,1.29,2.11,2.21,3.66,2.64,.77,.21,1.55,.22,2.32,.18,1.19-.07,2.35-.32,3.46-.78,.45-.18,.96-.22,1.43-.36,.5-.15,1.01-.32,1.53-.65-.98-.54-1.66-1.34-2.44-2.03-.58-.51-1.06-1.14-1.68-1.62-.3-.23-.59-.35-.94-.36-.53-.02-1.07-.05-1.6-.07-.1,0-.21,0-.31,0-.16-.02-.28-.09-.26-.28,.03-.19,.16-.21,.32-.18,.42,.09,.86,.1,1.29,.13,.29,.02,.52-.05,.78-.24,.79-.59,1.62-1.11,2.44-1.66,.2-.14,.41-.12,.64-.09,1.65,.19,3.3,.37,4.96,.55,.39,.04,.78,.08,1.17,.02,.16-.02,.38-.06,.39,.17,.02,.26-.21,.26-.4,.25-.86-.02-1.72-.07-2.58-.18-1.02-.13-2.04-.24-3.06-.37-.54-.07-1,.06-1.44,.39-.49,.36-1.07,.59-1.5,1.04Z"/><path class="cls-4" d="M44.14,16.35c.13-.14,.28-.25,.47-.28,.65,.63,1.14,1.37,1.48,2.2,.12,.31-.05,.56-.27,.76-.68,.63-.86,1.39-.69,2.3,.3,1.54,1.5,2.27,3.01,1.81,.7-.22,.93-.13,1.33,.5,.66,1.04,1.49,1.96,2.16,2.99,.19,.29,.43,.55,.7,.77,.97,.83,2.13,.97,3.24,.52,2.79-1.15,5.35-2.69,7.51-4.84,.76-.75,.97-1.61,.68-2.65-.5-1.83-1.17-3.59-1.98-5.3-.23-.49-.18-.91,.16-1.31,.07-.08,.14-.15,.21-.22,.76-.76,.91-1.38,.55-2.14-.42-.87-1.24-1.33-2.21-1.23-.18,.02-.36,.08-.55,.09-.29,.01-.55-.08-.67-.35-.37-.87-1.01-1.6-1.32-2.5-.07-.19-.19-.37-.11-.59,.13-.11,.26-.22,.38-.33,.42,.91,1.06,1.71,1.42,2.66,.11,.29,.28,.46,.65,.36,.25-.07,.53-.05,.79-.05,.84,0,1.52,.31,1.91,1.1,.07,.15,.17,.28,.26,.42,.57,.96,.45,1.94-.32,2.76-.08,.09-.18,.17-.26,.26-.42,.47-.39,.45-.13,1.05,.8,1.82,1.57,3.66,1.96,5.62,.17,.84-.05,1.6-.52,2.27-.5,.7-1.14,1.29-1.81,1.83-1.89,1.5-3.94,2.76-6.18,3.66-1.64,.66-3.27,.55-4.52-.96-.86-1.04-1.62-2.16-2.39-3.28-.34-.5-.33-.5-.9-.37-.22,.05-.45,.06-.67,.11-.75,.17-1.38-.03-1.88-.61-.23-.26-.55-.43-.73-.74-.62-1.03-.8-2.61,.11-3.69,.41-.49,.38-.51,.03-1.08-.31-.51-.71-.96-.92-1.52Z"/><path class="cls-4" d="M56.21,34.12c.1,.12,.02,.33-.16,.38-.2,.06-.41,0-.61-.03-.65-.08-1.3-.15-1.94,.11-.46,.19-.81,.46-1.02,.92-.09,.19-.19,.36-.29,.54-.08,.14-.19,.22-.35,.15-.17-.08-.15-.22-.1-.37,.35-1.05,1.5-1.86,2.66-1.86,.53,0,1.06,.11,1.6,.07,.09,0,.16,.04,.22,.09Z"/><path class="cls-4" d="M45.7,13.11c-.54,.38-1.14,.65-1.72,.96-.15,.08-.32,.16-.42-.05-.09-.2,.06-.28,.22-.36,1.97-.94,3.76-2.2,5.58-3.38,1.8-1.17,3.5-2.5,5.32-3.65,.53-.34,1.02-.76,1.44-1.24,.13-.14,.3-.38,.5-.15,.18,.2-.03,.37-.19,.5-.72,.61-1.44,1.21-2.27,1.69-1.03,.6-1.95,1.36-2.93,2.03-1.3,.9-2.61,1.78-3.95,2.61-.54,.33-1.04,.73-1.59,1.04Z"/><path class="cls-4" d="M65.17,33.69c1.07-.62,2.06-.5,3-.08,.75,.34,.78,1.59,.07,2-.96,.55-2.02,.78-3.13,.58-.25-.04-.47-.14-.67-.29-.49-.39-.57-1.03-.14-1.45,.31-.3,.59-.63,.87-.76Zm-.26,.92c-.5,.54-.38,1,.34,1.13,.94,.17,1.84-.07,2.67-.5,.47-.24,.44-1-.04-1.2-.78-.32-1.59-.43-2.45,.1-.16,.07-.33,.27-.52,.47Z"/><path class="cls-4" d="M53.75,18.66c-.38-.61-.59-1.31-.92-1.94-.11-.2-.13-.42,.14-.5,.23-.08,.32,.09,.38,.29,.22,.73,.58,1.4,.94,2.07q.24,.44,.66,.21c.07-.04,.14-.09,.21-.12,.13-.05,.25-.03,.33,.09,.08,.12,.05,.25-.05,.33-.25,.22-.54,.37-.87,.42-.21,.03-.35-.09-.45-.26-.12-.19-.23-.38-.35-.58Z"/><path class="cls-4" d="M55.68,10.9c-.4,.15-.84,.31-1.28,.46-.14,.05-.3,.05-.36-.12-.07-.19,.03-.32,.22-.35,.44-.09,.86-.24,1.25-.47,.14-.09,.33-.13,.42,.07,.08,.19-.07,.3-.24,.41Z"/><path class="cls-4" d="M55.33,13.78c-.27,.17-.44,.13-.6-.14-.17-.3-.13-.56,.13-.74,.28-.19,.59-.14,.74,.11,.15,.27,.04,.57-.27,.77Z"/><path class="cls-4" d="M48.14,15.67c-.17,.12-.31,.14-.42,0-.11-.15-.04-.29,.09-.37,.34-.24,.63-.51,.87-.85,.08-.11,.2-.14,.32-.06,.15,.1,.14,.24,.05,.37-.25,.38-.64,.62-.92,.91Z"/><path class="cls-4" d="M50.08,16.07c.26-.16,.56-.1,.69,.13,.13,.24,.06,.56-.17,.7-.23,.15-.48,.09-.63-.15-.18-.27-.14-.54,.11-.69Z"/><path class="cls-6" d="M53.63,21.16c.1,.17,.02,.68-.13,.8-.08,.07-.19,.08-.28,0-.16-.14-.17-.7,0-.85,.15-.14,.29-.1,.41,.04Z"/><path class="cls-10" d="M56.24,20.34s.08,.16,.09,.28c0,.1-.04,.2-.16,.23-.25,.06-.35-.17-.5-.29-.14-.11-.18-.27-.09-.44,.14-.24,.41-.17,.65,.22Z"/><path class="cls-10" d="M57.57,19.45c.09,.13,.12,.27-.02,.38-.17,.13-.5,0-.67-.26-.1-.15-.14-.3,.04-.42,.18-.11,.5,.04,.66,.3Z"/><path class="cls-9" d="M58.88,18.57s.01,.1,0,.15c-.02,.11-.11,.18-.22,.18-.24,0-.5-.01-.65-.24-.06-.08-.04-.2,.01-.29,.13-.2,.71-.08,.85,.2Z"/><path class="cls-13" d="M54.86,20.93c.12,.22,.07,.56-.07,.64-.16,.09-.28,0-.35-.13-.1-.21-.17-.44,.04-.61,.15-.12,.3-.02,.39,.1Z"/><path class="cls-4" d="M56.53,23.87c-.2-.26-.28-.5-.32-.74-.07-.44-.05-.87,.35-1.17,.43-.32,.88-.48,1.43-.24,.67,.29,.99,.83,1.1,1.51,.07,.46-.38,1.13-.85,1.31-.51,.2-1.18,.02-1.56-.43-.08-.09-.13-.21-.15-.25Zm1.51,.16c.46-.06,.71-.41,.63-.86-.1-.54-.43-.87-.94-1.04-.56-.18-1.09,.26-1.01,.85,.03,.21,.13,.39,.22,.56,.26,.45,.52,.56,1.1,.49Z"/></g></g><g><g><path class="cls-4" d="M109.55,6.51c1.29-.81,.68-2.49-.3-3.01-.22-.12-.44-.24-.67-.35-.21-.11-.36-.27-.23-.5,.15-.26,.34-.15,.52,0,.36,.29,.8,.46,1.15,.77,.67,.61,.85,1.38,.79,2.23-.03,.42-.28,.78-.61,1-.94,.61-.92,1.47-.69,2.4,.02,.08,.06,.16,.07,.24,.02,.16,0,.3-.19,.34-.16,.04-.28-.03-.37-.17-.34-.57-.17-2.21,.29-2.7,.1-.11,.21-.21,.26-.25Z"/><path class="cls-4" d="M109.68,11.44c-.12,.11-.27,.13-.42,0-.19-.16-.2-.49-.03-.67,.16-.17,.34-.16,.5-.03,.17,.13,.14,.5-.05,.7Z"/></g><g><path class="cls-4" d="M85.87,23.34c-.48-.38-.69-.9-.9-1.46-.47-1.28-.47-2.61-.49-3.93-.02-.91,.11-1.81,.54-2.64,.26-.51,.38-1.07,.66-1.57,.84-1.45,2-2.6,3.31-3.61,.62-.48,1.27-.9,1.97-1.25,.22-.11,.43-.27,.64-.4,1.57,.07,2.97-.8,4.53-.82,1.09-.58,2.14-.15,3.16,.2,1.19,.41,2.04,1.29,2.75,2.32,.56,.82,.96,1.72,1.46,2.57,.09,.15,.16,.31,.15,.48-.02,.32,.06,.56,.35,.74,.22,.14,.27,.36,.15,.61-.53,.61-1.16,1.11-1.86,1.5-1.11,.61-2.23,1.18-3.35,1.77-.15,.08-.3,.15-.46,.21-.84,.3-1.19,.18-1.59-.6-.35-.68-.56-1.41-.84-2.17-.14,.53-.19,1.02-.21,1.52-.11,2.07-.24,2.24-2.32,3.11-.4-.03-.31-.34-.29-.56,.05-1.03,.11-2.06,.39-3.06,.05-.17,.17-.41-.1-.47-.27-.06-.35,.19-.39,.4-.18,.93-.26,1.87-.33,2.82-.04,.5-.04,1.01-.36,1.44-.22,.19-.46,.34-.76,.38-.42-.12-.27-.48-.26-.74,.05-1.12,.3-2.2,.52-3.3,.05-.23,.24-.6-.06-.66-.38-.09-.33,.35-.37,.59-.23,1.32-.48,2.65-.54,3.99-.01,.23-.05,.46-.23,.64-.31,.25-.65,.44-1.04,.53-.39-.04-.29-.36-.31-.58-.11-1.32,.15-2.6,.47-3.88,.07-.26,.33-.69-.02-.78-.37-.09-.33,.4-.38,.66-.29,1.43-.57,2.86-.47,4.33,.02,.25,0,.51-.18,.72-.8,.49-1.62,.95-2.36,1.52-.45,.08-.45-.29-.56-.55Z"/><path class="cls-4" d="M91.51,7.32c-.58-.98-.7-2.01-.28-3.08,.41-1.05,1.22-1.63,2.28-1.89,.29-.07,.59-.03,.87,.07,1.38,.49,2.27,1.39,2.47,2.89,.02,.12,.03,.25,.04,.38-.15,.34-.47,.3-.76,.31-.8,.03-1.59,.17-2.38,.31-.66,.11-1.3,.35-1.8,.85-.11,.11-.24,.25-.44,.16Z"/><path class="cls-1" d="M91.51,7.32c.82-.89,1.88-1.2,3.04-1.29,.62-.05,1.23-.26,1.87-.19,.18,.02,.31-.1,.47-.15,.53,.24,.62,.39,.55,.9-.02,.12-.04,.25-.06,.37-.31,.41-.8,.56-1.22,.82-1.07,.18-2.13,.35-3.15,.75-.46,.18-.94,.09-1.41-.06-.32-.36-.41-.73-.09-1.14Z"/><path class="cls-1" d="M89.5,21.85c-.19,.17-.41,.28-.66,.34-.17-1.79,.16-3.52,.51-5.26,.09-.47,.27-.63,.54-.56,.28,.07,.34,.29,.21,.74-.46,1.55-.69,3.12-.59,4.74Z"/><path class="cls-1" d="M91.53,20.76c-.22,.18-.47,.31-.74,.39,0-1.12,.16-2.22,.35-3.32,.07-.41,.13-.83,.2-1.25,.03-.16,.07-.33,.13-.49,.07-.17,.21-.26,.4-.22,.19,.04,.29,.15,.32,.34,.03,.2-.04,.37-.09,.56-.33,1.31-.58,2.63-.58,3.99Z"/><path class="cls-1" d="M93.32,19.83c-.27,.18-.55,.33-.85,.44,.23-1.27,.21-2.56,.44-3.83,.04-.23,.06-.46,.18-.67,.12-.21,.31-.29,.54-.2,.25,.09,.31,.3,.22,.52-.48,1.21-.4,2.49-.53,3.74Z"/><path class="cls-4" d="M85.87,23.34c.1,0,.17,.06,.16,.15,0,.18,.11,.26,.23,.34-.04,.21-.23,.29-.36,.42-.62,.57-.73,1.17-.36,1.94,.66,1.37,1.33,1.71,2.79,1.36,.56-.13,1.01-.02,1.39,.37,.88,.92,2.02,1.36,3.16,1.79,.3,.11,.61,.18,.91,.29,1.52,.52,3.03,.34,4.54-.06,2.49-.66,4.46-2.13,6.02-4.1,1.42-1.8,1.84-3.9,1.39-6.16-.06-.29-.16-.57-.21-.86-.07-.38,.01-.7,.3-.98,.3-.29,.58-.61,.65-1.06,.21-1.29-.43-1.98-1.76-2.18-.2-.03-.43,.06-.6-.12,.07-.53-.36-.52-.73-.61,.23-.55,.16-1.01-.28-1.39-.12-.1-.16-.24-.17-.4-.01-.18-.09-.33-.18-.47-.66-1.01-1.22-2.11-2.21-2.88-.53-.41-1.11-.73-1.78-.87-.31-.06-.61-.18-.91-.27-.43-.12-.86-.18-1.27,.1-.12,.08-.26,.16-.41,.08,.29-.44,.73-.66,1.22-.82,1.49,.28,2.76,1.02,3.95,1.92,.77,.59,1.23,1.43,1.73,2.24,.47,.75,.88,1.54,.99,2.44,.04,.35,.21,.41,.55,.39,1-.08,2.06,.5,2.41,1.4,.29,.76,.35,1.56-.17,2.28-.17,.24-.25,.54-.51,.72-.23,.16-.15,.33-.09,.55,.47,1.69,.43,3.38-.13,5.04-.24,.72-.59,1.4-.96,2.02,0,.11,.06,.13,.12,.15,1.32,.41,2.3,1.29,3.16,2.33,.3,.36,.59,.72,.85,1.1,.89,1.34,1.49,2.78,1.52,4.41,.01,.76,.05,1.52,.08,2.27,.01,.39-.06,.75-.24,1.1-.12,.22-.22,.46-.3,.7-.43,1.26-1.26,2.16-2.41,2.81-.88,.49-1.8,.75-2.8,.89-1.45,.21-2.8-.05-4.14-.52-.45-.16-.85-.18-1.33,0-1.11,.39-2.23,.79-3.4,.91-1.46,.15-2.93,.08-4.28-.55-.82-.37-1.53-.96-2.12-1.66-.08-.1-.15-.21-.25-.28-1.02-.79-1.39-1.97-1.72-3.1-.35-1.2-.09-2.43,.43-3.57,.61-1.33,1.46-2.45,2.82-3.21-.3-.17-.54-.32-.8-.45-.38-.2-.73-.42-1-.76-.21-.26-.46-.38-.83-.27-.59,.18-1.21,.11-1.82,.05-.24-.03-.43-.14-.62-.29-.66-.54-1.1-1.25-1.34-2.03-.27-.87,.12-1.6,.75-2.21,.14-.14,.42-.14,.41-.42Zm13.21,16.89c-.87-.74-1.83-1.35-2.74-2.03-.1-.07-.2-.15-.34-.14-.83,.06-1.56-.31-2.32-.54-.56-.18-.65-.36-.56-.94,.1-.66,.49-1.14,.98-1.58,1.03-.93,2.16-1.28,3.48-.68,.13,.06,.28,.1,.42,.14,1.01,.26,2.05,.25,3.07,.35,.19,.02,.32-.12,.43-.24,.71-.76,1.61-1.12,2.62-1.25,.86-.11,1.63,.1,2.18,.74,.75,.86,.65,1.64-.4,2.16-1.16,.57-2.41,.74-3.7,.53-.73-.12-1.1-.48-1.17-1.23-.03-.28-.22-.23-.36-.24-.9-.09-1.81-.13-2.7-.29-.15-.03-.24,.02-.3,.16-.3,.77-.81,1.42-1.17,2.16-.12,.25-.07,.34,.13,.5,1.05,.88,2.29,1.51,3.28,2.46,.07,.07,.17,.13,.27,.16,1.15,.42,2.34,.71,3.55,.89,.14,.02,.3,.02,.44,0,.54-.06,1.09-.13,1.63-.21,1.07-.17,1.99-.68,2.81-1.37,.43-.37,.79-.82,1.04-1.34,.5-1.06,.88-2.14,.68-3.35-.05-.33-.03-.67-.05-1.01-.02-.44-.04-.88-.15-1.32-.46-1.91-1.56-3.45-2.92-4.8-.55-.55-1.19-1.01-1.95-1.25-.43-.14-.71-.05-1.04,.29-1.4,1.46-2.96,2.67-4.91,3.37-1.34,.48-2.7,.6-4.09,.69-.3,.02-.59-.06-.87-.14-.75-.22-1.51-.39-2.23-.7-.16-.07-.32-.15-.54-.05-.5,.23-.99,.48-1.37,.89-.64,.68-1.16,1.45-1.52,2.31-.42,1.02-.6,2.09-.31,3.16,.19,.7,.52,1.38,.87,2.03,.03,.06,.06,.12,.1,.16,.78,.82,1.57,1.64,2.52,2.28,.19,.13,.41,.21,.63,.29,2.39,.87,4.68,.43,7.02-.55-.18-.18-.3-.33-.44-.45Zm6.26-6.33c-.69-.31-1.36-.14-2.03,.02-.86,.2-1.45,.66-1.67,1.56-.07,.29-.01,.44,.23,.55,.13,.06,.27,.13,.41,.16,1.19,.21,2.35,.06,3.46-.39,.53-.21,.68-.62,.42-1.22-.14-.26-.43-.5-.81-.68Zm-11.44,1.98c-.18,.21-.22,.49-.25,.77-.01,.17,.02,.28,.19,.35,.53,.2,1.06,.41,1.63,.48,.25,.03,.37-.04,.49-.26,.36-.64,.63-1.34,1.11-1.91,.05-.06,.06-.16,.1-.23,.16-.28,.02-.42-.23-.5-.64-.2-1.25-.1-1.79,.19-.55,.27-.9,.7-1.26,1.11Z"/><path class="cls-4" d="M96.55,22.45c.35-.19,1.09,.06,1.26,.42,.05,.1,.05,.2-.02,.29-.1,.12-.23,.1-.34,.03-.14-.09-.26-.22-.4-.29-.29-.16-.44-.05-.42,.27,.01,.14,.07,.28,.09,.43,.01,.11-.04,.21-.16,.24-.11,.03-.21-.02-.28-.11-.26-.34-.11-1.07,.27-1.28Z"/><path class="cls-4" d="M93.94,22.18c.12,.23-.02,.65-.26,.76-.22,.1-.58-.04-.7-.26-.14-.25-.03-.54,.25-.67,.26-.13,.6-.04,.72,.18Z"/><path class="cls-4" d="M98.55,20.46c-.25,.13-.57,.04-.71-.2-.13-.23-.05-.5,.19-.64,.26-.15,.62-.05,.75,.21,.11,.23,.01,.5-.23,.62Z"/><path class="cls-4" d="M99.37,25.37c.35,.65,.25,1.37-.23,1.65-.66,.38-1.56,.13-1.9-.52-.29-.55-.05-1.38,.47-1.67,.6-.33,1.33-.09,1.67,.54Zm-1.31-.17c-.29,.11-.46,.48-.4,.84,.05,.3,.33,.36,.5,.53,.24,.23,.49,.23,.75,.08,.3-.17,.24-.46,.2-.73-.01-.1-.07-.2-.09-.24-.24-.44-.61-.62-.96-.49Z"/></g></g><g><g><path class="cls-4" d="M146.46,8.87c-.08,.07-.12,.12-.17,.15-.12,.07-.25,.07-.35-.03-.1-.11-.06-.24,0-.35,.14-.23,.38-.34,.62-.41,.41-.13,.84-.13,1.25-.04,.49,.1,.87,.55,.94,1.08,.12,.88-.28,1.59-1.13,1.88-.28,.09-.37,.25-.37,.5,0,.25,0,.51-.02,.76-.01,.18-.06,.35-.29,.34-.2,0-.31-.14-.31-.33,0-.47,.08-.93,.19-1.38,.07-.28,.33-.31,.55-.35,.48-.09,.75-.38,.84-.83,.07-.38,.07-.8-.3-1.03-.42-.27-.89-.2-1.34-.04-.06,.02-.11,.07-.12,.08Z"/><path class="cls-4" d="M146.57,13.63c.24-.16,.62-.1,.73,.12,.1,.2,0,.6-.2,.75-.22,.16-.57,.09-.72-.15-.15-.22-.06-.55,.2-.72Z"/></g><g><path class="cls-1" d="M123.83,17.69c-.68,.31-1.17-.03-1.52-.54-.71-1.01-1.25-2.11-1.49-3.33-.13-.68-.26-1.37-.37-2.06-.25-1.51,.02-2.94,.7-4.3,.13-.26,.33-.5,.44-.77,.8-1.81,2.33-2.66,4.13-3.14,.38-.1,.69-.21,.95-.54,.41-.52,1.06-.71,1.66-.87,.79-.22,1.59-.41,2.42-.5,.93-.1,1.82-.04,2.64,.46,.07,.04,.15,.08,.23,.11,1.27,.39,2.2,1.32,3.24,2.07,.08,.06,.16,.14,.22,.22,.6,.82,1.23,1.61,1.73,2.5,.11,.21,.24,.41,.18,.66-.12,.45-.14,.92-.4,1.33-.02,.26-.22,.32-.41,.39-1.67,.17-3.32,.26-4.93-.38-.72-.28-1.36-.11-1.93,.51-2.02,2.21-3.88,4.56-6,6.68-.36,.36-.57,.84-.92,1.21-.16,.15-.31,.33-.57,.29Z"/><path class="cls-1" d="M141.54,33.78c-.13,.08-.27,.12-.42,.11-1.56-.13-3.14-.11-4.64-.61-.2-.07-.42-.07-.62-.1-.42-.07-.77,.06-1.1,.33-.56,.45-1.07,.96-1.56,1.48-.22,.23-.18,.39,.02,.59,1.39,1.42,2.76,2.86,4.41,4,1.32,.9,2.76,1.48,4.36,1.59,.68,.05,1.35,.06,2.03,.09,1.38,.05,2.46-.62,3.5-1.44,.87-.69,1.37-1.58,1.68-2.63,.49-1.63,.81-3.29,.79-5-.01-1.6-.43-3.06-1.29-4.44-.9-1.44-2.25-2.26-3.66-3.04-.48-.27-1-.46-1.5-.68-.08-.03-.16-.06-.23-.1-.18-.09-.37-.19-.25-.42,.1-.19,.28-.14,.45-.06,1.46,.69,2.93,1.35,4.18,2.38,1.02,.83,1.69,1.95,2.18,3.15,.48,1.19,.61,2.44,.58,3.73-.03,1.5-.34,2.93-.71,4.37-.38,1.49-1.18,2.61-2.42,3.52-1.15,.84-2.38,1.24-3.8,1.15-.78-.05-1.56-.04-2.34-.17-.84-.15-1.66-.36-2.41-.77-.2-.11-.33-.11-.56,.03-.94,.56-1.98,.84-3.05,1.03-.21,.04-.43,.04-.62,.1-1.21,.41-2.38,.13-3.56-.13-.08-.02-.17-.04-.24-.08-.83-.52-1.8-.75-2.63-1.25-1.76-1.08-2.83-2.61-2.93-4.75-.09-2.12,.55-4.01,1.73-5.73,.44-.64,.93-1.26,1.41-1.87,.37-.47,.82-.85,1.29-1.22,.19-.15,.39-.26,.64-.23,.13,.01,.26,.05,.27,.2,.01,.12-.04,.22-.15,.25-1,.28-1.53,1.08-2.08,1.85-.26,.36-.52,.72-.78,1.08-1.3,1.79-1.96,3.78-1.79,6.01,.05,.61,.24,1.17,.51,1.69,.6,1.13,1.45,2.03,2.66,2.53,.63,.26,1.23,.55,1.84,.85,.89,.42,1.89,.61,2.85,.46,1.12-.18,2.26-.35,3.33-.75,.32-.12,.63-.25,.92-.51-.41-.31-.8-.62-1.21-.91-1-.72-1.9-1.56-2.73-2.46-1.31-1.42-1.5-1.52-3.43-1.66-.15-.01-.3,0-.44-.03-.18-.03-.33-.11-.3-.33,.03-.22,.18-.27,.37-.24,.17,.02,.34,.05,.5,.08,.5,.1,1.01,.13,1.51,.19,.33,.03,.59-.04,.79-.29,.59-.78,1.4-1.35,2.04-2.08,.18-.21,.35-.32,.57-.08,.09,.11,.2,.16,.33,.17,1.02,.08,1.97,.48,2.99,.55,.65,.05,1.31,.1,1.96,.09,.3,0,.59,.03,.86,.17,.1,.12,.08,.2-.07,.25Z"/><path class="cls-4" d="M123.83,17.69c.14-.1,.28-.2,.42-.3,.64,.54,.87,1.27,.47,1.8-.77,1.01-.5,2.03-.05,3,.71,1.53,1.61,1.95,3.29,1.68,.49-.08,.82,.06,1.18,.4,1.33,1.27,2.83,2.29,4.55,2.94,1.06,.4,2.13,.24,3.18-.07,1.44-.42,2.92-.79,3.97-1.99,1.6-1.84,2.03-3.99,1.58-6.34-.17-.88-.48-1.71-.8-2.54-.26-.69-.26-1.34,.08-2.02,.37-.76,.16-1.53-.15-2.27-.18-.43-.47-.8-.79-1.14-.45-.49-.96-.79-1.67-.73-.67,.05-.93-.22-.93-.85,.15-.09,.3-.18,.44-.28,.18,.28,.39,.42,.77,.39,.68-.07,1.24,.26,1.69,.74,.57,.61,1.03,1.3,1.28,2.1,.25,.8,.37,1.61-.08,2.4-.28,.48-.19,.97-.03,1.47,.21,.66,.48,1.31,.67,1.98,.2,.74,.3,1.49,.38,2.25,.06,.54-.07,1.06-.17,1.57-.43,2.29-1.59,4.02-3.75,5.1-1.18,.59-2.42,.81-3.66,1.13-.67,.17-1.35,0-2-.2-1.08-.33-2.06-.86-2.98-1.53-.69-.5-1.35-1.02-1.98-1.58-.2-.17-.39-.23-.67-.21-.88,.06-1.77,.13-2.58-.35-.33-.2-.63-.4-.85-.73-.58-.84-.93-1.75-.99-2.77-.04-.67,.03-1.32,.51-1.84,.14-.16,.13-.28,.04-.45-.13-.24-.23-.5-.34-.75Z"/><path class="cls-4" d="M131.21,32.63c.9-.68,1.85-.67,2.83-.47,.21,.04,.39,.12,.34,.36-.05,.3-.28,.26-.5,.2-.18-.05-.36-.12-.55-.15-1.11-.17-2.29,.48-2.8,1.52-.03,.06-.05,.11-.08,.17-.08,.15-.21,.21-.37,.15-.17-.06-.2-.22-.16-.37,.12-.44,.35-.82,.73-1.08,.19-.13,.4-.24,.55-.32Z"/><path class="cls-4" d="M141.54,33.78c.07-.07,.08-.16,.07-.25,.44-1.39,1.46-2.02,2.91-1.82,.74,.1,1.41,.28,1.8,1.01,.33,.62,.23,1.21-.33,1.62-.24,.18-.5,.32-.79,.39-1.09,.25-2.14,.13-3.16-.3-.32-.13-.47-.33-.49-.66Zm4.43-.65c-.17-.34-.42-.63-.82-.74-.39-.1-.78-.18-1.18-.18-.83,0-1.6,.56-1.75,1.27-.1,.44,0,.65,.44,.75,.76,.19,1.53,.3,2.31,.12,.19-.05,.36-.11,.51-.2,.51-.3,.69-.64,.5-1.02Z"/><path class="cls-4" d="M135.6,11.08c.13,.17,0,.4-.29,.41-.45,0-.81,.19-1.18,.41-.24,.14-.44,.32-.59,.55-.09,.14-.22,.21-.37,.11-.16-.1-.12-.27-.03-.39,.55-.68,1.26-1.1,2.13-1.22,.18-.02,.27,.04,.34,.13Z"/><path class="cls-4" d="M127.99,15.08c.34-.19,.67-.34,1.04-.32,.21,0,.39,.08,.37,.32-.01,.22-.2,.25-.38,.23-.65-.05-1.05,.33-1.41,.8-.13,.17-.25,.48-.52,.24-.23-.2-.05-.43,.11-.6,.24-.27,.51-.5,.79-.67Z"/><path class="cls-4" d="M133.39,17.58c.38-.22,.76-.14,1.07,.2,.12,.13,.13,.26,.03,.39-.09,.11-.21,.11-.34,.07-.69-.24-.7-.24-.79,.45-.02,.14-.07,.25-.21,.27-.19,.03-.25-.12-.28-.27-.11-.42,.11-.87,.53-1.11Z"/><path class="cls-4" d="M135.01,15.11c-.31,.18-.64,.09-.81-.21-.18-.33-.1-.65,.19-.81,.34-.18,.71-.09,.87,.22,.15,.31,.05,.63-.25,.81Z"/><path class="cls-4" d="M129.95,17.09c.32-.19,.6-.14,.76,.15,.17,.3,.1,.59-.18,.76-.3,.18-.6,.12-.77-.15-.17-.28-.09-.59,.2-.76Z"/><path class="cls-4" d="M134.6,22.22c-.37-.62-.22-1.41,.33-1.73,.6-.34,1.36-.19,1.68,.35,.43,.72,.24,1.49-.46,1.92-.5,.3-1.19,.07-1.55-.54Zm.66-1.3c-.32,.18-.43,.65-.22,1,.19,.32,.69,.48,.99,.32,.36-.19,.45-.62,.21-1.04-.2-.35-.63-.47-.98-.27Z"/></g></g></g></svg>